<svg width="473" height="8" viewBox="0 0 473 8" fill="none" xmlns="http://www.w3.org/2000/svg">
<rect width="7.96552" height="472.308" transform="translate(0 7.96552) rotate(-90)" fill="#F27121"/>
<path d="M2.06894 3.92093C2.50445 3.51028 3.03452 3.2167 3.61077 3.06698C4.18702 2.91725 4.7911 2.91616 5.36788 3.06379C6.22336 3.25485 7.05775 3.53243 7.85852 3.89236C8.3523 4.10779 8.85747 4.29539 9.37171 4.45427C9.65125 4.54968 9.94198 4.60731 10.2364 4.62569C11.1763 4.93045 11.5804 4.39712 11.5898 3.03522C11.5236 3.03234 11.46 3.00803 11.4084 2.96588C11.3568 2.92372 11.3199 2.86593 11.3031 2.80097C11.2863 2.736 11.2904 2.66729 11.315 2.6049C11.3395 2.54251 11.3831 2.48972 11.4394 2.45427C13.3192 1.44475 14.1462 4.10188 12.8022 5.3114C12.3539 5.62992 11.8392 5.83943 11.2981 5.92367C10.7569 6.00791 10.2038 5.96459 9.68187 5.79711C7.11603 5.19711 5.11411 3.05427 2.3133 4.27332C2.11593 4.35903 1.88097 4.12092 2.06894 3.9495L2.06894 3.92093Z" fill="#F8CA95"/>
<path d="M29.3253 3.92093C28.8898 3.51028 28.3597 3.2167 27.7834 3.06698C27.2072 2.91725 26.6031 2.91616 26.0263 3.06379C25.1735 3.25345 24.3421 3.53108 23.5451 3.89236C23.0481 4.10781 22.5398 4.29541 22.0225 4.45427C21.743 4.54968 21.4522 4.60731 21.1578 4.62569C20.265 4.93045 19.8138 4.39712 19.8044 3.03522C19.8706 3.03234 19.9342 3.00803 19.9858 2.96588C20.0374 2.92372 20.0743 2.86593 20.0911 2.80097C20.1079 2.736 20.1038 2.66729 20.0792 2.6049C20.0547 2.54251 20.0111 2.48972 19.9548 2.45427C18.1221 1.44476 17.248 4.10188 18.592 5.3114C19.0403 5.62992 19.555 5.83943 20.0962 5.92367C20.6373 6.00791 21.1904 5.96459 21.7123 5.79711C24.2782 5.19711 26.2801 3.05427 29.0809 4.27331C29.2783 4.35903 29.5133 4.12092 29.3253 3.9495L29.3253 3.92093Z" fill="#F8CA95"/>
<path d="M13.8645 2.86377C14.0502 3.10681 14.2839 3.30793 14.5506 3.45426C14.7198 3.57806 14.8984 3.71139 15.077 3.81615C14.721 4.11377 14.3821 4.43175 14.0619 4.76852C13.9021 4.93995 14.0619 5.27329 14.3063 5.18757C14.7053 5.05229 15.0847 4.8633 15.4341 4.62567C15.4341 4.9971 15.5375 5.38757 15.5845 5.73995C15.596 5.80086 15.6281 5.8558 15.6753 5.89531C15.7225 5.93483 15.7818 5.95645 15.843 5.95645C15.9042 5.95645 15.9634 5.93483 16.0106 5.89531C16.0578 5.8558 16.0899 5.80086 16.1014 5.73995C16.1014 5.36853 16.1954 4.96854 16.2048 4.58759C16.4391 4.79574 16.7059 4.96308 16.9943 5.08281C17.0634 5.1029 17.1372 5.09878 17.2037 5.07113C17.2702 5.04348 17.3256 4.99392 17.3608 4.93044C17.3935 4.86834 17.4065 4.79754 17.3981 4.72769C17.3897 4.65783 17.3603 4.59229 17.3139 4.53996C17.0977 4.2733 16.8909 4.00663 16.7029 3.73044C16.9734 3.3379 17.1797 2.90377 17.3139 2.44474C17.4548 2.02569 16.8815 1.84474 16.6559 2.15902C16.4304 2.47331 16.092 2.83521 15.8195 3.18759L15.8195 3.25425C15.5679 3.04579 15.2857 2.87867 14.983 2.75901C14.719 2.6005 14.4237 2.50296 14.1183 2.47331C14.0703 2.46582 14.0211 2.47245 13.9767 2.49243C13.9323 2.51242 13.8945 2.54491 13.8678 2.58604C13.841 2.62716 13.8265 2.67519 13.8259 2.72442C13.8254 2.77366 13.8388 2.82202 13.8645 2.86377Z" fill="#F8CA95"/>
<path d="M31.4632 3.92093C31.8987 3.51028 32.4288 3.2167 33.0051 3.06698C33.5813 2.91725 34.1854 2.91616 34.7622 3.06379C35.6176 3.25485 36.452 3.53243 37.2528 3.89236C37.7466 4.10779 38.2518 4.29539 38.766 4.45427C39.0455 4.54968 39.3363 4.60731 39.6307 4.62569C40.5705 4.93045 40.9747 4.39712 40.9841 3.03522C40.9179 3.03234 40.8543 3.00803 40.8027 2.96588C40.7511 2.92372 40.7142 2.86593 40.6974 2.80097C40.6806 2.736 40.6847 2.66729 40.7093 2.6049C40.7338 2.54251 40.7774 2.48972 40.8337 2.45427C42.7135 1.44475 43.5405 4.10188 42.1965 5.3114C41.7482 5.62992 41.2335 5.83943 40.6923 5.92367C40.1512 6.00791 39.5981 5.96459 39.0762 5.79711C36.5103 5.19711 34.5084 3.05427 31.7076 4.27332C31.5102 4.35903 31.2753 4.12092 31.4632 3.9495L31.4632 3.92093Z" fill="#F8CA95"/>
<path d="M58.7196 3.92093C58.2841 3.51028 57.754 3.2167 57.1777 3.06698C56.6015 2.91725 55.9974 2.91616 55.4206 3.06379C54.5678 3.25345 53.7364 3.53108 52.9394 3.89236C52.4424 4.10781 51.9341 4.29541 51.4168 4.45427C51.1373 4.54968 50.8465 4.60731 50.5521 4.62569C49.6592 4.93045 49.2081 4.39712 49.1987 3.03522C49.2649 3.03234 49.3285 3.00803 49.3801 2.96588C49.4317 2.92372 49.4686 2.86593 49.4854 2.80097C49.5022 2.736 49.4981 2.66729 49.4735 2.6049C49.449 2.54251 49.4054 2.48972 49.3491 2.45427C47.5163 1.44476 46.6423 4.10188 47.9863 5.3114C48.4346 5.62992 48.9493 5.83943 49.4904 5.92367C50.0316 6.00791 50.5847 5.96459 51.1066 5.79711C53.6725 5.19711 55.6744 3.05427 58.4752 4.27331C58.6726 4.35903 58.9075 4.12092 58.7196 3.9495L58.7196 3.92093Z" fill="#F8CA95"/>
<path d="M43.2588 2.86377C43.4445 3.10681 43.6782 3.30793 43.9449 3.45426C44.1141 3.57806 44.2927 3.71139 44.4712 3.81615C44.1153 4.11377 43.7764 4.43175 43.4562 4.76852C43.2964 4.93995 43.4562 5.27329 43.7005 5.18757C44.0996 5.05229 44.479 4.8633 44.8284 4.62567C44.8284 4.9971 44.9318 5.38757 44.9788 5.73995C44.9903 5.80086 45.0224 5.8558 45.0696 5.89531C45.1167 5.93483 45.176 5.95645 45.2372 5.95645C45.2984 5.95645 45.3577 5.93483 45.4049 5.89531C45.4521 5.8558 45.4842 5.80086 45.4957 5.73995C45.4957 5.36853 45.5897 4.96854 45.5991 4.58759C45.8334 4.79574 46.1002 4.96308 46.3886 5.08281C46.4577 5.1029 46.5315 5.09878 46.598 5.07113C46.6645 5.04348 46.7198 4.99392 46.7551 4.93044C46.7878 4.86834 46.8008 4.79754 46.7924 4.72769C46.784 4.65783 46.7546 4.59229 46.7081 4.53996C46.492 4.2733 46.2852 4.00663 46.0972 3.73044C46.3677 3.3379 46.574 2.90377 46.7081 2.44474C46.8491 2.02569 46.2758 1.84474 46.0502 2.15902C45.8247 2.47331 45.4863 2.83521 45.2137 3.18759L45.2137 3.25425C44.9622 3.04579 44.68 2.87867 44.3773 2.75901C44.1133 2.6005 43.818 2.50296 43.5126 2.47331C43.4646 2.46582 43.4154 2.47245 43.371 2.49243C43.3266 2.51242 43.2888 2.54491 43.2621 2.58604C43.2353 2.62716 43.2208 2.67519 43.2202 2.72442C43.2197 2.77366 43.233 2.82202 43.2588 2.86377Z" fill="#F8CA95"/>
<path d="M60.8573 3.92093C61.2928 3.51028 61.8229 3.2167 62.3991 3.06698C62.9754 2.91725 63.5794 2.91616 64.1562 3.06379C65.0117 3.25485 65.8461 3.53243 66.6469 3.89236C67.1406 4.10779 67.6458 4.29539 68.16 4.45427C68.4396 4.54968 68.7303 4.60731 69.0247 4.62569C69.9646 4.93045 70.3687 4.39712 70.3781 3.03522C70.3119 3.03234 70.2483 3.00803 70.1968 2.96588C70.1452 2.92372 70.1082 2.86593 70.0914 2.80097C70.0746 2.736 70.0788 2.66729 70.1033 2.6049C70.1278 2.54251 70.1715 2.48972 70.2278 2.45427C72.1075 1.44475 72.9346 4.10188 71.5906 5.3114C71.1423 5.62992 70.6275 5.83943 70.0864 5.92367C69.5452 6.00791 68.9922 5.96459 68.4702 5.79711C65.9044 5.19711 63.9024 3.05427 61.1016 4.27332C60.9043 4.35903 60.6693 4.12092 60.8573 3.9495L60.8573 3.92093Z" fill="#F8CA95"/>
<path d="M88.1136 3.92093C87.6781 3.51028 87.148 3.2167 86.5718 3.06698C85.9955 2.91725 85.3914 2.91616 84.8147 3.06379C83.9618 3.25345 83.1304 3.53108 82.3334 3.89236C81.8364 4.10781 81.3281 4.29541 80.8108 4.45427C80.5313 4.54968 80.2406 4.60731 79.9462 4.62569C79.0533 4.93045 78.6021 4.39712 78.5927 3.03522C78.659 3.03234 78.7225 3.00803 78.7741 2.96588C78.8257 2.92372 78.8626 2.86593 78.8795 2.80097C78.8963 2.736 78.8921 2.66729 78.8676 2.6049C78.843 2.54251 78.7994 2.48972 78.7431 2.45427C76.9104 1.44476 76.0363 4.10188 77.3803 5.3114C77.8286 5.62992 78.3433 5.83943 78.8845 5.92367C79.4257 6.00791 79.9787 5.96459 80.5007 5.79711C83.0665 5.19711 85.0684 3.05427 87.8692 4.27331C88.0666 4.35903 88.3016 4.12092 88.1136 3.9495L88.1136 3.92093Z" fill="#F8CA95"/>
<path d="M72.6529 2.86377C72.8385 3.10681 73.0722 3.30793 73.339 3.45426C73.5081 3.57806 73.6867 3.71139 73.8653 3.81615C73.5093 4.11377 73.1704 4.43175 72.8502 4.76852C72.6905 4.93995 72.8502 5.27329 73.0946 5.18757C73.4937 5.05229 73.873 4.8633 74.2224 4.62567C74.2224 4.9971 74.3258 5.38757 74.3728 5.73995C74.3843 5.80086 74.4164 5.8558 74.4636 5.89531C74.5108 5.93483 74.5701 5.95645 74.6313 5.95645C74.6925 5.95645 74.7518 5.93483 74.7989 5.89531C74.8461 5.8558 74.8782 5.80086 74.8897 5.73995C74.8897 5.36853 74.9837 4.96854 74.9931 4.58759C75.2275 4.79574 75.4943 4.96308 75.7826 5.08281C75.8517 5.1029 75.9255 5.09878 75.992 5.07113C76.0585 5.04348 76.1139 4.99392 76.1492 4.93044C76.1818 4.86834 76.1948 4.79754 76.1864 4.72769C76.178 4.65783 76.1486 4.59229 76.1022 4.53996C75.886 4.2733 75.6792 4.00663 75.4913 3.73044C75.7617 3.3379 75.968 2.90377 76.1022 2.44474C76.2432 2.02569 75.6698 1.84474 75.4443 2.15902C75.2187 2.47331 74.8803 2.83521 74.6078 3.18759L74.6078 3.25425C74.3563 3.04579 74.074 2.87867 73.7713 2.75901C73.5073 2.6005 73.2121 2.50296 72.9066 2.47331C72.8586 2.46582 72.8095 2.47245 72.765 2.49243C72.7206 2.51242 72.6828 2.54491 72.6561 2.58604C72.6294 2.62716 72.6148 2.67519 72.6143 2.72442C72.6137 2.77366 72.6271 2.82202 72.6529 2.86377Z" fill="#F8CA95"/>
<path d="M90.2516 3.92093C90.6871 3.51028 91.2171 3.2167 91.7934 3.06698C92.3696 2.91725 92.9737 2.91616 93.5505 3.06379C94.406 3.25485 95.2404 3.53243 96.0411 3.89236C96.5349 4.10779 97.0401 4.29539 97.5543 4.45427C97.8339 4.54968 98.1246 4.60731 98.419 4.62569C99.3589 4.93045 99.763 4.39712 99.7724 3.03522C99.7062 3.03234 99.6426 3.00803 99.591 2.96588C99.5394 2.92372 99.5025 2.86593 99.4857 2.80097C99.4689 2.736 99.4731 2.66729 99.4976 2.6049C99.5221 2.54251 99.5657 2.48972 99.622 2.45427C101.502 1.44475 102.329 4.10188 100.985 5.3114C100.537 5.62992 100.022 5.83943 99.4807 5.92367C98.9395 6.00791 98.3865 5.96459 97.8645 5.79711C95.2986 5.19711 93.2967 3.05427 90.4959 4.27332C90.2985 4.35903 90.0636 4.12092 90.2516 3.9495L90.2516 3.92093Z" fill="#F8CA95"/>
<path d="M117.508 3.92093C117.072 3.51028 116.542 3.2167 115.966 3.06698C115.39 2.91725 114.786 2.91616 114.209 3.06379C113.356 3.25345 112.525 3.53108 111.728 3.89236C111.231 4.10781 110.722 4.29541 110.205 4.45427C109.926 4.54968 109.635 4.60731 109.34 4.62569C108.448 4.93045 107.996 4.39712 107.987 3.03522C108.053 3.03234 108.117 3.00803 108.168 2.96588C108.22 2.92372 108.257 2.86593 108.274 2.80097C108.291 2.736 108.286 2.66729 108.262 2.6049C108.237 2.54251 108.194 2.48972 108.137 2.45427C106.305 1.44476 105.431 4.10188 106.775 5.3114C107.223 5.62992 107.738 5.83943 108.279 5.92367C108.82 6.00791 109.373 5.96459 109.895 5.79711C112.461 5.19711 114.463 3.05427 117.264 4.27331C117.461 4.35903 117.696 4.12092 117.508 3.9495L117.508 3.92093Z" fill="#F8CA95"/>
<path d="M102.047 2.86377C102.233 3.10681 102.467 3.30793 102.733 3.45426C102.902 3.57806 103.081 3.71139 103.26 3.81615C102.904 4.11377 102.565 4.43175 102.245 4.76852C102.085 4.93995 102.245 5.27329 102.489 5.18757C102.888 5.05229 103.267 4.8633 103.617 4.62567C103.617 4.9971 103.72 5.38757 103.767 5.73995C103.779 5.80086 103.811 5.8558 103.858 5.89531C103.905 5.93483 103.964 5.95645 104.026 5.95645C104.087 5.95645 104.146 5.93483 104.193 5.89531C104.24 5.8558 104.273 5.80086 104.284 5.73995C104.284 5.36853 104.378 4.96854 104.387 4.58759C104.622 4.79574 104.889 4.96308 105.177 5.08281C105.246 5.1029 105.32 5.09878 105.386 5.07113C105.453 5.04348 105.508 4.99392 105.543 4.93044C105.576 4.86834 105.589 4.79754 105.581 4.72769C105.572 4.65783 105.543 4.59229 105.496 4.53996C105.28 4.2733 105.074 4.00663 104.886 3.73044C105.156 3.3379 105.362 2.90377 105.496 2.44474C105.637 2.02569 105.064 1.84474 104.839 2.15902C104.613 2.47331 104.275 2.83521 104.002 3.18759L104.002 3.25425C103.751 3.04579 103.468 2.87867 103.166 2.75901C102.902 2.6005 102.606 2.50296 102.301 2.47331C102.253 2.46582 102.204 2.47245 102.159 2.49243C102.115 2.51242 102.077 2.54491 102.05 2.58604C102.024 2.62716 102.009 2.67519 102.009 2.72442C102.008 2.77366 102.021 2.82202 102.047 2.86377Z" fill="#F8CA95"/>
<path d="M119.646 3.92093C120.081 3.51028 120.611 3.2167 121.188 3.06698C121.764 2.91725 122.368 2.91616 122.945 3.06379C123.8 3.25485 124.635 3.53243 125.435 3.89236C125.929 4.10779 126.434 4.29539 126.949 4.45427C127.228 4.54968 127.519 4.60731 127.813 4.62569C128.753 4.93045 129.157 4.39712 129.167 3.03522C129.1 3.03234 129.037 3.00803 128.985 2.96588C128.934 2.92372 128.897 2.86593 128.88 2.80097C128.863 2.736 128.867 2.66729 128.892 2.6049C128.916 2.54251 128.96 2.48972 129.016 2.45427C130.896 1.44475 131.723 4.10188 130.379 5.3114C129.931 5.62992 129.416 5.83943 128.875 5.92367C128.334 6.00791 127.781 5.96459 127.259 5.79711C124.693 5.19711 122.691 3.05427 119.89 4.27332C119.693 4.35903 119.458 4.12092 119.646 3.9495L119.646 3.92093Z" fill="#F8CA95"/>
<path d="M146.902 3.92093C146.467 3.51028 145.937 3.2167 145.36 3.06698C144.784 2.91725 144.18 2.91616 143.603 3.06379C142.75 3.25345 141.919 3.53108 141.122 3.89236C140.625 4.10781 140.117 4.29541 139.599 4.45427C139.32 4.54968 139.029 4.60731 138.735 4.62569C137.842 4.93045 137.391 4.39712 137.381 3.03522C137.448 3.03234 137.511 3.00803 137.563 2.96588C137.614 2.92372 137.651 2.86593 137.668 2.80097C137.685 2.736 137.681 2.66729 137.656 2.6049C137.632 2.54251 137.588 2.48972 137.532 2.45427C135.699 1.44476 134.825 4.10188 136.169 5.3114C136.617 5.62992 137.132 5.83943 137.673 5.92367C138.214 6.00791 138.767 5.96459 139.289 5.79711C141.855 5.19711 143.857 3.05427 146.658 4.27331C146.855 4.35903 147.09 4.12092 146.902 3.9495L146.902 3.92093Z" fill="#F8CA95"/>
<path d="M131.441 2.86377C131.627 3.10681 131.861 3.30793 132.128 3.45426C132.297 3.57806 132.475 3.71139 132.654 3.81615C132.298 4.11377 131.959 4.43175 131.639 4.76852C131.479 4.93995 131.639 5.27329 131.883 5.18757C132.282 5.05229 132.662 4.8633 133.011 4.62567C133.011 4.9971 133.114 5.38757 133.161 5.73995C133.173 5.80086 133.205 5.8558 133.252 5.89531C133.299 5.93483 133.359 5.95645 133.42 5.95645C133.481 5.95645 133.54 5.93483 133.588 5.89531C133.635 5.8558 133.667 5.80086 133.678 5.73995C133.678 5.36853 133.772 4.96854 133.782 4.58759C134.016 4.79574 134.283 4.96308 134.571 5.08281C134.64 5.1029 134.714 5.09878 134.781 5.07113C134.847 5.04348 134.902 4.99392 134.938 4.93044C134.97 4.86834 134.983 4.79754 134.975 4.72769C134.967 4.65783 134.937 4.59229 134.891 4.53996C134.675 4.2733 134.468 4.00663 134.28 3.73044C134.55 3.3379 134.757 2.90377 134.891 2.44474C135.032 2.02569 134.458 1.84474 134.233 2.15902C134.007 2.47331 133.669 2.83521 133.396 3.18759L133.396 3.25425C133.145 3.04579 132.863 2.87867 132.56 2.75901C132.296 2.6005 132.001 2.50296 131.695 2.47331C131.647 2.46582 131.598 2.47245 131.554 2.49243C131.509 2.51242 131.471 2.54491 131.445 2.58604C131.418 2.62716 131.403 2.67519 131.403 2.72442C131.402 2.77366 131.416 2.82202 131.441 2.86377Z" fill="#F8CA95"/>
<path d="M149.04 3.92093C149.476 3.51028 150.006 3.2167 150.582 3.06698C151.158 2.91725 151.762 2.91616 152.339 3.06379C153.195 3.25485 154.029 3.53243 154.83 3.89236C155.323 4.10779 155.829 4.29539 156.343 4.45427C156.622 4.54968 156.913 4.60731 157.208 4.62569C158.147 4.93045 158.552 4.39712 158.561 3.03522C158.495 3.03234 158.431 3.00803 158.38 2.96588C158.328 2.92372 158.291 2.86593 158.274 2.80097C158.257 2.736 158.262 2.66729 158.286 2.6049C158.311 2.54251 158.354 2.48972 158.411 2.45427C160.29 1.44475 161.117 4.10188 159.773 5.3114C159.325 5.62992 158.81 5.83943 158.269 5.92367C157.728 6.00791 157.175 5.96459 156.653 5.79711C154.087 5.19711 152.085 3.05427 149.284 4.27332C149.087 4.35903 148.852 4.12092 149.04 3.9495L149.04 3.92093Z" fill="#F8CA95"/>
<path d="M176.296 3.92093C175.861 3.51028 175.331 3.2167 174.755 3.06698C174.178 2.91725 173.574 2.91616 172.998 3.06379C172.145 3.25345 171.313 3.53108 170.516 3.89236C170.019 4.10781 169.511 4.29541 168.994 4.45427C168.714 4.54968 168.423 4.60731 168.129 4.62569C167.236 4.93045 166.785 4.39712 166.776 3.03522C166.842 3.03234 166.905 3.00803 166.957 2.96588C167.009 2.92372 167.045 2.86593 167.062 2.80097C167.079 2.736 167.075 2.66729 167.05 2.6049C167.026 2.54251 166.982 2.48972 166.926 2.45427C165.093 1.44476 164.219 4.10188 165.563 5.3114C166.011 5.62992 166.526 5.83943 167.067 5.92367C167.609 6.00791 168.162 5.96459 168.684 5.79711C171.249 5.19711 173.251 3.05427 176.052 4.27331C176.249 4.35903 176.484 4.12092 176.296 3.9495L176.296 3.92093Z" fill="#F8CA95"/>
<path d="M160.836 2.86377C161.021 3.10681 161.255 3.30793 161.522 3.45426C161.691 3.57806 161.87 3.71139 162.048 3.81615C161.692 4.11377 161.353 4.43175 161.033 4.76852C160.873 4.93995 161.033 5.27329 161.277 5.18757C161.677 5.05229 162.056 4.8633 162.405 4.62567C162.405 4.9971 162.509 5.38757 162.556 5.73995C162.567 5.80086 162.599 5.8558 162.646 5.89531C162.694 5.93483 162.753 5.95645 162.814 5.95645C162.875 5.95645 162.935 5.93483 162.982 5.89531C163.029 5.8558 163.061 5.80086 163.073 5.73995C163.073 5.36853 163.167 4.96854 163.176 4.58759C163.41 4.79574 163.677 4.96308 163.965 5.08281C164.035 5.1029 164.108 5.09878 164.175 5.07113C164.241 5.04348 164.297 4.99392 164.332 4.93044C164.365 4.86834 164.378 4.79754 164.369 4.72769C164.361 4.65783 164.331 4.59229 164.285 4.53996C164.069 4.2733 163.862 4.00663 163.674 3.73044C163.945 3.3379 164.151 2.90377 164.285 2.44474C164.426 2.02569 163.853 1.84474 163.627 2.15902C163.402 2.47331 163.063 2.83521 162.791 3.18759L162.791 3.25425C162.539 3.04579 162.257 2.87867 161.954 2.75901C161.69 2.6005 161.395 2.50296 161.089 2.47331C161.041 2.46582 160.992 2.47245 160.948 2.49243C160.903 2.51242 160.866 2.54491 160.839 2.58604C160.812 2.62716 160.798 2.67519 160.797 2.72442C160.797 2.77366 160.81 2.82202 160.836 2.86377Z" fill="#F8CA95"/>
<path d="M178.434 3.92091C178.87 3.51027 179.4 3.21668 179.976 3.06696C180.552 2.91724 181.156 2.91615 181.733 3.06378C182.589 3.25484 183.423 3.53241 184.224 3.89234C184.718 4.10777 185.223 4.29537 185.737 4.45425C186.016 4.54966 186.307 4.60729 186.602 4.62567C187.541 4.93043 187.946 4.39711 187.955 3.03521C187.889 3.03233 187.825 3.00802 187.774 2.96586C187.722 2.9237 187.685 2.86591 187.668 2.80095C187.652 2.73599 187.656 2.66727 187.68 2.60488C187.705 2.54249 187.748 2.4897 187.805 2.45426C189.684 1.44474 190.511 4.10187 189.167 5.31139C188.719 5.6299 188.204 5.83942 187.663 5.92365C187.122 6.00789 186.569 5.96458 186.047 5.79709C183.481 5.1971 181.479 3.05426 178.679 4.2733C178.481 4.35901 178.246 4.12091 178.434 3.94948L178.434 3.92091Z" fill="#F8CA95"/>
<path d="M205.691 3.92091C205.255 3.51027 204.725 3.21668 204.149 3.06696C203.572 2.91724 202.968 2.91615 202.392 3.06378C201.539 3.25343 200.707 3.53107 199.91 3.89234C199.413 4.1078 198.905 4.29539 198.388 4.45425C198.108 4.54966 197.817 4.60729 197.523 4.62567C196.63 4.93043 196.179 4.39711 196.17 3.03521C196.236 3.03233 196.299 3.00802 196.351 2.96586C196.403 2.9237 196.44 2.86591 196.456 2.80095C196.473 2.73599 196.469 2.66728 196.444 2.60488C196.42 2.54249 196.376 2.4897 196.32 2.45426C194.487 1.44474 193.613 4.10187 194.957 5.31139C195.406 5.6299 195.92 5.83942 196.461 5.92365C197.003 6.00789 197.556 5.96458 198.078 5.79709C200.643 5.1971 202.645 3.05426 205.446 4.2733C205.644 4.35901 205.878 4.12091 205.691 3.94948L205.691 3.92091Z" fill="#F8CA95"/>
<path d="M190.23 2.86376C190.415 3.1068 190.649 3.30791 190.916 3.45424C191.085 3.57805 191.264 3.71137 191.442 3.81613C191.086 4.11376 190.747 4.43173 190.427 4.76851C190.267 4.93994 190.427 5.27327 190.671 5.18756C191.071 5.05227 191.45 4.86328 191.799 4.62566C191.799 4.99709 191.903 5.38756 191.95 5.73994C191.961 5.80085 191.993 5.85579 192.041 5.8953C192.088 5.93481 192.147 5.95644 192.208 5.95644C192.269 5.95644 192.329 5.93481 192.376 5.8953C192.423 5.85579 192.455 5.80085 192.467 5.73994C192.467 5.36851 192.561 4.96852 192.57 4.58757C192.804 4.79572 193.071 4.96306 193.36 5.08279C193.429 5.10288 193.502 5.09876 193.569 5.07111C193.635 5.04346 193.691 4.9939 193.726 4.93043C193.759 4.86832 193.772 4.79753 193.763 4.72767C193.755 4.65782 193.726 4.59228 193.679 4.53995C193.463 4.27328 193.256 4.00661 193.068 3.73042C193.339 3.33788 193.545 2.90376 193.679 2.44472C193.82 2.02568 193.247 1.84472 193.021 2.15901C192.796 2.47329 192.457 2.8352 192.185 3.18758L192.185 3.25423C191.933 3.04578 191.651 2.87866 191.348 2.759C191.084 2.60049 190.789 2.50295 190.484 2.47329C190.435 2.4658 190.386 2.47244 190.342 2.49242C190.298 2.5124 190.26 2.5449 190.233 2.58602C190.206 2.62714 190.192 2.67517 190.191 2.72441C190.191 2.77365 190.204 2.82201 190.23 2.86376Z" fill="#F8CA95"/>
<path d="M207.828 3.92091C208.264 3.51027 208.794 3.21668 209.37 3.06696C209.947 2.91724 210.551 2.91615 211.127 3.06378C211.983 3.25484 212.817 3.53241 213.618 3.89234C214.112 4.10777 214.617 4.29537 215.131 4.45425C215.411 4.54966 215.701 4.60729 215.996 4.62567C216.936 4.93043 217.34 4.39711 217.349 3.03521C217.283 3.03233 217.22 3.00802 217.168 2.96586C217.116 2.9237 217.079 2.86591 217.063 2.80095C217.046 2.73599 217.05 2.66727 217.074 2.60488C217.099 2.54249 217.143 2.4897 217.199 2.45426C219.079 1.44474 219.906 4.10187 218.562 5.31139C218.113 5.6299 217.599 5.83942 217.058 5.92365C216.516 6.00789 215.963 5.96458 215.441 5.79709C212.876 5.1971 210.874 3.05426 208.073 4.2733C207.875 4.35901 207.64 4.12091 207.828 3.94948L207.828 3.92091Z" fill="#F8CA95"/>
<path d="M235.085 3.92091C234.649 3.51027 234.119 3.21668 233.543 3.06696C232.967 2.91724 232.363 2.91615 231.786 3.06378C230.933 3.25343 230.102 3.53107 229.305 3.89234C228.808 4.1078 228.299 4.29539 227.782 4.45425C227.502 4.54966 227.212 4.60729 226.917 4.62567C226.024 4.93043 225.573 4.39711 225.564 3.03521C225.63 3.03233 225.694 3.00802 225.745 2.96586C225.797 2.9237 225.834 2.86591 225.851 2.80095C225.867 2.73599 225.863 2.66728 225.839 2.60488C225.814 2.54249 225.771 2.4897 225.714 2.45426C223.882 1.44474 223.007 4.10187 224.351 5.31139C224.8 5.6299 225.315 5.83942 225.856 5.92365C226.397 6.00789 226.95 5.96458 227.472 5.79709C230.038 5.1971 232.04 3.05426 234.84 4.2733C235.038 4.35901 235.273 4.12091 235.085 3.94948L235.085 3.92091Z" fill="#F8CA95"/>
<path d="M219.624 2.86376C219.81 3.1068 220.043 3.30791 220.31 3.45424C220.479 3.57805 220.658 3.71137 220.836 3.81613C220.481 4.11376 220.142 4.43173 219.821 4.76851C219.662 4.93994 219.821 5.27327 220.066 5.18756C220.465 5.05227 220.844 4.86328 221.194 4.62566C221.194 4.99709 221.297 5.38756 221.344 5.73994C221.356 5.80085 221.388 5.85579 221.435 5.8953C221.482 5.93481 221.541 5.95644 221.602 5.95644C221.664 5.95644 221.723 5.93481 221.77 5.8953C221.817 5.85579 221.849 5.80085 221.861 5.73994C221.861 5.36851 221.955 4.96852 221.964 4.58757C222.199 4.79572 222.465 4.96306 222.754 5.08279C222.823 5.10288 222.897 5.09876 222.963 5.07111C223.03 5.04346 223.085 4.9939 223.12 4.93043C223.153 4.86832 223.166 4.79753 223.158 4.72767C223.149 4.65782 223.12 4.59228 223.073 4.53995C222.857 4.27328 222.65 4.00661 222.462 3.73042C222.733 3.33788 222.939 2.90376 223.073 2.44472C223.214 2.02568 222.641 1.84472 222.415 2.15901C222.19 2.47329 221.852 2.8352 221.579 3.18758L221.579 3.25423C221.327 3.04578 221.045 2.87866 220.742 2.759C220.479 2.60049 220.183 2.50295 219.878 2.47329C219.83 2.4658 219.781 2.47244 219.736 2.49242C219.692 2.5124 219.654 2.5449 219.627 2.58602C219.601 2.62714 219.586 2.67517 219.585 2.72441C219.585 2.77365 219.598 2.82201 219.624 2.86376Z" fill="#F8CA95"/>
<path d="M237.223 3.92091C237.658 3.51027 238.188 3.21668 238.765 3.06696C239.341 2.91724 239.945 2.91615 240.522 3.06378C241.377 3.25484 242.212 3.53241 243.012 3.89234C243.506 4.10777 244.011 4.29537 244.526 4.45425C244.805 4.54966 245.096 4.60729 245.39 4.62567C246.33 4.93043 246.734 4.39711 246.744 3.03521C246.677 3.03233 246.614 3.00802 246.562 2.96586C246.511 2.9237 246.474 2.86591 246.457 2.80095C246.44 2.73599 246.444 2.66727 246.469 2.60488C246.493 2.54249 246.537 2.4897 246.593 2.45426C248.473 1.44474 249.3 4.10187 247.956 5.31139C247.508 5.6299 246.993 5.83942 246.452 5.92365C245.911 6.00789 245.358 5.96458 244.836 5.79709C242.27 5.1971 240.268 3.05426 237.467 4.2733C237.27 4.35901 237.035 4.12091 237.223 3.94948L237.223 3.92091Z" fill="#F8CA95"/>
<path d="M264.479 3.92091C264.044 3.51027 263.513 3.21668 262.937 3.06696C262.361 2.91724 261.757 2.91615 261.18 3.06378C260.327 3.25343 259.496 3.53107 258.699 3.89234C258.202 4.1078 257.694 4.29539 257.176 4.45425C256.897 4.54966 256.606 4.60729 256.312 4.62567C255.419 4.93043 254.968 4.39711 254.958 3.03521C255.024 3.03233 255.088 3.00802 255.14 2.96586C255.191 2.9237 255.228 2.86591 255.245 2.80095C255.262 2.73599 255.258 2.66728 255.233 2.60488C255.209 2.54249 255.165 2.4897 255.109 2.45426C253.276 1.44474 252.402 4.10187 253.746 5.31139C254.194 5.6299 254.709 5.83942 255.25 5.92365C255.791 6.00789 256.344 5.96458 256.866 5.79709C259.432 5.1971 261.434 3.05426 264.235 4.2733C264.432 4.35901 264.667 4.12091 264.479 3.94948L264.479 3.92091Z" fill="#F8CA95"/>
<path d="M249.018 2.86376C249.204 3.1068 249.438 3.30791 249.704 3.45424C249.874 3.57805 250.052 3.71137 250.231 3.81613C249.875 4.11376 249.536 4.43173 249.216 4.76851C249.056 4.93994 249.216 5.27327 249.46 5.18756C249.859 5.05227 250.239 4.86328 250.588 4.62566C250.588 4.99709 250.691 5.38756 250.738 5.73994C250.75 5.80085 250.782 5.85579 250.829 5.8953C250.876 5.93481 250.936 5.95644 250.997 5.95644C251.058 5.95644 251.117 5.93481 251.164 5.8953C251.212 5.85579 251.244 5.80085 251.255 5.73994C251.255 5.36851 251.349 4.96852 251.359 4.58757C251.593 4.79572 251.86 4.96306 252.148 5.08279C252.217 5.10288 252.291 5.09876 252.357 5.07111C252.424 5.04346 252.479 4.9939 252.515 4.93043C252.547 4.86832 252.56 4.79753 252.552 4.72767C252.544 4.65782 252.514 4.59228 252.468 4.53995C252.251 4.27328 252.045 4.00661 251.857 3.73042C252.127 3.33788 252.333 2.90376 252.468 2.44472C252.609 2.02568 252.035 1.84472 251.81 2.15901C251.584 2.47329 251.246 2.8352 250.973 3.18758L250.973 3.25423C250.722 3.04578 250.439 2.87866 250.137 2.759C249.873 2.60049 249.578 2.50295 249.272 2.47329C249.224 2.4658 249.175 2.47244 249.131 2.49242C249.086 2.5124 249.048 2.5449 249.022 2.58602C248.995 2.62714 248.98 2.67517 248.98 2.72441C248.979 2.77365 248.993 2.82201 249.018 2.86376Z" fill="#F8CA95"/>
<path d="M266.617 3.92091C267.053 3.51027 267.583 3.21668 268.159 3.06696C268.735 2.91724 269.339 2.91615 269.916 3.06378C270.771 3.25484 271.606 3.53241 272.407 3.89234C272.9 4.10777 273.406 4.29537 273.92 4.45425C274.199 4.54966 274.49 4.60729 274.784 4.62567C275.724 4.93043 276.128 4.39711 276.138 3.03521C276.072 3.03233 276.008 3.00802 275.957 2.96586C275.905 2.9237 275.868 2.86591 275.851 2.80095C275.834 2.73599 275.839 2.66727 275.863 2.60488C275.888 2.54249 275.931 2.4897 275.988 2.45426C277.867 1.44474 278.694 4.10187 277.35 5.31139C276.902 5.6299 276.387 5.83942 275.846 5.92365C275.305 6.00789 274.752 5.96458 274.23 5.79709C271.664 5.1971 269.662 3.05426 266.861 4.2733C266.664 4.35901 266.429 4.12091 266.617 3.94948L266.617 3.92091Z" fill="#F8CA95"/>
<path d="M293.873 3.92091C293.438 3.51027 292.908 3.21668 292.332 3.06696C291.755 2.91724 291.151 2.91615 290.574 3.06378C289.722 3.25343 288.89 3.53107 288.093 3.89234C287.596 4.1078 287.088 4.29539 286.571 4.45425C286.291 4.54966 286 4.60729 285.706 4.62567C284.813 4.93043 284.362 4.39711 284.353 3.03521C284.419 3.03233 284.482 3.00802 284.534 2.96586C284.585 2.9237 284.622 2.86591 284.639 2.80095C284.656 2.73599 284.652 2.66728 284.627 2.60488C284.603 2.54249 284.559 2.4897 284.503 2.45426C282.67 1.44474 281.796 4.10187 283.14 5.31139C283.588 5.6299 284.103 5.83942 284.644 5.92365C285.185 6.00789 285.738 5.96458 286.26 5.79709C288.826 5.1971 290.828 3.05426 293.629 4.2733C293.826 4.35901 294.061 4.12091 293.873 3.94948L293.873 3.92091Z" fill="#F8CA95"/>
<path d="M278.413 2.86376C278.598 3.1068 278.832 3.30791 279.099 3.45424C279.268 3.57805 279.446 3.71137 279.625 3.81613C279.269 4.11376 278.93 4.43173 278.61 4.76851C278.45 4.93994 278.61 5.27327 278.854 5.18756C279.253 5.05227 279.633 4.86328 279.982 4.62566C279.982 4.99709 280.086 5.38756 280.133 5.73994C280.144 5.80085 280.176 5.85579 280.223 5.8953C280.271 5.93481 280.33 5.95644 280.391 5.95644C280.452 5.95644 280.512 5.93481 280.559 5.8953C280.606 5.85579 280.638 5.80085 280.65 5.73994C280.65 5.36851 280.743 4.96852 280.753 4.58757C280.987 4.79572 281.254 4.96306 281.542 5.08279C281.611 5.10288 281.685 5.09876 281.752 5.07111C281.818 5.04346 281.874 4.9939 281.909 4.93043C281.942 4.86832 281.955 4.79753 281.946 4.72767C281.938 4.65782 281.908 4.59228 281.862 4.53995C281.646 4.27328 281.439 4.00661 281.251 3.73042C281.521 3.33788 281.728 2.90376 281.862 2.44472C282.003 2.02568 281.43 1.84472 281.204 2.15901C280.978 2.47329 280.64 2.8352 280.368 3.18758L280.368 3.25423C280.116 3.04578 279.834 2.87866 279.531 2.759C279.267 2.60049 278.972 2.50295 278.666 2.47329C278.618 2.4658 278.569 2.47244 278.525 2.49242C278.48 2.5124 278.443 2.5449 278.416 2.58602C278.389 2.62714 278.375 2.67517 278.374 2.72441C278.373 2.77365 278.387 2.82201 278.413 2.86376Z" fill="#F8CA95"/>
<path d="M296.011 3.92091C296.447 3.51027 296.977 3.21668 297.553 3.06696C298.129 2.91724 298.733 2.91615 299.31 3.06378C300.165 3.25484 301 3.53241 301.801 3.89234C302.294 4.10777 302.8 4.29537 303.314 4.45425C303.593 4.54966 303.884 4.60729 304.179 4.62567C305.118 4.93043 305.523 4.39711 305.532 3.03521C305.466 3.03233 305.402 3.00802 305.351 2.96586C305.299 2.9237 305.262 2.86591 305.245 2.80095C305.228 2.73599 305.233 2.66727 305.257 2.60488C305.282 2.54249 305.325 2.4897 305.382 2.45426C307.261 1.44474 308.088 4.10187 306.744 5.31139C306.296 5.6299 305.781 5.83942 305.24 5.92365C304.699 6.00789 304.146 5.96458 303.624 5.79709C301.058 5.1971 299.056 3.05426 296.255 4.2733C296.058 4.35901 295.823 4.12091 296.011 3.94948L296.011 3.92091Z" fill="#F8CA95"/>
<path d="M323.267 3.92091C322.832 3.51027 322.302 3.21668 321.726 3.06696C321.149 2.91724 320.545 2.91615 319.968 3.06378C319.116 3.25343 318.284 3.53107 317.487 3.89234C316.99 4.1078 316.482 4.29539 315.965 4.45425C315.685 4.54966 315.394 4.60729 315.1 4.62567C314.207 4.93043 313.756 4.39711 313.747 3.03521C313.813 3.03233 313.876 3.00802 313.928 2.96586C313.98 2.9237 314.016 2.86591 314.033 2.80095C314.05 2.73599 314.046 2.66728 314.021 2.60488C313.997 2.54249 313.953 2.4897 313.897 2.45426C312.064 1.44474 311.19 4.10187 312.534 5.31139C312.982 5.6299 313.497 5.83942 314.038 5.92365C314.579 6.00789 315.133 5.96458 315.654 5.79709C318.22 5.1971 320.222 3.05426 323.023 4.2733C323.22 4.35901 323.455 4.12091 323.267 3.94948L323.267 3.92091Z" fill="#F8CA95"/>
<path d="M307.807 2.86376C307.992 3.1068 308.226 3.30791 308.493 3.45424C308.662 3.57805 308.841 3.71137 309.019 3.81613C308.663 4.11376 308.324 4.43173 308.004 4.76851C307.844 4.93994 308.004 5.27327 308.248 5.18756C308.647 5.05227 309.027 4.86328 309.376 4.62566C309.376 4.99709 309.48 5.38756 309.527 5.73994C309.538 5.80085 309.57 5.85579 309.617 5.8953C309.665 5.93481 309.724 5.95644 309.785 5.95644C309.846 5.95644 309.906 5.93481 309.953 5.8953C310 5.85579 310.032 5.80085 310.044 5.73994C310.044 5.36851 310.138 4.96852 310.147 4.58757C310.381 4.79572 310.648 4.96306 310.936 5.08279C311.006 5.10288 311.079 5.09876 311.146 5.07111C311.212 5.04346 311.268 4.9939 311.303 4.93043C311.336 4.86832 311.349 4.79753 311.34 4.72767C311.332 4.65782 311.302 4.59228 311.256 4.53995C311.04 4.27328 310.833 4.00661 310.645 3.73042C310.916 3.33788 311.122 2.90376 311.256 2.44472C311.397 2.02568 310.824 1.84472 310.598 2.15901C310.373 2.47329 310.034 2.8352 309.762 3.18758L309.762 3.25423C309.51 3.04578 309.228 2.87866 308.925 2.759C308.661 2.60049 308.366 2.50295 308.06 2.47329C308.012 2.4658 307.963 2.47244 307.919 2.49242C307.874 2.5124 307.837 2.5449 307.81 2.58602C307.783 2.62714 307.769 2.67517 307.768 2.72441C307.768 2.77365 307.781 2.82201 307.807 2.86376Z" fill="#F8CA95"/>
<path d="M325.405 3.92091C325.841 3.51027 326.371 3.21668 326.947 3.06696C327.523 2.91724 328.128 2.91615 328.704 3.06378C329.56 3.25484 330.394 3.53241 331.195 3.89234C331.689 4.10777 332.194 4.29537 332.708 4.45425C332.988 4.54966 333.278 4.60729 333.573 4.62567C334.513 4.93043 334.917 4.39711 334.926 3.03521C334.86 3.03233 334.796 3.00802 334.745 2.96586C334.693 2.9237 334.656 2.86591 334.64 2.80095C334.623 2.73599 334.627 2.66727 334.651 2.60488C334.676 2.54249 334.72 2.4897 334.776 2.45426C336.656 1.44474 337.483 4.10187 336.139 5.31139C335.69 5.6299 335.176 5.83942 334.634 5.92365C334.093 6.00789 333.54 5.96458 333.018 5.79709C330.452 5.1971 328.451 3.05426 325.65 4.2733C325.452 4.35901 325.217 4.12091 325.405 3.94948L325.405 3.92091Z" fill="#F8CA95"/>
<path d="M352.662 3.92091C352.226 3.51027 351.696 3.21668 351.12 3.06696C350.544 2.91724 349.94 2.91615 349.363 3.06378C348.51 3.25343 347.679 3.53107 346.882 3.89234C346.385 4.1078 345.876 4.29539 345.359 4.45425C345.079 4.54966 344.789 4.60729 344.494 4.62567C343.601 4.93043 343.15 4.39711 343.141 3.03521C343.207 3.03233 343.271 3.00802 343.322 2.96586C343.374 2.9237 343.411 2.86591 343.428 2.80095C343.444 2.73599 343.44 2.66728 343.416 2.60488C343.391 2.54249 343.348 2.4897 343.291 2.45426C341.458 1.44474 340.584 4.10187 341.928 5.31139C342.377 5.6299 342.891 5.83942 343.433 5.92365C343.974 6.00789 344.527 5.96458 345.049 5.79709C347.615 5.1971 349.617 3.05426 352.417 4.2733C352.615 4.35901 352.85 4.12091 352.662 3.94948L352.662 3.92091Z" fill="#F8CA95"/>
<path d="M337.201 2.86376C337.387 3.1068 337.62 3.30791 337.887 3.45424C338.056 3.57805 338.235 3.71137 338.413 3.81613C338.057 4.11376 337.719 4.43173 337.398 4.76851C337.239 4.93994 337.398 5.27327 337.643 5.18756C338.042 5.05227 338.421 4.86328 338.771 4.62566C338.771 4.99709 338.874 5.38756 338.921 5.73994C338.932 5.80085 338.965 5.85579 339.012 5.8953C339.059 5.93481 339.118 5.95644 339.179 5.95644C339.241 5.95644 339.3 5.93481 339.347 5.8953C339.394 5.85579 339.426 5.80085 339.438 5.73994C339.438 5.36851 339.532 4.96852 339.541 4.58757C339.776 4.79572 340.042 4.96306 340.331 5.08279C340.4 5.10288 340.474 5.09876 340.54 5.07111C340.607 5.04346 340.662 4.9939 340.697 4.93043C340.73 4.86832 340.743 4.79753 340.735 4.72767C340.726 4.65782 340.697 4.59228 340.65 4.53995C340.434 4.27328 340.227 4.00661 340.039 3.73042C340.31 3.33788 340.516 2.90376 340.65 2.44472C340.791 2.02568 340.218 1.84472 339.992 2.15901C339.767 2.47329 339.428 2.8352 339.156 3.18758L339.156 3.25423C338.904 3.04578 338.622 2.87866 338.319 2.759C338.055 2.60049 337.76 2.50295 337.455 2.47329C337.407 2.4658 337.358 2.47244 337.313 2.49242C337.269 2.5124 337.231 2.5449 337.204 2.58602C337.177 2.62714 337.163 2.67517 337.162 2.72441C337.162 2.77365 337.175 2.82201 337.201 2.86376Z" fill="#F8CA95"/>
<path d="M354.8 3.92091C355.235 3.51027 355.765 3.21668 356.341 3.06696C356.918 2.91724 357.522 2.91615 358.099 3.06378C358.954 3.25484 359.788 3.53241 360.589 3.89234C361.083 4.10777 361.588 4.29537 362.102 4.45425C362.382 4.54966 362.673 4.60729 362.967 4.62567C363.907 4.93043 364.311 4.39711 364.321 3.03521C364.254 3.03233 364.191 3.00802 364.139 2.96586C364.088 2.9237 364.051 2.86591 364.034 2.80095C364.017 2.73599 364.021 2.66727 364.046 2.60488C364.07 2.54249 364.114 2.4897 364.17 2.45426C366.05 1.44474 366.877 4.10187 365.533 5.31139C365.085 5.6299 364.57 5.83942 364.029 5.92365C363.488 6.00789 362.935 5.96458 362.413 5.79709C359.847 5.1971 357.845 3.05426 355.044 4.2733C354.847 4.35901 354.612 4.12091 354.8 3.94948L354.8 3.92091Z" fill="#F8CA95"/>
<path d="M382.056 3.92091C381.62 3.51027 381.09 3.21668 380.514 3.06696C379.938 2.91724 379.334 2.91615 378.757 3.06378C377.904 3.25343 377.073 3.53107 376.276 3.89234C375.779 4.1078 375.271 4.29539 374.753 4.45425C374.474 4.54966 374.183 4.60729 373.889 4.62567C372.996 4.93043 372.545 4.39711 372.535 3.03521C372.601 3.03233 372.665 3.00802 372.717 2.96586C372.768 2.9237 372.805 2.86591 372.822 2.80095C372.839 2.73599 372.834 2.66728 372.81 2.60488C372.785 2.54249 372.742 2.4897 372.686 2.45426C370.853 1.44474 369.979 4.10187 371.323 5.31139C371.771 5.6299 372.286 5.83942 372.827 5.92365C373.368 6.00789 373.921 5.96458 374.443 5.79709C377.009 5.1971 379.011 3.05426 381.812 4.2733C382.009 4.35901 382.244 4.12091 382.056 3.94948L382.056 3.92091Z" fill="#F8CA95"/>
<path d="M366.595 2.86376C366.781 3.1068 367.015 3.30791 367.281 3.45424C367.451 3.57805 367.629 3.71137 367.808 3.81613C367.452 4.11376 367.113 4.43173 366.793 4.76851C366.633 4.93994 366.793 5.27327 367.037 5.18756C367.436 5.05227 367.815 4.86328 368.165 4.62566C368.165 4.99709 368.268 5.38756 368.315 5.73994C368.327 5.80085 368.359 5.85579 368.406 5.8953C368.453 5.93481 368.512 5.95644 368.574 5.95644C368.635 5.95644 368.694 5.93481 368.741 5.8953C368.789 5.85579 368.821 5.80085 368.832 5.73994C368.832 5.36851 368.926 4.96852 368.936 4.58757C369.17 4.79572 369.437 4.96306 369.725 5.08279C369.794 5.10288 369.868 5.09876 369.934 5.07111C370.001 5.04346 370.056 4.9939 370.092 4.93043C370.124 4.86832 370.137 4.79753 370.129 4.72767C370.12 4.65782 370.091 4.59228 370.045 4.53995C369.828 4.27328 369.622 4.00661 369.434 3.73042C369.704 3.33788 369.91 2.90376 370.045 2.44472C370.186 2.02568 369.612 1.84472 369.387 2.15901C369.161 2.47329 368.823 2.8352 368.55 3.18758L368.55 3.25423C368.299 3.04578 368.016 2.87866 367.714 2.759C367.45 2.60049 367.154 2.50295 366.849 2.47329C366.801 2.4658 366.752 2.47244 366.707 2.49242C366.663 2.5124 366.625 2.5449 366.598 2.58602C366.572 2.62714 366.557 2.67517 366.557 2.72441C366.556 2.77365 366.569 2.82201 366.595 2.86376Z" fill="#F8CA95"/>
<path d="M384.194 3.92091C384.629 3.51027 385.16 3.21668 385.736 3.06696C386.312 2.91724 386.916 2.91615 387.493 3.06378C388.348 3.25484 389.183 3.53241 389.984 3.89234C390.477 4.10777 390.982 4.29537 391.497 4.45425C391.776 4.54966 392.067 4.60729 392.361 4.62567C393.301 4.93043 393.705 4.39711 393.715 3.03521C393.649 3.03233 393.585 3.00802 393.533 2.96586C393.482 2.9237 393.445 2.86591 393.428 2.80095C393.411 2.73599 393.415 2.66727 393.44 2.60488C393.465 2.54249 393.508 2.4897 393.564 2.45426C395.444 1.44474 396.271 4.10187 394.927 5.31139C394.479 5.6299 393.964 5.83942 393.423 5.92365C392.882 6.00789 392.329 5.96458 391.807 5.79709C389.241 5.1971 387.239 3.05426 384.438 4.2733C384.241 4.35901 384.006 4.12091 384.194 3.94948L384.194 3.92091Z" fill="#F8CA95"/>
<path d="M411.45 3.92091C411.015 3.51027 410.485 3.21668 409.908 3.06696C409.332 2.91724 408.728 2.91615 408.151 3.06378C407.299 3.25343 406.467 3.53107 405.67 3.89234C405.173 4.1078 404.665 4.29539 404.148 4.45425C403.868 4.54966 403.577 4.60729 403.283 4.62567C402.39 4.93043 401.939 4.39711 401.929 3.03521C401.996 3.03233 402.059 3.00802 402.111 2.96586C402.162 2.9237 402.199 2.86591 402.216 2.80095C402.233 2.73599 402.229 2.66728 402.204 2.60488C402.18 2.54249 402.136 2.4897 402.08 2.45426C400.247 1.44474 399.373 4.10187 400.717 5.31139C401.165 5.6299 401.68 5.83942 402.221 5.92365C402.762 6.00789 403.315 5.96458 403.837 5.79709C406.403 5.1971 408.405 3.05426 411.206 4.2733C411.403 4.35901 411.638 4.12091 411.45 3.94948L411.45 3.92091Z" fill="#F8CA95"/>
<path d="M395.99 2.86376C396.175 3.1068 396.409 3.30791 396.676 3.45424C396.845 3.57805 397.023 3.71137 397.202 3.81613C396.846 4.11376 396.507 4.43173 396.187 4.76851C396.027 4.93994 396.187 5.27327 396.431 5.18756C396.83 5.05227 397.21 4.86328 397.559 4.62566C397.559 4.99709 397.662 5.38756 397.709 5.73994C397.721 5.80085 397.753 5.85579 397.8 5.8953C397.847 5.93481 397.907 5.95644 397.968 5.95644C398.029 5.95644 398.088 5.93481 398.136 5.8953C398.183 5.85579 398.215 5.80085 398.226 5.73994C398.226 5.36851 398.32 4.96852 398.33 4.58757C398.564 4.79572 398.831 4.96306 399.119 5.08279C399.188 5.10288 399.262 5.09876 399.329 5.07111C399.395 5.04346 399.451 4.9939 399.486 4.93043C399.518 4.86832 399.532 4.79753 399.523 4.72767C399.515 4.65782 399.485 4.59228 399.439 4.53995C399.223 4.27328 399.016 4.00661 398.828 3.73042C399.098 3.33788 399.305 2.90376 399.439 2.44472C399.58 2.02568 399.007 1.84472 398.781 2.15901C398.555 2.47329 398.217 2.8352 397.944 3.18758L397.944 3.25423C397.693 3.04578 397.411 2.87866 397.108 2.759C396.844 2.60049 396.549 2.50295 396.243 2.47329C396.195 2.4658 396.146 2.47244 396.102 2.49242C396.057 2.5124 396.019 2.5449 395.993 2.58602C395.966 2.62714 395.952 2.67517 395.951 2.72441C395.95 2.77365 395.964 2.82201 395.99 2.86376Z" fill="#F8CA95"/>
<path d="M413.588 3.92091C414.023 3.51027 414.554 3.21668 415.13 3.06696C415.706 2.91724 416.31 2.91615 416.887 3.06378C417.742 3.25484 418.577 3.53241 419.378 3.89234C419.871 4.10777 420.377 4.29537 420.891 4.45425C421.17 4.54966 421.461 4.60729 421.755 4.62567C422.695 4.93043 423.099 4.39711 423.109 3.03521C423.043 3.03233 422.979 3.00802 422.927 2.96586C422.876 2.9237 422.839 2.86591 422.822 2.80095C422.805 2.73599 422.809 2.66727 422.834 2.60488C422.859 2.54249 422.902 2.4897 422.958 2.45426C424.838 1.44474 425.665 4.10187 424.321 5.31139C423.873 5.6299 423.358 5.83942 422.817 5.92365C422.276 6.00789 421.723 5.96458 421.201 5.79709C418.635 5.1971 416.633 3.05426 413.832 4.2733C413.635 4.35901 413.4 4.12091 413.588 3.94948L413.588 3.92091Z" fill="#F8CA95"/>
<path d="M440.844 3.92091C440.409 3.51027 439.879 3.21668 439.302 3.06696C438.726 2.91724 438.122 2.91615 437.545 3.06378C436.693 3.25343 435.861 3.53107 435.064 3.89234C434.567 4.1078 434.059 4.29539 433.542 4.45425C433.262 4.54966 432.971 4.60729 432.677 4.62567C431.784 4.93043 431.333 4.39711 431.323 3.03521C431.39 3.03233 431.453 3.00802 431.505 2.96586C431.556 2.9237 431.593 2.86591 431.61 2.80095C431.627 2.73599 431.623 2.66728 431.598 2.60488C431.574 2.54249 431.53 2.4897 431.474 2.45426C429.641 1.44474 428.767 4.10187 430.111 5.31139C430.559 5.6299 431.074 5.83942 431.615 5.92365C432.156 6.00789 432.709 5.96458 433.231 5.79709C435.797 5.1971 437.799 3.05426 440.6 4.2733C440.797 4.35901 441.032 4.12091 440.844 3.94948L440.844 3.92091Z" fill="#F8CA95"/>
<path d="M425.384 2.86376C425.569 3.1068 425.803 3.30791 426.07 3.45424C426.239 3.57805 426.417 3.71137 426.596 3.81613C426.24 4.11376 425.901 4.43173 425.581 4.76851C425.421 4.93994 425.581 5.27327 425.825 5.18756C426.224 5.05227 426.604 4.86328 426.953 4.62566C426.953 4.99709 427.057 5.38756 427.104 5.73994C427.115 5.80085 427.147 5.85579 427.194 5.8953C427.241 5.93481 427.301 5.95644 427.362 5.95644C427.423 5.95644 427.482 5.93481 427.53 5.8953C427.577 5.85579 427.609 5.80085 427.62 5.73994C427.62 5.36851 427.714 4.96852 427.724 4.58757C427.958 4.79572 428.225 4.96306 428.513 5.08279C428.582 5.10288 428.656 5.09876 428.723 5.07111C428.789 5.04346 428.845 4.9939 428.88 4.93043C428.913 4.86832 428.926 4.79753 428.917 4.72767C428.909 4.65782 428.879 4.59228 428.833 4.53995C428.617 4.27328 428.41 4.00661 428.222 3.73042C428.492 3.33788 428.699 2.90376 428.833 2.44472C428.974 2.02568 428.401 1.84472 428.175 2.15901C427.949 2.47329 427.611 2.8352 427.338 3.18758L427.338 3.25423C427.087 3.04578 426.805 2.87866 426.502 2.759C426.238 2.60049 425.943 2.50295 425.637 2.47329C425.589 2.4658 425.54 2.47244 425.496 2.49242C425.451 2.5124 425.414 2.5449 425.387 2.58602C425.36 2.62714 425.346 2.67517 425.345 2.72441C425.344 2.77365 425.358 2.82201 425.384 2.86376Z" fill="#F8CA95"/>
<path d="M442.982 3.92091C443.418 3.51027 443.948 3.21668 444.524 3.06696C445.1 2.91724 445.704 2.91615 446.281 3.06378C447.137 3.25484 447.971 3.53241 448.772 3.89234C449.266 4.10777 449.771 4.29537 450.285 4.45425C450.565 4.54966 450.855 4.60729 451.15 4.62567C452.09 4.93043 452.494 4.39711 452.503 3.03521C452.437 3.03233 452.373 3.00802 452.322 2.96586C452.27 2.9237 452.233 2.86591 452.216 2.80095C452.2 2.73599 452.204 2.66727 452.228 2.60488C452.253 2.54249 452.296 2.4897 452.353 2.45426C454.232 1.44474 455.06 4.10187 453.716 5.31139C453.267 5.6299 452.753 5.83942 452.211 5.92365C451.67 6.00789 451.117 5.96458 450.595 5.79709C448.029 5.1971 446.027 3.05426 443.227 4.2733C443.029 4.35901 442.794 4.12091 442.982 3.94948L442.982 3.92091Z" fill="#F8CA95"/>
<path d="M470.239 3.92091C469.803 3.51027 469.273 3.21668 468.697 3.06696C468.121 2.91724 467.516 2.91615 466.94 3.06378C466.087 3.25343 465.255 3.53107 464.458 3.89234C463.961 4.1078 463.453 4.29539 462.936 4.45425C462.656 4.54966 462.366 4.60729 462.071 4.62567C461.178 4.93043 460.727 4.39711 460.718 3.03521C460.784 3.03233 460.848 3.00802 460.899 2.96586C460.951 2.9237 460.988 2.86591 461.004 2.80095C461.021 2.73599 461.017 2.66728 460.993 2.60488C460.968 2.54249 460.924 2.4897 460.868 2.45426C459.035 1.44474 458.161 4.10187 459.505 5.31139C459.954 5.6299 460.468 5.83942 461.009 5.92365C461.551 6.00789 462.104 5.96458 462.626 5.79709C465.192 5.1971 467.193 3.05426 469.994 4.2733C470.192 4.35901 470.427 4.12091 470.239 3.94948L470.239 3.92091Z" fill="#F8CA95"/>
<path d="M454.778 2.86376C454.964 3.1068 455.197 3.30791 455.464 3.45424C455.633 3.57805 455.812 3.71137 455.99 3.81613C455.634 4.11376 455.295 4.43173 454.975 4.76851C454.815 4.93994 454.975 5.27327 455.22 5.18756C455.619 5.05227 455.998 4.86328 456.347 4.62566C456.347 4.99709 456.451 5.38756 456.498 5.73994C456.509 5.80085 456.541 5.85579 456.589 5.8953C456.636 5.93481 456.695 5.95644 456.756 5.95644C456.817 5.95644 456.877 5.93481 456.924 5.8953C456.971 5.85579 457.003 5.80085 457.015 5.73994C457.015 5.36851 457.109 4.96852 457.118 4.58757C457.352 4.79572 457.619 4.96306 457.908 5.08279C457.977 5.10288 458.05 5.09876 458.117 5.07111C458.184 5.04346 458.239 4.9939 458.274 4.93043C458.307 4.86832 458.32 4.79753 458.311 4.72767C458.303 4.65782 458.274 4.59228 458.227 4.53995C458.011 4.27328 457.804 4.00661 457.616 3.73042C457.887 3.33788 458.093 2.90376 458.227 2.44472C458.368 2.02568 457.795 1.84472 457.569 2.15901C457.344 2.47329 457.005 2.8352 456.733 3.18758L456.733 3.25423C456.481 3.04578 456.199 2.87866 455.896 2.759C455.632 2.60049 455.337 2.50295 455.032 2.47329C454.984 2.4658 454.934 2.47244 454.89 2.49242C454.846 2.5124 454.808 2.5449 454.781 2.58602C454.754 2.62714 454.74 2.67517 454.739 2.72441C454.739 2.77365 454.752 2.82201 454.778 2.86376Z" fill="#F8CA95"/>
</svg>
