<svg width="8" height="4" viewBox="0 0 8 4" fill="none" xmlns="http://www.w3.org/2000/svg">
<path d="M0.622243 1.98629C0.893994 1.7309 1.22483 1.5486 1.5844 1.45617C1.94397 1.36373 2.32076 1.36409 2.68015 1.45724C3.21815 1.57719 3.74371 1.74843 4.24976 1.96864C4.55672 2.1044 4.87115 2.22217 5.19151 2.32134C5.36311 2.39213 5.54681 2.42808 5.73214 2.42714C6.29022 2.62112 6.56927 2.28608 6.58671 1.43965C6.54041 1.44709 6.49301 1.43714 6.45347 1.41166C6.41393 1.38619 6.385 1.34693 6.37212 1.30134C6.35924 1.25576 6.3633 1.20703 6.38356 1.16428C6.40382 1.12153 6.43887 1.08776 6.48208 1.06935C7.63311 0.452162 8.22606 2.10975 7.33662 2.83274C7.058 3.036 6.73551 3.1692 6.39583 3.22134C6.05615 3.27347 5.70907 3.243 5.38335 3.13249C3.77887 2.76218 2.52319 1.3691 0.779196 2.19789C0.657116 2.19789 0.517603 2.0921 0.622243 1.98629Z" fill="#F57E25"/>


<path d="M7.41519 1.98629C7.13992 1.73078 6.80605 1.54864 6.44372 1.45628C6.08138 1.36392 5.702 1.36422 5.33983 1.45724C4.80669 1.57425 4.28664 1.7456 3.78767 1.96864C3.47375 2.09208 3.15984 2.23317 2.84592 2.32134C2.67383 2.39044 2.49046 2.42633 2.30529 2.42714C1.74721 2.62112 1.46816 2.28608 1.45072 1.43965C1.49043 1.43361 1.52759 1.41613 1.55775 1.38933C1.58792 1.36253 1.60982 1.32757 1.62085 1.28854C1.63188 1.2495 1.63155 1.20804 1.61994 1.16918C1.60833 1.13031 1.58592 1.09568 1.55536 1.06935C0.404317 0.452162 -0.188651 2.10975 0.700788 2.83274C0.979407 3.036 1.30192 3.1692 1.6416 3.22134C1.98128 3.27347 2.32836 3.243 2.65408 3.13249C4.25856 2.76218 5.4968 1.3691 7.25824 2.19789C7.38032 2.19789 7.51983 2.0921 7.41519 1.98629Z" fill="#F57E25"/>

<path d="M0.735945 1.33392C0.852198 1.48864 1.00116 1.61514 1.17194 1.70422C1.27658 1.70422 1.38123 1.86293 1.50331 1.93347C1.27592 2.11303 1.06037 2.30739 0.858038 2.51536C0.832977 2.54035 0.816929 2.57316 0.812506 2.60846C0.808083 2.64376 0.815528 2.67955 0.833635 2.71006C0.851742 2.74058 0.879463 2.76402 0.912351 2.77669C0.94524 2.78935 0.981395 2.79046 1.01499 2.77986C1.2666 2.70566 1.5029 2.58622 1.71258 2.42721L1.81724 3.13256C1.81724 3.17465 1.83376 3.215 1.8632 3.24476C1.89263 3.27453 1.93257 3.29126 1.9742 3.29126C2.01582 3.29126 2.05573 3.27453 2.08516 3.24476C2.1146 3.215 2.13115 3.17465 2.13115 3.13256C2.1492 2.89191 2.1492 2.65021 2.13115 2.40956C2.28024 2.53548 2.44428 2.64209 2.61947 2.72696C2.66353 2.73959 2.7106 2.73587 2.75218 2.71647C2.79376 2.69706 2.82711 2.66326 2.84619 2.62116C2.87175 2.58519 2.88547 2.54206 2.88547 2.49777C2.88547 2.45348 2.87175 2.41029 2.84619 2.37432L2.46251 1.88057C2.62824 1.6302 2.75746 1.35703 2.84619 1.06942C2.93339 0.804913 2.56714 0.699099 2.42762 0.893072C2.28811 1.08705 2.07882 1.31628 1.90442 1.54552C1.7446 1.41688 1.5687 1.31017 1.38124 1.22812C1.21255 1.13798 1.02957 1.07829 0.840581 1.05177C0.807607 1.05047 0.775085 1.05967 0.747601 1.07814C0.720116 1.09661 0.699072 1.12337 0.687486 1.15461C0.675899 1.18585 0.674342 1.21999 0.683042 1.25218C0.691741 1.28436 0.710254 1.31298 0.735945 1.33392Z" fill="#F57E25"/>
</svg>
