<svg width="8" height="4" viewBox="0 0 8 4" fill="none" xmlns="http://www.w3.org/2000/svg">
<path d="M0.622243 1.98629C0.893994 1.7309 1.22483 1.5486 1.5844 1.45617C1.94397 1.36373 2.32076 1.36409 2.68015 1.45724C3.21815 1.57719 3.74371 1.74843 4.24976 1.96864C4.55672 2.1044 4.87115 2.22217 5.19151 2.32134C5.36311 2.39213 5.54681 2.42808 5.73214 2.42714C6.29022 2.62112 6.56927 2.28608 6.58671 1.43965C6.54041 1.44709 6.49301 1.43714 6.45347 1.41166C6.41393 1.38619 6.385 1.34693 6.37212 1.30134C6.35924 1.25576 6.3633 1.20703 6.38356 1.16428C6.40382 1.12153 6.43887 1.08776 6.48208 1.06935C7.63311 0.452162 8.22606 2.10975 7.33662 2.83274C7.058 3.036 6.73551 3.1692 6.39583 3.22134C6.05615 3.27347 5.70907 3.243 5.38335 3.13249C3.77887 2.76218 2.52319 1.3691 0.779196 2.19789C0.657116 2.19789 0.517603 2.0921 0.622243 1.98629Z" fill="#F57E25"/>
</svg>
