<svg width="14" height="14" viewBox="0 0 14 14" fill="none" xmlns="http://www.w3.org/2000/svg">
<path d="M10.1733 1.23662C9.38555 1.87214 8.7414 2.66738 8.28333 3.56995C7.85222 4.12911 7.45482 4.71348 7.0933 5.31995C6.11955 4.15279 5.08364 3.03896 3.99 1.9833C3.8639 1.84973 3.69644 1.76253 3.51469 1.73586C3.33294 1.70919 3.14748 1.74461 2.98832 1.83633C2.82916 1.92805 2.7056 2.07074 2.63755 2.24136C2.5695 2.41198 2.56092 2.60055 2.61327 2.77663C3.04224 4.09709 3.66337 5.34716 4.45662 6.48662C3.21996 6.48662 1.9833 6.83667 0.81663 6.97667C0.614945 7.01017 0.431714 7.11409 0.29952 7.27005C0.167326 7.42601 0.0947266 7.62387 0.0947266 7.82831C0.0947266 8.03276 0.167326 8.23062 0.29952 8.38658C0.431714 8.54254 0.614945 8.64646 0.81663 8.67996C2.02996 8.67996 3.31333 8.95999 4.57333 9.00666C3.8922 9.78005 3.34774 10.6638 2.96333 11.62C2.89931 11.842 2.91029 12.079 2.99466 12.2942C3.07903 12.5093 3.23205 12.6907 3.42995 12.81C3.64098 12.9307 3.88612 12.9778 4.12686 12.944C4.36761 12.9102 4.59032 12.7974 4.75997 12.6233C5.6233 11.9 6.48665 11.27 7.39665 10.64C8.67403 11.5255 10.0838 12.2028 11.5733 12.6467C12.9267 13.1133 13.51 11.2233 12.4833 10.4767C11.4566 9.73 10.29 8.63323 9.14665 7.74657L8.93666 7.58336C9.61973 6.75942 10.1636 5.82933 10.5467 4.82997C11.0605 3.96842 11.379 3.00469 11.48 2.00666C11.4939 1.84856 11.4627 1.68971 11.3901 1.54858C11.3175 1.40745 11.2064 1.28978 11.0697 1.20921C10.9329 1.12863 10.7762 1.08842 10.6175 1.09328C10.4589 1.09813 10.3049 1.14783 10.1733 1.23662Z" fill="#F8CA95"/>
</svg>
