<svg width="8" height="4" viewBox="0 0 8 4" fill="none" xmlns="http://www.w3.org/2000/svg">
<path d="M7.41519 1.98629C7.13992 1.73078 6.80605 1.54864 6.44372 1.45628C6.08138 1.36392 5.702 1.36422 5.33983 1.45724C4.80669 1.57425 4.28664 1.7456 3.78767 1.96864C3.47375 2.09208 3.15984 2.23317 2.84592 2.32134C2.67383 2.39044 2.49046 2.42633 2.30529 2.42714C1.74721 2.62112 1.46816 2.28608 1.45072 1.43965C1.49043 1.43361 1.52759 1.41613 1.55775 1.38933C1.58792 1.36253 1.60982 1.32757 1.62085 1.28854C1.63188 1.2495 1.63155 1.20804 1.61994 1.16918C1.60833 1.13031 1.58592 1.09568 1.55536 1.06935C0.404317 0.452162 -0.188651 2.10975 0.700788 2.83274C0.979407 3.036 1.30192 3.1692 1.6416 3.22134C1.98128 3.27347 2.32836 3.243 2.65408 3.13249C4.25856 2.76218 5.4968 1.3691 7.25824 2.19789C7.38032 2.19789 7.51983 2.0921 7.41519 1.98629Z" fill="#F57E25"/>
</svg>
