<svg width="3" height="4" viewBox="0 0 3 4" fill="none" xmlns="http://www.w3.org/2000/svg">
<path d="M0.735945 1.33392C0.852198 1.48864 1.00116 1.61514 1.17194 1.70422C1.27658 1.70422 1.38123 1.86293 1.50331 1.93347C1.27592 2.11303 1.06037 2.30739 0.858038 2.51536C0.832977 2.54035 0.816929 2.57316 0.812506 2.60846C0.808083 2.64376 0.815528 2.67955 0.833635 2.71006C0.851742 2.74058 0.879463 2.76402 0.912351 2.77669C0.94524 2.78935 0.981395 2.79046 1.01499 2.77986C1.2666 2.70566 1.5029 2.58622 1.71258 2.42721L1.81724 3.13256C1.81724 3.17465 1.83376 3.215 1.8632 3.24476C1.89263 3.27453 1.93257 3.29126 1.9742 3.29126C2.01582 3.29126 2.05573 3.27453 2.08516 3.24476C2.1146 3.215 2.13115 3.17465 2.13115 3.13256C2.1492 2.89191 2.1492 2.65021 2.13115 2.40956C2.28024 2.53548 2.44428 2.64209 2.61947 2.72696C2.66353 2.73959 2.7106 2.73587 2.75218 2.71647C2.79376 2.69706 2.82711 2.66326 2.84619 2.62116C2.87175 2.58519 2.88547 2.54206 2.88547 2.49777C2.88547 2.45348 2.87175 2.41029 2.84619 2.37432L2.46251 1.88057C2.62824 1.6302 2.75746 1.35703 2.84619 1.06942C2.93339 0.804913 2.56714 0.699099 2.42762 0.893072C2.28811 1.08705 2.07882 1.31628 1.90442 1.54552C1.7446 1.41688 1.5687 1.31017 1.38124 1.22812C1.21255 1.13798 1.02957 1.07829 0.840581 1.05177C0.807607 1.05047 0.775085 1.05967 0.747601 1.07814C0.720116 1.09661 0.699072 1.12337 0.687486 1.15461C0.675899 1.18585 0.674342 1.21999 0.683042 1.25218C0.691741 1.28436 0.710254 1.31298 0.735945 1.33392Z" fill="#F57E25"/>
</svg>
