<svg width="118" height="139" viewBox="0 0 118 139" fill="none" xmlns="http://www.w3.org/2000/svg">
<g clip-path="url(#clip0_42_1926)">
<path d="M14.4099 56.25L12.6999 57.51L12.7799 59.63L11.0499 58.4L9.04988 59.12L9.68988 57.1L8.37988 55.43L10.5099 55.41L11.6999 53.65L12.3699 55.66L14.4099 56.25Z" fill="#FFC60B"/>
<path d="M12.2 56.69L17.4 59.5L11.71 57.88L12.2 56.69Z" fill="#FFC60B"/>
<path d="M27.2999 25.19L25.4899 25.31L24.5699 26.87L23.8899 25.2L22.1299 24.8L23.5099 23.64L23.3399 21.84L24.8799 22.8L26.5399 22.07L26.0999 23.83L27.2999 25.19Z" fill="#FFC60B"/>
<path d="M25.5101 24.49L27.9601 28.89L24.6101 25.13L25.5101 24.49Z" fill="#FFC60B"/>
<path d="M1.6599 39.14L5.5999 41.95L1.37993 39.58C1.34931 39.5634 1.32234 39.5407 1.30064 39.5134C1.27895 39.4862 1.26298 39.4548 1.25365 39.4212C1.24432 39.3876 1.24181 39.3525 1.24632 39.3179C1.25084 39.2834 1.26231 39.2501 1.27995 39.22C1.29561 39.1897 1.31729 39.163 1.34367 39.1414C1.37006 39.1198 1.40055 39.1038 1.43334 39.0944C1.46612 39.0851 1.50048 39.0825 1.53429 39.0869C1.5681 39.0913 1.60064 39.1026 1.62993 39.12L1.6599 39.14Z" fill="#FFC60B"/>
<path d="M34.77 60.16L41.36 64.66L34.49 60.6C34.4594 60.5834 34.4324 60.5607 34.4107 60.5334C34.389 60.5061 34.373 60.4748 34.3637 60.4412C34.3544 60.4076 34.3519 60.3725 34.3564 60.3379C34.361 60.3034 34.3724 60.2701 34.39 60.24C34.4272 60.1818 34.4851 60.1401 34.5521 60.1234C34.619 60.1066 34.6899 60.1162 34.75 60.15L34.77 60.16Z" fill="#FFC60B"/>
<path d="M7.07014 42.57L8.69014 43.91L6.79012 43.01C6.75824 42.996 6.72954 42.9757 6.70564 42.9504C6.68175 42.925 6.6632 42.8952 6.65108 42.8625C6.63895 42.8299 6.63346 42.7951 6.63503 42.7603C6.63659 42.7255 6.64511 42.6914 6.66011 42.66C6.69047 42.5974 6.74383 42.549 6.80904 42.5247C6.87424 42.5005 6.9463 42.5024 7.01015 42.53L7.07014 42.57Z" fill="#FFC60B"/>
<path d="M28.8099 56.38L30.4299 57.72L28.5299 56.82C28.498 56.806 28.4693 56.7857 28.4454 56.7604C28.4215 56.735 28.4029 56.7051 28.3908 56.6725C28.3787 56.6399 28.3732 56.6051 28.3748 56.5703C28.3763 56.5355 28.3849 56.5014 28.3999 56.47C28.4303 56.4074 28.4836 56.359 28.5488 56.3347C28.614 56.3105 28.686 56.3124 28.7499 56.34L28.8099 56.38Z" fill="#FFC60B"/>
<path d="M31.62 58.16L33.25 59.51L31.34 58.61C31.288 58.5732 31.2507 58.5192 31.2347 58.4575C31.2187 58.3958 31.225 58.3305 31.2526 58.273C31.2801 58.2156 31.3271 58.1697 31.3852 58.1435C31.4433 58.1174 31.5087 58.1126 31.57 58.13L31.62 58.16Z" fill="#FFC60B"/>
<path d="M10.0499 44.46L27.7799 56.04L9.77992 44.9C9.74906 44.8835 9.72198 44.8608 9.70046 44.8332C9.67893 44.8057 9.66341 44.7739 9.65492 44.74C9.64644 44.7061 9.64517 44.6707 9.6512 44.6363C9.65723 44.6018 9.6704 44.569 9.6899 44.54C9.70821 44.511 9.73205 44.486 9.76009 44.4662C9.78812 44.4465 9.81977 44.4326 9.85323 44.4251C9.88668 44.4177 9.92129 44.417 9.95503 44.4229C9.98878 44.4289 10.021 44.4415 10.0499 44.46Z" fill="#FFC60B"/>
<path d="M29.7199 68.19L37.6699 68.8L29.6699 68.71C29.6354 68.7114 29.6009 68.7057 29.5687 68.6931C29.5366 68.6805 29.5074 68.6614 29.4829 68.637C29.4585 68.6126 29.4394 68.5833 29.4268 68.5511C29.4143 68.519 29.4085 68.4845 29.4099 68.45C29.4099 68.3811 29.4373 68.3149 29.486 68.2661C29.5348 68.2174 29.6009 68.19 29.6699 68.19H29.7199Z" fill="#FFC60B"/>
<path d="M22.66 67.88L24.74 68.24L22.64 68.41C22.5716 68.413 22.5046 68.3898 22.4526 68.3452C22.4006 68.3007 22.3675 68.2381 22.36 68.17C22.3558 68.1351 22.3588 68.0996 22.3688 68.0659C22.3787 68.0321 22.3954 68.0007 22.4179 67.9736C22.4403 67.9465 22.468 67.9242 22.4993 67.9081C22.5306 67.892 22.5648 67.8825 22.6 67.88H22.66Z" fill="#FFC60B"/>
<path d="M25.9999 68.03L28.07 68.38L25.9699 68.55C25.9358 68.5527 25.9014 68.5487 25.8688 68.5381C25.8362 68.5275 25.8061 68.5106 25.78 68.4883C25.754 68.4659 25.7326 68.4387 25.7172 68.4081C25.7017 68.3775 25.6925 68.3442 25.6899 68.31C25.687 68.2416 25.7101 68.1746 25.7547 68.1227C25.7993 68.0707 25.8619 68.0375 25.9299 68.03H25.9999Z" fill="#FFC60B"/>
<path d="M0.459961 66.91L21.6099 68.1L0.439941 67.44C0.378468 67.428 0.323085 67.395 0.283264 67.3467C0.243443 67.2983 0.22168 67.2377 0.22168 67.175C0.22168 67.1124 0.243443 67.0517 0.283264 67.0034C0.323085 66.955 0.378468 66.922 0.439941 66.91H0.459961Z" fill="#FFC60B"/>
<path d="M25.92 10.19L27.92 14.61L25.48 10.43C25.4623 10.4004 25.4505 10.3677 25.4455 10.3336C25.4404 10.2995 25.4421 10.2648 25.4505 10.2313C25.4588 10.1979 25.4737 10.1665 25.4942 10.1388C25.5148 10.1111 25.5405 10.0877 25.57 10.07C25.5996 10.0523 25.6323 10.0405 25.6664 10.0355C25.7005 10.0304 25.7352 10.0321 25.7687 10.0404C25.8021 10.0488 25.8336 10.0636 25.8612 10.0842C25.8889 10.1047 25.9123 10.1304 25.93 10.16L25.92 10.19Z" fill="#FFC60B"/>
<path d="M43.8201 45.09L47.2201 52.31L43.3501 45.31C43.3156 45.249 43.3068 45.1768 43.3256 45.1093C43.3443 45.0418 43.3891 44.9845 43.4501 44.95C43.5111 44.9155 43.5833 44.9067 43.6508 44.9254C43.7183 44.9442 43.7756 44.989 43.8101 45.05L43.8201 45.09Z" fill="#FFC60B"/>
<path d="M28.8401 15.89L29.57 17.89L28.38 16.15C28.3533 16.092 28.348 16.0264 28.365 15.9649C28.3821 15.9034 28.4204 15.8498 28.4731 15.8139C28.5259 15.7779 28.5897 15.7618 28.6532 15.7684C28.7167 15.775 28.7758 15.8039 28.82 15.85C28.8288 15.8622 28.8356 15.8757 28.8401 15.89Z" fill="#FFC60B"/>
<path d="M40.5901 38.81L41.3201 40.81L40.1301 39.07C40.0913 39.0114 40.0768 38.9399 40.0899 38.8708C40.103 38.8017 40.1425 38.7404 40.2001 38.7C40.2572 38.6617 40.3271 38.6476 40.3945 38.6607C40.462 38.6738 40.5215 38.7131 40.5601 38.77C40.5736 38.7802 40.5841 38.7941 40.5901 38.81Z" fill="#FFC60B"/>
<path d="M42.12 41.77L42.84 43.77L41.65 42.03C41.6118 41.9729 41.5976 41.903 41.6107 41.8356C41.6239 41.7681 41.6631 41.7086 41.72 41.67C41.7486 41.6495 41.7811 41.6349 41.8154 41.6273C41.8498 41.6197 41.8854 41.6191 41.92 41.6257C41.9546 41.6322 41.9875 41.6457 42.0167 41.6654C42.046 41.685 42.0709 41.7104 42.09 41.74L42.12 41.77Z" fill="#FFC60B"/>
<path d="M30.4601 19.03L39.8801 38.03L30.0001 19.27C29.9679 19.2075 29.9615 19.1349 29.982 19.0677C30.0025 19.0005 30.0485 18.9439 30.1101 18.91C30.1715 18.8809 30.2418 18.876 30.3067 18.8964C30.3715 18.9168 30.4263 18.961 30.4601 19.02V19.03Z" fill="#FFC60B"/>
<path d="M16.1301 35.21L17.4801 36.83L15.7801 35.59C15.7513 35.5701 15.7268 35.5446 15.7081 35.515C15.6895 35.4854 15.6769 35.4523 15.6713 35.4178C15.6657 35.3832 15.6671 35.3479 15.6755 35.3139C15.6839 35.2799 15.699 35.248 15.72 35.22C15.762 35.164 15.824 35.1265 15.893 35.1153C15.962 35.1041 16.0327 35.1202 16.0901 35.16L16.1301 35.21Z" fill="#FFC60B"/>
<path d="M18.7101 37.62L42.82 60.94L18.35 38C18.2996 37.9523 18.2703 37.8865 18.2684 37.8171C18.2665 37.7477 18.2923 37.6804 18.3401 37.63C18.3878 37.5796 18.4536 37.5502 18.523 37.5484C18.5924 37.5465 18.6597 37.5723 18.7101 37.62Z" fill="#FFC60B"/>
<path d="M28.88 29.64L29.79 31.54L28.44 29.92C28.4153 29.8942 28.3961 29.8635 28.3837 29.83C28.3714 29.7964 28.366 29.7606 28.3681 29.7249C28.3702 29.6892 28.3796 29.6543 28.3958 29.6224C28.412 29.5905 28.4346 29.5623 28.4622 29.5395C28.4898 29.5168 28.5218 29.4999 28.5562 29.4901C28.5906 29.4803 28.6267 29.4776 28.6621 29.4824C28.6976 29.4871 28.7317 29.4991 28.7623 29.5176C28.7929 29.5362 28.8194 29.5608 28.84 29.59C28.8585 29.6018 28.8725 29.6194 28.88 29.64Z" fill="#FFC60B"/>
<path d="M30.79 32.6L37.0901 42.45L30.36 32.89C30.3392 32.8628 30.3243 32.8317 30.316 32.7985C30.3078 32.7653 30.3064 32.7307 30.312 32.697C30.3176 32.6632 30.3301 32.631 30.3487 32.6023C30.3673 32.5736 30.3915 32.549 30.42 32.53C30.4759 32.4907 30.545 32.475 30.6123 32.4862C30.6797 32.4975 30.74 32.5347 30.7801 32.59L30.79 32.6Z" fill="#FFC60B"/>
<path d="M49.9199 23.3L54.5299 47.47L49.4099 23.38C49.4027 23.3465 49.4022 23.3119 49.4083 23.2782C49.4144 23.2445 49.4271 23.2124 49.4457 23.1836C49.4643 23.1548 49.4883 23.13 49.5165 23.1105C49.5447 23.091 49.5764 23.0772 49.6099 23.07C49.6434 23.0628 49.678 23.0622 49.7117 23.0684C49.7454 23.0745 49.7775 23.0872 49.8063 23.1058C49.8351 23.1244 49.8599 23.1484 49.8794 23.1766C49.8989 23.2048 49.9127 23.2365 49.9199 23.27V23.3Z" fill="#FFC60B"/>
<path d="M37.7401 19.05L38.3001 21.05L37.3001 19.22C37.2656 19.159 37.2568 19.0868 37.2755 19.0193C37.2943 18.9518 37.3391 18.8945 37.4001 18.86C37.4611 18.8255 37.5333 18.8167 37.6008 18.8354C37.6683 18.8542 37.7256 18.899 37.7601 18.96C37.7638 18.9914 37.7567 19.0231 37.7401 19.05Z" fill="#FFC60B"/>
<path d="M39.0999 22.31L49.6599 49.56L38.6599 22.5C38.6474 22.4678 38.6414 22.4335 38.6422 22.399C38.6429 22.3645 38.6506 22.3305 38.6645 22.299C38.6784 22.2674 38.6984 22.2388 38.7233 22.215C38.7483 22.1912 38.7777 22.1725 38.8099 22.16C38.8421 22.1475 38.8764 22.1415 38.9109 22.1423C38.9454 22.1431 38.9794 22.1507 39.0109 22.1646C39.0425 22.1785 39.071 22.1985 39.0949 22.2235C39.1187 22.2484 39.1374 22.2778 39.1499 22.31H39.0999Z" fill="#FFC60B"/>
<path d="M18.5899 59.67L20.4499 60.67L18.4499 60.17C18.3814 60.1534 18.322 60.1105 18.2847 60.0507C18.2473 59.991 18.2348 59.9189 18.2499 59.85C18.258 59.8163 18.2729 59.7846 18.2935 59.7567C18.3141 59.7288 18.3401 59.7053 18.3699 59.6876C18.3997 59.6699 18.4328 59.6583 18.4671 59.6536C18.5015 59.6489 18.5364 59.651 18.5699 59.66L18.5899 59.67Z" fill="#FFC60B"/>
<path d="M21.88 60.93L32.78 65.17L21.7 61.43C21.6344 61.4052 21.581 61.3559 21.5511 61.2924C21.5212 61.229 21.5172 61.1564 21.5399 61.09C21.5626 61.0251 21.6101 60.9719 21.672 60.9419C21.7338 60.9119 21.805 60.9077 21.8699 60.93H21.88Z" fill="#FFC60B"/>
<path d="M13.87 36.5C13.8699 36.6883 13.814 36.8724 13.7091 37.0288C13.6043 37.1852 13.4553 37.307 13.2812 37.3786C13.107 37.4502 12.9155 37.4684 12.7309 37.4309C12.5464 37.3935 12.3771 37.302 12.2447 37.1681C12.1122 37.0343 12.0225 36.8641 11.987 36.6791C11.9515 36.4942 11.9717 36.3029 12.0452 36.1295C12.1186 35.9561 12.242 35.8084 12.3995 35.7052C12.557 35.602 12.7416 35.548 12.93 35.55C13.1802 35.5526 13.4192 35.6539 13.5952 35.8317C13.7712 36.0096 13.87 36.2498 13.87 36.5Z" fill="#FFC60B"/>
<path d="M46.35 23.38C46.3401 23.5633 46.2773 23.7397 46.1692 23.888C46.0612 24.0364 45.9125 24.1502 45.7411 24.2158C45.5697 24.2814 45.383 24.296 45.2035 24.2578C45.024 24.2196 44.8594 24.1301 44.7297 24.0004C44.5999 23.8706 44.5105 23.706 44.4723 23.5266C44.434 23.3471 44.4486 23.1603 44.5142 22.989C44.5798 22.8176 44.6937 22.6689 44.842 22.5608C44.9903 22.4527 45.1668 22.3899 45.35 22.38C45.4836 22.3712 45.6176 22.391 45.743 22.4381C45.8683 22.4852 45.9821 22.5586 46.0768 22.6533C46.1714 22.7479 46.2448 22.8618 46.292 22.9871C46.3391 23.1125 46.3589 23.2464 46.35 23.38Z" fill="#FFC60B"/>
<path d="M12.7301 31.93C12.7321 32.0554 12.6966 32.1786 12.6281 32.2837C12.5597 32.3888 12.4614 32.4711 12.3459 32.52C12.2304 32.569 12.1029 32.5823 11.9798 32.5583C11.8566 32.5343 11.7435 32.4741 11.6547 32.3854C11.566 32.2967 11.5058 32.1835 11.4818 32.0604C11.4578 31.9372 11.4712 31.8098 11.5201 31.6943C11.569 31.5787 11.6513 31.4805 11.7564 31.412C11.8616 31.3435 11.9847 31.308 12.1101 31.31C12.2746 31.31 12.4323 31.3753 12.5485 31.4916C12.6648 31.6079 12.7301 31.7655 12.7301 31.93Z" fill="#FFC60B"/>
<path d="M43.4601 20.11C43.4621 20.2354 43.4266 20.3586 43.3581 20.4637C43.2897 20.5688 43.1914 20.6511 43.0758 20.7C42.9603 20.7489 42.8328 20.7623 42.7097 20.7383C42.5866 20.7143 42.4734 20.6541 42.3847 20.5654C42.296 20.4767 42.2358 20.3635 42.2118 20.2404C42.1878 20.1172 42.2011 19.9898 42.25 19.8743C42.299 19.7587 42.3812 19.6605 42.4864 19.592C42.5915 19.5235 42.7147 19.488 42.8401 19.49C43.0038 19.4926 43.16 19.5587 43.2757 19.6744C43.3914 19.7901 43.4575 19.9464 43.4601 20.11Z" fill="#FFC60B"/>
<path d="M8.64988 51.62C8.65911 51.7416 8.63226 51.8633 8.57267 51.9698C8.51309 52.0762 8.42337 52.1627 8.31486 52.2185C8.20634 52.2742 8.08386 52.2966 7.96263 52.2831C7.84139 52.2695 7.72683 52.2204 7.63334 52.1421C7.53985 52.0637 7.47154 51.9595 7.43699 51.8425C7.40244 51.7255 7.4032 51.6009 7.43913 51.4844C7.47505 51.3678 7.54455 51.2644 7.63896 51.1871C7.73336 51.1099 7.84845 51.0622 7.96983 51.05C8.05209 51.0418 8.1352 51.0501 8.21421 51.0744C8.29322 51.0988 8.36655 51.1387 8.42991 51.1918C8.49327 51.2449 8.5454 51.3101 8.58317 51.3837C8.62094 51.4572 8.64363 51.5376 8.64988 51.62Z" fill="#FFC60B"/>
<path d="M27.1299 35.38C27.1106 35.5322 27.0364 35.672 26.9214 35.7734C26.8063 35.8748 26.6582 35.9308 26.5049 35.9308C26.3515 35.9308 26.2034 35.8748 26.0883 35.7734C25.9733 35.672 25.8992 35.5322 25.8799 35.38C25.8992 35.2279 25.9733 35.088 26.0883 34.9866C26.2034 34.8852 26.3515 34.8292 26.5049 34.8292C26.6582 34.8292 26.8063 34.8852 26.9214 34.9866C27.0364 35.088 27.1106 35.2279 27.1299 35.38Z" fill="#FFC60B"/>
<path d="M28.71 38.86L35.18 46.31L28.33 39.22C28.3055 39.1958 28.286 39.167 28.2728 39.1353C28.2595 39.1035 28.2527 39.0694 28.2527 39.035C28.2527 39.0006 28.2595 38.9665 28.2728 38.9348C28.286 38.903 28.3055 38.8742 28.33 38.85C28.3801 38.8029 28.4463 38.7767 28.515 38.7767C28.5838 38.7767 28.6499 38.8029 28.7 38.85L28.71 38.86Z" fill="#FFC60B"/>
<path d="M98.9199 58.92L100.54 60.3L100.33 62.41L102.13 61.29L104.07 62.15L103.57 60.09L104.98 58.5L102.87 58.34L101.8 56.51L101 58.47L98.9199 58.92Z" fill="#FFC60B"/>
<path d="M101.5 60.73L95.72 61.97L101.1 59.51L101.5 60.73Z" fill="#FFC60B"/>
<path d="M88 25.7L89.81 25.83L90.73 27.39L91.41 25.71L93.17 25.32L91.79 24.15L91.96 22.35L90.43 23.31L88.77 22.59L89.2 24.34L88 25.7Z" fill="#FFC60B"/>
<path d="M90.6901 25.64L87.3401 29.41L89.7901 25L90.6901 25.64Z" fill="#FFC60B"/>
<path d="M116.5 41.63L112.14 43.74L116.24 41.17C116.269 41.1516 116.301 41.1391 116.335 41.1332C116.369 41.1273 116.403 41.128 116.437 41.1354C116.47 41.1429 116.502 41.1568 116.53 41.1765C116.558 41.1961 116.582 41.2211 116.6 41.25C116.618 41.2789 116.631 41.3111 116.637 41.3449C116.643 41.3786 116.642 41.4131 116.635 41.4466C116.627 41.48 116.613 41.5116 116.594 41.5397C116.574 41.5677 116.549 41.5916 116.52 41.61L116.5 41.63Z" fill="#FFC60B"/>
<path d="M82.17 60.61L75.0701 64.24L81.92 60.15C81.9496 60.1323 81.9823 60.1205 82.0164 60.1155C82.0505 60.1104 82.0853 60.1121 82.1187 60.1204C82.1521 60.1288 82.1836 60.1437 82.2112 60.1642C82.2389 60.1847 82.2624 60.2104 82.2801 60.24C82.2978 60.2695 82.3095 60.3023 82.3146 60.3364C82.3196 60.3705 82.318 60.4052 82.3096 60.4386C82.3013 60.4721 82.2864 60.5035 82.2659 60.5312C82.2454 60.5589 82.2196 60.5823 82.1901 60.6L82.17 60.61Z" fill="#FFC60B"/>
<path d="M110.89 44.73L108.89 45.51L110.6 44.27C110.628 44.249 110.66 44.2338 110.694 44.2255C110.728 44.2171 110.763 44.2156 110.798 44.2212C110.832 44.2268 110.865 44.2394 110.895 44.2581C110.925 44.2767 110.95 44.3012 110.97 44.33C111.01 44.3875 111.026 44.4581 111.015 44.5271C111.004 44.5961 110.966 44.6581 110.91 44.7L110.89 44.73Z" fill="#FFC60B"/>
<path d="M88.3501 57.19L86.3501 57.98L88.0501 56.73C88.0774 56.701 88.1107 56.6784 88.1478 56.6637C88.1848 56.6491 88.2247 56.6429 88.2644 56.6455C88.3041 56.648 88.3428 56.6594 88.3776 56.6787C88.4125 56.698 88.4426 56.7247 88.4659 56.757C88.4892 56.7893 88.505 56.8263 88.5123 56.8655C88.5196 56.9046 88.5182 56.9449 88.5081 56.9834C88.4979 57.022 88.4794 57.0578 88.4539 57.0883C88.4283 57.1188 88.3963 57.1433 88.3601 57.16L88.3501 57.19Z" fill="#FFC60B"/>
<path d="M85.43 58.8L83.48 59.59L85.18 58.35C85.208 58.329 85.2399 58.3138 85.2739 58.3054C85.3079 58.2971 85.3432 58.2956 85.3777 58.3012C85.4123 58.3068 85.4454 58.3193 85.475 58.338C85.5046 58.3567 85.5301 58.3812 85.55 58.41C85.5708 58.4372 85.5858 58.4683 85.5941 58.5015C85.6023 58.5347 85.6036 58.5693 85.598 58.603C85.5924 58.6368 85.5799 58.669 85.5613 58.6977C85.5428 58.7264 85.5185 58.7511 85.49 58.77C85.4746 58.7874 85.4531 58.7981 85.43 58.8Z" fill="#FFC60B"/>
<path d="M107.8 46.44L89.1401 56.44L107.55 45.96C107.611 45.927 107.683 45.919 107.75 45.9377C107.817 45.9563 107.875 46.0001 107.91 46.06C107.943 46.1198 107.95 46.19 107.932 46.2554C107.913 46.3209 107.869 46.3764 107.81 46.41L107.8 46.44Z" fill="#FFC60B"/>
<path d="M89.8399 10.94L87.3999 15.12L89.3999 10.7C89.4139 10.6681 89.4342 10.6394 89.4595 10.6155C89.4849 10.5916 89.5147 10.573 89.5474 10.5609C89.58 10.5488 89.6147 10.5433 89.6495 10.5449C89.6843 10.5465 89.7185 10.555 89.7499 10.57C89.8117 10.5984 89.86 10.6499 89.8843 10.7135C89.9086 10.777 89.907 10.8476 89.8799 10.91L89.8399 10.94Z" fill="#FFC60B"/>
<path d="M71.9401 45.84L68.0701 52.84L71.48 45.62C71.494 45.5893 71.5139 45.5618 71.5388 45.539C71.5636 45.5163 71.5928 45.4988 71.6245 45.4876C71.6563 45.4764 71.69 45.4717 71.7236 45.4738C71.7572 45.476 71.79 45.4849 71.8201 45.5C71.8519 45.514 71.8806 45.5343 71.9045 45.5596C71.9284 45.585 71.947 45.6148 71.9592 45.6475C71.9713 45.6801 71.9767 45.7149 71.9752 45.7496C71.9736 45.7844 71.9651 45.8186 71.9501 45.85L71.9401 45.84Z" fill="#FFC60B"/>
<path d="M86.91 16.64L85.73 18.38L86.45 16.38C86.4612 16.3467 86.4789 16.316 86.5023 16.2898C86.5256 16.2635 86.554 16.2423 86.5858 16.2273C86.6176 16.2124 86.652 16.204 86.6871 16.2028C86.7222 16.2015 86.7572 16.2074 86.79 16.22C86.8538 16.2467 86.9049 16.2968 86.9328 16.3601C86.9607 16.4234 86.9633 16.4949 86.94 16.56C86.94 16.56 86.92 16.62 86.91 16.64Z" fill="#FFC60B"/>
<path d="M75.16 39.56L74 41.3L74.72 39.3C74.7311 39.2667 74.7489 39.236 74.7723 39.2098C74.7956 39.1835 74.8241 39.1623 74.8558 39.1474C74.8876 39.1324 74.9221 39.1241 74.9572 39.1228C74.9922 39.1215 75.0272 39.1274 75.06 39.14C75.1238 39.1667 75.1749 39.2168 75.2028 39.2801C75.2307 39.3433 75.2333 39.4149 75.21 39.48C75.21 39.48 75.17 39.54 75.16 39.56Z" fill="#FFC60B"/>
<path d="M73.64 42.53L72.45 44.27L73.1799 42.27C73.2026 42.2052 73.2501 42.1519 73.312 42.1219C73.3738 42.092 73.445 42.0877 73.5099 42.11C73.5432 42.1212 73.5739 42.139 73.6002 42.1623C73.6264 42.1857 73.6476 42.2141 73.6626 42.2458C73.6775 42.2776 73.6859 42.3121 73.6871 42.3472C73.6884 42.3823 73.6825 42.4173 73.6699 42.45L73.64 42.53Z" fill="#FFC60B"/>
<path d="M85.2999 19.78L75.4099 38.51L84.84 19.51C84.8549 19.479 84.8758 19.4513 84.9016 19.4284C84.9273 19.4056 84.9573 19.388 84.9899 19.3769C85.0224 19.3657 85.0569 19.3611 85.0912 19.3634C85.1256 19.3656 85.1591 19.3747 85.1899 19.39C85.2507 19.4221 85.297 19.4762 85.3193 19.5412C85.3416 19.6063 85.3383 19.6773 85.3099 19.74L85.2999 19.78Z" fill="#FFC60B"/>
<path d="M57.9399 0.270021L57.7999 5.11002L57.4199 0.28C57.417 0.211597 57.4401 0.144636 57.4847 0.0926523C57.5292 0.0406684 57.5919 0.0075447 57.6599 9.68808e-07C57.6941 -0.00272875 57.7285 0.00133295 57.7611 0.0119333C57.7936 0.0225337 57.8238 0.0394639 57.8499 0.0617685C57.8759 0.0840732 57.8973 0.11132 57.9127 0.141908C57.9282 0.172496 57.9374 0.205811 57.9399 0.239991V0.270021Z" fill="#FFC60B"/>
<path d="M58.9001 39.48L58.8401 47.48L58.3801 39.48C58.3787 39.4459 58.3842 39.4118 58.396 39.3797C58.4079 39.3477 58.4259 39.3182 58.4491 39.2932C58.4723 39.2681 58.5003 39.2478 58.5313 39.2336C58.5624 39.2193 58.5959 39.2113 58.6301 39.21C58.6637 39.2073 58.6976 39.2114 58.7296 39.2221C58.7616 39.2328 58.7911 39.2499 58.8164 39.2723C58.8416 39.2948 58.862 39.3221 58.8764 39.3526C58.8908 39.3831 58.8989 39.4163 58.9001 39.45V39.48Z" fill="#FFC60B"/>
<path d="M58.0999 6.67998L57.8899 8.77001L57.5799 6.68999C57.5743 6.6558 57.5754 6.6208 57.5835 6.58708C57.5915 6.55337 57.6063 6.52162 57.6268 6.49367C57.6473 6.46572 57.6731 6.44214 57.7029 6.42433C57.7326 6.40653 57.7656 6.39487 57.7999 6.39C57.8686 6.38121 57.938 6.39914 57.9939 6.44008C58.0497 6.48103 58.0876 6.54186 58.0999 6.61V6.67998Z" fill="#FFC60B"/>
<path d="M58.73 32.38L58.5201 34.48L58.2101 32.4C58.2044 32.3658 58.2056 32.3308 58.2136 32.2971C58.2217 32.2634 58.2364 32.2316 58.2569 32.2037C58.2774 32.1757 58.3033 32.1521 58.333 32.1343C58.3627 32.1165 58.3957 32.1049 58.43 32.1C58.4644 32.0928 58.4999 32.0929 58.5342 32.1004C58.5685 32.1078 58.6008 32.1223 58.6291 32.1431C58.6574 32.1638 58.681 32.1903 58.6984 32.2208C58.7158 32.2513 58.7266 32.2851 58.73 32.32V32.38Z" fill="#FFC60B"/>
<path d="M58.8099 35.76L58.5999 37.85L58.2899 35.77C58.2847 35.7359 58.2862 35.701 58.2944 35.6675C58.3026 35.6339 58.3174 35.6023 58.3378 35.5744C58.3583 35.5466 58.384 35.523 58.4135 35.5051C58.443 35.4872 58.4758 35.4753 58.5099 35.47C58.5441 35.4648 58.5789 35.4663 58.6125 35.4745C58.646 35.4827 58.6776 35.4975 58.7055 35.5179C58.7334 35.5383 58.7569 35.564 58.7748 35.5936C58.7928 35.6231 58.8047 35.6559 58.8099 35.69C58.8152 35.7009 58.818 35.7129 58.818 35.725C58.818 35.7371 58.8152 35.7491 58.8099 35.76Z" fill="#FFC60B"/>
<path d="M58.1899 10.2L58.4399 31.38L57.6599 10.22C57.6585 10.185 57.6642 10.1501 57.6767 10.1174C57.6892 10.0847 57.7082 10.0549 57.7324 10.0296C57.7567 10.0044 57.7858 9.98438 57.818 9.97069C57.8502 9.957 57.8849 9.94997 57.9199 9.95C57.954 9.94866 57.9881 9.95405 58.0202 9.9659C58.0522 9.97774 58.0816 9.99578 58.1067 10.019C58.1318 10.0422 58.1521 10.0702 58.1663 10.1012C58.1806 10.1323 58.1886 10.1658 58.1899 10.2Z" fill="#FFC60B"/>
<path d="M99.5201 36.1L97.8101 37.38L99.16 35.76C99.1824 35.7337 99.2097 35.7121 99.2404 35.6964C99.271 35.6807 99.3045 35.6712 99.3389 35.6684C99.3732 35.6656 99.4078 35.6696 99.4406 35.6802C99.4734 35.6908 99.5038 35.7077 99.5301 35.73C99.5564 35.7523 99.5779 35.7796 99.5936 35.8103C99.6093 35.841 99.6189 35.8744 99.6217 35.9088C99.6245 35.9431 99.6204 35.9777 99.6099 36.0105C99.5993 36.0433 99.5824 36.0737 99.5601 36.1H99.5201Z" fill="#FFC60B"/>
<path d="M96.94 38.51L72.48 61.45L96.58 38.14C96.6301 38.0929 96.6963 38.0667 96.765 38.0667C96.8338 38.0667 96.8999 38.0929 96.95 38.14C96.9745 38.1642 96.9939 38.193 97.0072 38.2248C97.0205 38.2565 97.0273 38.2906 97.0273 38.325C97.0273 38.3594 97.0205 38.3935 97.0072 38.4253C96.9939 38.457 96.9745 38.4858 96.95 38.51H96.94Z" fill="#FFC60B"/>
<path d="M86.86 30.44L85.5 32.05L86.42 30.15C86.4351 30.1191 86.4561 30.0915 86.4819 30.0688C86.5076 30.0461 86.5376 30.0287 86.5701 30.0175C86.6026 30.0064 86.637 30.0017 86.6713 30.0039C86.7056 30.006 86.7392 30.0149 86.77 30.03C86.8009 30.0451 86.8285 30.0661 86.8512 30.0919C86.8739 30.1176 86.8913 30.1476 86.9025 30.1801C86.9136 30.2126 86.9183 30.247 86.9161 30.2813C86.914 30.3156 86.9051 30.3491 86.89 30.38L86.86 30.44Z" fill="#FFC60B"/>
<path d="M84.9399 33.38L78.2 42.93L84.4999 33.08C84.5385 33.0231 84.598 32.9838 84.6655 32.9707C84.7329 32.9576 84.8028 32.9717 84.8599 33.01C84.89 33.0273 84.9161 33.0507 84.9366 33.0786C84.9572 33.1066 84.9717 33.1385 84.9792 33.1724C84.9867 33.2062 84.9871 33.2413 84.9803 33.2753C84.9736 33.3093 84.9598 33.3416 84.9399 33.37V33.38Z" fill="#FFC60B"/>
<path d="M68.32 17.93L60.76 47.98L67.82 17.81C67.8271 17.7764 67.8408 17.7446 67.8602 17.7164C67.8797 17.6882 67.9046 17.6641 67.9334 17.6455C67.9622 17.6269 67.9944 17.6142 68.0281 17.6081C68.0619 17.602 68.0965 17.6027 68.13 17.61C68.1985 17.6267 68.2578 17.6695 68.2952 17.7293C68.3325 17.7891 68.3451 17.8611 68.33 17.93H68.32Z" fill="#FFC60B"/>
<path d="M77.1599 19.38L76.1599 21.22L76.7199 19.22C76.7386 19.1538 76.7827 19.0976 76.8427 19.0639C76.9027 19.0301 76.9736 19.0216 77.0399 19.04C77.0736 19.0482 77.1054 19.063 77.1333 19.0836C77.1612 19.1042 77.1846 19.1302 77.2023 19.16C77.22 19.1898 77.2317 19.2229 77.2364 19.2572C77.2411 19.2916 77.2389 19.3265 77.2299 19.36L77.1599 19.38Z" fill="#FFC60B"/>
<path d="M75.8101 22.67L64.8101 49.73L75.3701 22.48C75.3822 22.4476 75.4007 22.418 75.4245 22.3928C75.4483 22.3676 75.4769 22.3475 75.5085 22.3335C75.5402 22.3196 75.5743 22.312 75.6089 22.3114C75.6436 22.3108 75.6779 22.3172 75.7101 22.33C75.7425 22.3422 75.7721 22.3607 75.7972 22.3845C75.8224 22.4082 75.8426 22.4368 75.8566 22.4685C75.8705 22.5002 75.878 22.5343 75.8786 22.5689C75.8792 22.6035 75.8729 22.6379 75.86 22.67H75.8101Z" fill="#FFC60B"/>
<path d="M94.66 62.56L92.5901 62.93L94.5101 62.06C94.5737 62.0308 94.6463 62.0282 94.712 62.0525C94.7776 62.0769 94.8309 62.1264 94.86 62.19C94.8892 62.2537 94.8919 62.3263 94.8676 62.392C94.8432 62.4576 94.7937 62.5108 94.73 62.54L94.66 62.56Z" fill="#FFC60B"/>
<path d="M91.29 63.6L79.99 66.6L91.14 63.09C91.2063 63.0688 91.2783 63.0748 91.3402 63.1067C91.4021 63.1385 91.4488 63.1937 91.47 63.26C91.4912 63.3263 91.4853 63.3983 91.4534 63.4602C91.4215 63.5221 91.3663 63.5688 91.3 63.59L91.29 63.6Z" fill="#FFC60B"/>
<path d="M101.42 37.01C101.418 37.1961 101.471 37.3787 101.572 37.5349C101.674 37.6912 101.818 37.8143 101.989 37.8889C102.159 37.9636 102.348 37.9865 102.531 37.9549C102.715 37.9232 102.885 37.8384 103.021 37.7109C103.156 37.5834 103.251 37.4189 103.294 37.2378C103.337 37.0566 103.326 36.8669 103.262 36.6921C103.198 36.5173 103.084 36.3652 102.934 36.2546C102.785 36.144 102.606 36.0798 102.42 36.07C102.292 36.0618 102.163 36.08 102.042 36.1236C101.921 36.1671 101.81 36.2351 101.716 36.3232C101.622 36.4113 101.548 36.5177 101.497 36.6359C101.446 36.754 101.42 36.8813 101.42 37.01Z" fill="#FFC60B"/>
<path d="M67.9998 15.12C67.9878 15.3199 68.0361 15.5188 68.1385 15.691C68.2408 15.8631 68.3924 16.0006 68.5738 16.0855C68.7551 16.1705 68.9578 16.1991 69.1555 16.1675C69.3533 16.136 69.537 16.0458 69.683 15.9086C69.8289 15.7715 69.9303 15.5937 69.974 15.3982C70.0177 15.2028 70.0017 14.9988 69.9281 14.8125C69.8545 14.6263 69.7266 14.4664 69.5611 14.3536C69.3956 14.2408 69.2001 14.1804 68.9998 14.18C68.8718 14.1732 68.7437 14.1925 68.6233 14.2366C68.5028 14.2807 68.3926 14.3487 68.2992 14.4365C68.2057 14.5243 68.131 14.6302 68.0796 14.7476C68.0281 14.8651 68.001 14.9918 67.9998 15.12Z" fill="#FFC60B"/>
<path d="M102.56 32.44C102.558 32.565 102.593 32.6878 102.661 32.7927C102.729 32.8976 102.827 32.9799 102.942 33.0291C103.057 33.0784 103.184 33.0923 103.307 33.0691C103.43 33.0459 103.543 32.9867 103.632 32.899C103.721 32.8113 103.782 32.6991 103.807 32.5766C103.832 32.4542 103.82 32.327 103.773 32.2113C103.726 32.0956 103.645 31.9966 103.541 31.9269C103.437 31.8572 103.315 31.82 103.19 31.82C103.025 31.82 102.866 31.885 102.748 32.001C102.63 32.117 102.563 32.2747 102.56 32.44Z" fill="#FFC60B"/>
<path d="M69.27 11.44C69.27 11.5626 69.3064 11.6825 69.3745 11.7845C69.4426 11.8864 69.5394 11.9659 69.6527 12.0128C69.766 12.0597 69.8907 12.072 70.011 12.0481C70.1313 12.0242 70.2417 11.9651 70.3284 11.8784C70.4151 11.7917 70.4742 11.6812 70.4981 11.561C70.522 11.4407 70.5098 11.316 70.4628 11.2027C70.4159 11.0894 70.3364 10.9926 70.2344 10.9245C70.1325 10.8564 70.0126 10.82 69.89 10.82C69.7264 10.8226 69.5702 10.8887 69.4545 11.0045C69.3387 11.1202 69.2726 11.2764 69.27 11.44Z" fill="#FFC60B"/>
<path d="M105 54.68C104.977 54.844 105.018 55.0106 105.115 55.1449C105.212 55.2792 105.357 55.3706 105.52 55.4C105.601 55.4128 105.683 55.4094 105.763 55.3902C105.842 55.3709 105.917 55.3361 105.983 55.2878C106.049 55.2395 106.105 55.1786 106.147 55.1086C106.19 55.0386 106.218 54.9609 106.23 54.88C106.244 54.7998 106.242 54.7175 106.224 54.638C106.206 54.5586 106.172 54.4835 106.125 54.4173C106.077 54.3512 106.017 54.2952 105.947 54.2527C105.878 54.2102 105.801 54.1821 105.72 54.17C105.639 54.1557 105.556 54.1576 105.476 54.1755C105.396 54.1934 105.32 54.2271 105.253 54.2746C105.186 54.322 105.13 54.3823 105.086 54.4519C105.043 54.5215 105.013 54.599 105 54.68Z" fill="#FFC60B"/>
<path d="M88.16 35.91C88.158 36.035 88.1933 36.1578 88.2613 36.2627C88.3293 36.3676 88.427 36.4499 88.5419 36.4991C88.6568 36.5483 88.7838 36.5623 88.9067 36.5391C89.0296 36.5159 89.1427 36.4567 89.2318 36.369C89.3209 36.2813 89.3819 36.1691 89.4071 36.0466C89.4322 35.9242 89.4203 35.797 89.3729 35.6813C89.3256 35.5656 89.2449 35.4666 89.1411 35.3969C89.0373 35.3272 88.915 35.29 88.79 35.29C88.6246 35.29 88.4659 35.355 88.348 35.471C88.2302 35.587 88.1626 35.7447 88.16 35.91Z" fill="#FFC60B"/>
<path d="M87.0001 39.73L80.1401 46.83L86.6101 39.38C86.6324 39.3537 86.6598 39.3321 86.6904 39.3164C86.7211 39.3007 86.7545 39.2911 86.7889 39.2884C86.8232 39.2856 86.8578 39.2896 86.8906 39.3002C86.9234 39.3107 86.9538 39.3277 86.9801 39.35C87.0064 39.3723 87.028 39.3996 87.0437 39.4303C87.0594 39.461 87.069 39.4944 87.0718 39.5288C87.0746 39.5631 87.0705 39.5977 87.0599 39.6305C87.0494 39.6633 87.0325 39.6937 87.0101 39.72L87.0001 39.73Z" fill="#FFC60B"/>
<path d="M89.5801 113.14L91.3901 113.01L92.3101 111.45L92.9901 113.13L94.7501 113.52L93.3701 114.69L93.5401 116.49L92.0101 115.53L90.3501 116.25L90.7801 114.5L89.5801 113.14Z" fill="#FFC60B"/>
<path d="M91.3699 113.84L88.9199 109.43L92.2699 113.2L91.3699 113.84Z" fill="#FFC60B"/>
<path d="M116.69 97.27L112.6 94.68L116.95 96.82C117.012 96.8505 117.06 96.9045 117.083 96.9702C117.105 97.0358 117.101 97.1077 117.07 97.17C117.04 97.2323 116.986 97.28 116.92 97.3025C116.854 97.325 116.782 97.3205 116.72 97.29L116.69 97.27Z" fill="#FFC60B"/>
<path d="M82.4799 78.1L75.6499 73.97L82.7299 77.64C82.7914 77.674 82.8379 77.7299 82.8602 77.7966C82.8824 77.8633 82.8787 77.9359 82.8499 78C82.816 78.0616 82.7594 78.1075 82.6922 78.1281C82.625 78.1486 82.5524 78.1422 82.4899 78.11L82.4799 78.1Z" fill="#FFC60B"/>
<path d="M111.11 94.14L109.41 92.89L111.41 93.69C111.442 93.7022 111.472 93.7207 111.497 93.7444C111.522 93.7682 111.542 93.7968 111.556 93.8285C111.57 93.8602 111.578 93.8943 111.578 93.9289C111.579 93.9635 111.573 93.9979 111.56 94.03C111.531 94.0944 111.479 94.145 111.413 94.1712C111.348 94.1974 111.275 94.1969 111.21 94.17L111.11 94.14Z" fill="#FFC60B"/>
<path d="M88.64 81.55L86.9399 80.3L88.89 81.1C88.9224 81.1121 88.952 81.1307 88.9772 81.1545C89.0023 81.1783 89.0225 81.2068 89.0364 81.2385C89.0504 81.2701 89.0579 81.3043 89.0585 81.3389C89.0591 81.3735 89.0528 81.4079 89.0399 81.44C89.0114 81.5044 88.9588 81.555 88.8934 81.5812C88.828 81.6073 88.755 81.6069 88.6899 81.58C88.6704 81.5758 88.6528 81.5653 88.64 81.55Z" fill="#FFC60B"/>
<path d="M85.73 79.92L84.03 78.67L86.03 79.47C86.0656 79.4793 86.0988 79.4961 86.1274 79.5192C86.156 79.5423 86.1794 79.5713 86.196 79.6041C86.2126 79.6369 86.2221 79.6728 86.2238 79.7096C86.2254 79.7463 86.2193 79.783 86.2058 79.8172C86.1923 79.8514 86.1716 79.8823 86.1452 79.908C86.1188 79.9336 86.0874 79.9533 86.0528 79.9659C86.0182 79.9784 85.9814 79.9835 85.9447 79.9808C85.908 79.978 85.8724 79.9676 85.84 79.95C85.84 79.95 85.75 79.93 85.73 79.92Z" fill="#FFC60B"/>
<path d="M108 92.38L89.6499 81.8L108.25 91.92C108.311 91.9519 108.357 92.0067 108.377 92.0723C108.398 92.1379 108.392 92.209 108.36 92.27C108.326 92.3316 108.269 92.3775 108.202 92.3981C108.135 92.4186 108.062 92.4121 108 92.38Z" fill="#FFC60B"/>
<path d="M91 128.14L89 123.72L91.44 127.9C91.4576 127.93 91.4691 127.963 91.4736 127.998C91.4781 128.032 91.4756 128.068 91.4663 128.101C91.457 128.135 91.4409 128.166 91.4193 128.193C91.3976 128.221 91.3706 128.243 91.34 128.26C91.2799 128.294 91.209 128.303 91.1421 128.287C91.0751 128.27 91.0171 128.228 90.98 128.17L91 128.14Z" fill="#FFC60B"/>
<path d="M73.0599 93.24L69.6499 86.02L73.5199 93.02C73.5375 93.0501 73.549 93.0834 73.5535 93.1179C73.558 93.1525 73.5555 93.1876 73.5461 93.2212C73.5368 93.2548 73.5208 93.2861 73.4991 93.3134C73.4775 93.3407 73.4505 93.3633 73.4199 93.38C73.3573 93.4121 73.2848 93.4186 73.2175 93.3981C73.1503 93.3775 73.0938 93.3316 73.0599 93.27V93.24Z" fill="#FFC60B"/>
<path d="M88 122.44L87.28 120.44L88.46 122.18C88.4806 122.209 88.4951 122.241 88.5027 122.275C88.5103 122.31 88.5108 122.345 88.5043 122.38C88.4977 122.415 88.4842 122.448 88.4646 122.477C88.445 122.506 88.4196 122.531 88.39 122.55C88.3329 122.588 88.263 122.602 88.1956 122.589C88.1281 122.576 88.0686 122.537 88.03 122.48L88 122.44Z" fill="#FFC60B"/>
<path d="M76.2801 99.52L75.5601 97.52L76.7401 99.26C76.7606 99.2886 76.7751 99.3211 76.7827 99.3555C76.7903 99.3898 76.7909 99.4254 76.7844 99.46C76.7778 99.4946 76.7643 99.5275 76.7446 99.5568C76.725 99.586 76.6996 99.6109 76.67 99.63C76.613 99.6683 76.5431 99.6824 76.4756 99.6693C76.4082 99.6562 76.3486 99.6169 76.3101 99.56L76.2801 99.52Z" fill="#FFC60B"/>
<path d="M74.7601 96.55L74.04 94.55L75.22 96.3C75.2421 96.3281 75.2582 96.3605 75.2672 96.395C75.2761 96.4296 75.2779 96.4656 75.2723 96.5009C75.2668 96.5362 75.254 96.57 75.2349 96.6001C75.2157 96.6302 75.1905 96.6561 75.1609 96.6761C75.1313 96.6961 75.0979 96.7097 75.0627 96.7162C75.0276 96.7227 74.9915 96.7219 74.9567 96.7138C74.9219 96.7057 74.8892 96.6905 74.8605 96.6693C74.8319 96.648 74.8078 96.621 74.79 96.59C74.7765 96.5798 74.7661 96.5659 74.7601 96.55Z" fill="#FFC60B"/>
<path d="M86.42 119.3L77 100.38L86.89 119.11C86.9071 119.14 86.9178 119.173 86.9215 119.207C86.9252 119.242 86.9218 119.276 86.9114 119.309C86.9011 119.342 86.8841 119.372 86.8615 119.398C86.8389 119.424 86.8112 119.445 86.78 119.46C86.719 119.492 86.6479 119.498 86.5823 119.477C86.5167 119.457 86.4619 119.411 86.43 119.35L86.42 119.3Z" fill="#FFC60B"/>
<path d="M100.74 103.12L99.3901 101.5L101.1 102.74C101.147 102.79 101.173 102.856 101.173 102.925C101.173 102.994 101.147 103.06 101.1 103.11C101.052 103.156 100.987 103.182 100.92 103.182C100.853 103.182 100.789 103.156 100.74 103.11C100.74 103.113 100.74 103.117 100.74 103.12Z" fill="#FFC60B"/>
<path d="M98.16 100.71L74.0601 77.38L98.5201 100.38C98.5446 100.404 98.564 100.433 98.5773 100.465C98.5905 100.497 98.5974 100.531 98.5974 100.565C98.5974 100.599 98.5905 100.634 98.5773 100.665C98.564 100.697 98.5446 100.726 98.5201 100.75C98.47 100.797 98.4038 100.823 98.3351 100.823C98.2663 100.823 98.2002 100.797 98.1501 100.75L98.16 100.71Z" fill="#FFC60B"/>
<path d="M88.0001 108.69L87.0801 106.79L88.4401 108.4C88.4872 108.45 88.5134 108.516 88.5134 108.585C88.5134 108.654 88.4872 108.72 88.4401 108.77C88.4159 108.795 88.387 108.814 88.3553 108.827C88.3235 108.84 88.2895 108.847 88.2551 108.847C88.2206 108.847 88.1865 108.84 88.1548 108.827C88.123 108.814 88.0943 108.795 88.0701 108.77L88.0001 108.69Z" fill="#FFC60B"/>
<path d="M86.08 105.73L79.78 95.88L86.52 105.43C86.5588 105.489 86.5732 105.56 86.5601 105.629C86.547 105.698 86.5076 105.76 86.45 105.8C86.3934 105.837 86.325 105.851 86.2583 105.84C86.1917 105.829 86.1316 105.793 86.09 105.74L86.08 105.73Z" fill="#FFC60B"/>
<path d="M67.0001 115.02L62.3901 90.86L67.5101 114.92C67.5174 114.953 67.5179 114.988 67.5118 115.022C67.5056 115.055 67.4929 115.088 67.4743 115.116C67.4557 115.145 67.4317 115.17 67.4035 115.19C67.3753 115.209 67.3436 115.223 67.3101 115.23C67.2766 115.237 67.2421 115.238 67.2084 115.232C67.1747 115.225 67.1425 115.213 67.1137 115.194C67.0849 115.176 67.0601 115.152 67.0406 115.123C67.0211 115.095 67.0073 115.064 67.0001 115.03V115.02Z" fill="#FFC60B"/>
<path d="M79.1301 119.28L78.5701 117.28L79.5701 119.11C79.5877 119.14 79.5991 119.173 79.6036 119.208C79.6082 119.243 79.6056 119.278 79.5963 119.311C79.587 119.345 79.571 119.376 79.5493 119.403C79.5276 119.431 79.5007 119.453 79.47 119.47C79.4087 119.503 79.337 119.511 79.27 119.492C79.2029 119.474 79.1456 119.43 79.11 119.37C79.11 119.37 79.1401 119.3 79.1301 119.28Z" fill="#FFC60B"/>
<path d="M77.77 116.02L67.21 88.77L78.21 115.82C78.2231 115.852 78.2298 115.885 78.2299 115.919C78.23 115.954 78.2233 115.987 78.2103 116.019C78.1973 116.051 78.1783 116.079 78.1542 116.103C78.1301 116.128 78.1015 116.147 78.0699 116.16C78.0386 116.175 78.0046 116.183 77.9701 116.183C77.9356 116.184 77.9012 116.178 77.8693 116.165C77.8373 116.151 77.8085 116.132 77.7845 116.107C77.7605 116.082 77.7419 116.052 77.7299 116.02H77.77Z" fill="#FFC60B"/>
<path d="M101.89 73.56L99.8301 73.1L101.94 73.04C101.974 73.0387 102.008 73.0441 102.04 73.0559C102.072 73.0677 102.102 73.0858 102.127 73.109C102.152 73.1322 102.172 73.1602 102.187 73.1912C102.201 73.2223 102.209 73.2558 102.21 73.29C102.211 73.325 102.206 73.3599 102.193 73.3926C102.181 73.4253 102.162 73.4551 102.138 73.4803C102.113 73.5055 102.084 73.5256 102.052 73.5393C102.02 73.553 101.985 73.56 101.95 73.56H101.89Z" fill="#FFC60B"/>
<path d="M98.3701 73.23L77.3 70.78L98.42 72.71C98.4899 72.7176 98.5541 72.7521 98.5989 72.8063C98.6438 72.8604 98.6657 72.9299 98.66 73C98.6576 73.0338 98.6483 73.0668 98.6327 73.0969C98.6171 73.127 98.5956 73.1536 98.5694 73.1751C98.5432 73.1966 98.5129 73.2125 98.4803 73.222C98.4478 73.2314 98.4137 73.2342 98.3801 73.23H98.3701Z" fill="#FFC60B"/>
<path d="M103 101.83C102.998 101.644 103.051 101.461 103.153 101.305C103.254 101.149 103.398 101.026 103.569 100.951C103.739 100.876 103.928 100.853 104.112 100.885C104.295 100.917 104.465 101.002 104.601 101.129C104.736 101.257 104.831 101.421 104.874 101.602C104.917 101.783 104.906 101.973 104.842 102.148C104.778 102.323 104.664 102.475 104.515 102.585C104.365 102.696 104.186 102.76 104 102.77C103.872 102.778 103.743 102.76 103.622 102.716C103.501 102.673 103.39 102.605 103.296 102.517C103.202 102.429 103.128 102.322 103.077 102.204C103.026 102.086 103 101.959 103 101.83Z" fill="#FFC60B"/>
<path d="M70.5201 114.97C70.5101 114.77 70.5601 114.572 70.6637 114.401C70.7674 114.231 70.9198 114.095 71.1014 114.011C71.283 113.928 71.4855 113.901 71.6826 113.934C71.8798 113.966 72.0627 114.057 72.2076 114.195C72.3524 114.333 72.4528 114.511 72.4956 114.706C72.5384 114.901 72.5217 115.105 72.4477 115.29C72.3737 115.476 72.2458 115.635 72.0804 115.747C71.9151 115.86 71.7199 115.92 71.5201 115.92C71.2633 115.92 71.0162 115.822 70.83 115.645C70.6439 115.468 70.5329 115.226 70.5201 114.97Z" fill="#FFC60B"/>
<path d="M104.14 106.38C104.138 106.255 104.173 106.132 104.241 106.027C104.309 105.922 104.407 105.84 104.522 105.791C104.637 105.742 104.764 105.728 104.887 105.751C105.009 105.774 105.123 105.833 105.212 105.921C105.301 106.009 105.362 106.121 105.387 106.243C105.412 106.366 105.4 106.493 105.353 106.609C105.306 106.724 105.225 106.823 105.121 106.893C105.017 106.963 104.895 107 104.77 107C104.605 107 104.446 106.935 104.328 106.819C104.21 106.703 104.143 106.545 104.14 106.38Z" fill="#FFC60B"/>
<path d="M73.4099 118.21C73.4099 118.085 73.4469 117.964 73.5161 117.86C73.5853 117.756 73.6837 117.676 73.7988 117.628C73.9139 117.58 74.0406 117.568 74.1628 117.592C74.285 117.616 74.3973 117.676 74.4854 117.765C74.5735 117.853 74.6335 117.965 74.6578 118.087C74.6821 118.209 74.6697 118.336 74.622 118.451C74.5743 118.566 74.4936 118.665 74.39 118.734C74.2864 118.803 74.1645 118.84 74.0399 118.84C73.8728 118.84 73.7126 118.774 73.5945 118.655C73.4763 118.537 73.4099 118.377 73.4099 118.21Z" fill="#FFC60B"/>
<path d="M92.4701 78.98C92.4681 78.855 92.5034 78.7322 92.5714 78.6273C92.6394 78.5224 92.7371 78.4401 92.852 78.3909C92.9669 78.3416 93.0939 78.3277 93.2168 78.3509C93.3396 78.3741 93.4528 78.4333 93.5419 78.521C93.631 78.6087 93.692 78.7209 93.7171 78.8434C93.7423 78.9658 93.7304 79.093 93.683 79.2087C93.6356 79.3244 93.5549 79.4234 93.4511 79.4931C93.3473 79.5628 93.2251 79.6 93.1001 79.6C92.9347 79.6 92.776 79.535 92.6581 79.419C92.5402 79.303 92.4727 79.1453 92.4701 78.98Z" fill="#FFC60B"/>
<path d="M89.7401 102.93C89.7381 102.805 89.7734 102.682 89.8414 102.577C89.9094 102.472 90.007 102.39 90.122 102.341C90.2369 102.292 90.3639 102.278 90.4867 102.301C90.6096 102.324 90.7228 102.383 90.8119 102.471C90.901 102.559 90.962 102.671 90.9871 102.793C91.0123 102.916 91.0004 103.043 90.953 103.159C90.9056 103.274 90.8249 103.373 90.7211 103.443C90.6173 103.513 90.4951 103.55 90.3701 103.55C90.2047 103.55 90.046 103.485 89.9281 103.369C89.8103 103.253 89.7427 103.095 89.7401 102.93Z" fill="#FFC60B"/>
<path d="M88.1599 99.46L81.6899 92.01L88.5499 99.11C88.597 99.1601 88.6233 99.2262 88.6233 99.295C88.6233 99.3637 88.597 99.4299 88.5499 99.48C88.5257 99.5045 88.497 99.524 88.4652 99.5372C88.4335 99.5505 88.3993 99.5573 88.3649 99.5573C88.3305 99.5573 88.2965 99.5505 88.2647 99.5372C88.233 99.524 88.2041 99.5045 88.1799 99.48L88.1599 99.46Z" fill="#FFC60B"/>
<path d="M28.88 112.63L27.07 112.5L26.15 110.94L25.48 112.62L23.71 113.01L25.09 114.17L24.92 115.97L26.45 115.02L28.12 115.74L27.68 113.98L28.88 112.63Z" fill="#FFC60B"/>
<path d="M26.1899 112.68L29.5399 108.92L27.0899 113.32L26.1899 112.68Z" fill="#FFC60B"/>
<path d="M0.130153 99.27L4.41012 96.99L0.410122 99.72C0.351478 99.7588 0.280003 99.7732 0.210903 99.7601C0.141803 99.7471 0.0805369 99.7076 0.0401264 99.65C0.00184808 99.5929 -0.0122364 99.523 0.000880788 99.4556C0.0139979 99.3881 0.053257 99.3286 0.110134 99.29L0.130153 99.27Z" fill="#FFC60B"/>
<path d="M33.6801 78.95L40.6801 75.04L34.0001 79.38C33.943 79.4183 33.8731 79.4324 33.8056 79.4193C33.7381 79.4062 33.6787 79.3669 33.6401 79.31C33.6013 79.2514 33.5868 79.1799 33.5999 79.1108C33.613 79.0417 33.6525 78.9804 33.7101 78.94L33.6801 78.95Z" fill="#FFC60B"/>
<path d="M5.60992 95.95L7.53992 95.09L5.87994 96.38C5.82986 96.4271 5.7637 96.4534 5.69495 96.4534C5.62619 96.4534 5.56003 96.4271 5.50995 96.38C5.48546 96.3558 5.46603 96.327 5.45276 96.2952C5.43949 96.2635 5.43262 96.2294 5.43262 96.195C5.43262 96.1606 5.43949 96.1265 5.45276 96.0947C5.46603 96.063 5.48546 96.0342 5.50995 96.01C5.51825 95.9908 5.53235 95.9747 5.55029 95.9639C5.56823 95.9532 5.58907 95.9483 5.60992 95.95Z" fill="#FFC60B"/>
<path d="M27.6401 82.6L29.5601 81.74L27.91 83.05C27.8557 83.0937 27.7862 83.1141 27.7168 83.1066C27.6474 83.0991 27.5838 83.0644 27.54 83.01C27.4963 82.9556 27.476 82.8861 27.4835 82.8167C27.491 82.7473 27.5257 82.6838 27.5801 82.64L27.6401 82.6Z" fill="#FFC60B"/>
<path d="M30.4901 80.88L32.4201 80.02L30.7601 81.32C30.7101 81.3671 30.6439 81.3934 30.5752 81.3934C30.5064 81.3934 30.4402 81.3671 30.3902 81.32C30.3686 81.2926 30.3528 81.2612 30.3436 81.2276C30.3345 81.194 30.3321 81.159 30.3368 81.1245C30.3415 81.0899 30.3531 81.0567 30.3708 81.0267C30.3886 80.9968 30.4121 80.9707 30.4401 80.95L30.4901 80.88Z" fill="#FFC60B"/>
<path d="M8.63011 94.12L26.8801 83.38L8.88011 94.58C8.8513 94.6029 8.81799 94.6193 8.78233 94.6284C8.74668 94.6374 8.70948 94.6388 8.67326 94.6324C8.63705 94.626 8.6026 94.6119 8.57219 94.5912C8.54179 94.5706 8.51611 94.5437 8.49687 94.5123C8.47764 94.481 8.4653 94.4459 8.46062 94.4094C8.45594 94.3729 8.45901 94.3359 8.46971 94.3007C8.48041 94.2655 8.49849 94.233 8.52269 94.2053C8.54689 94.1776 8.57666 94.1553 8.61009 94.14L8.63011 94.12Z" fill="#FFC60B"/>
<path d="M27 127.38L29.44 123.19L27.44 127.62C27.4116 127.682 27.3601 127.73 27.2966 127.754C27.233 127.779 27.1624 127.777 27.1 127.75C27.0394 127.713 26.9953 127.654 26.9767 127.585C26.9582 127.516 26.9665 127.443 27 127.38Z" fill="#FFC60B"/>
<path d="M44.93 92.49L48.8 85.49L45.4 92.71C45.3632 92.762 45.3092 92.7993 45.2475 92.8152C45.1858 92.8312 45.1204 92.825 45.063 92.7974C45.0055 92.7699 44.9597 92.7229 44.9335 92.6649C44.9074 92.6068 44.9025 92.5413 44.92 92.48L44.93 92.49Z" fill="#FFC60B"/>
<path d="M30 121.69L31.19 119.95L30.4699 121.95C30.4432 122.014 30.3931 122.065 30.3298 122.093C30.2666 122.121 30.1951 122.123 30.13 122.1C30.097 122.09 30.0665 122.073 30.0404 122.051C30.0142 122.028 29.9929 122.001 29.9779 121.97C29.9629 121.939 29.9544 121.905 29.9531 121.871C29.9517 121.836 29.9574 121.802 29.9699 121.77L30 121.69Z" fill="#FFC60B"/>
<path d="M41.7101 98.77L42.9001 97.03L42.1701 99.03C42.1583 99.0622 42.1402 99.0917 42.117 99.1169C42.0937 99.1421 42.0658 99.1625 42.0347 99.1769C42.0036 99.1913 41.9699 99.1994 41.9357 99.2008C41.9015 99.2022 41.8673 99.1968 41.8351 99.185C41.8029 99.1732 41.7734 99.1551 41.7482 99.1319C41.723 99.1087 41.7026 99.0807 41.6882 99.0496C41.6738 99.0185 41.6657 98.9849 41.6643 98.9506C41.6629 98.9164 41.6683 98.8821 41.6801 98.85L41.7101 98.77Z" fill="#FFC60B"/>
<path d="M43.23 95.8L44.42 94.06L43.7 96.06C43.6752 96.1256 43.6258 96.179 43.5624 96.2089C43.4989 96.2387 43.4263 96.2427 43.36 96.22C43.3267 96.2089 43.296 96.1911 43.2698 96.1677C43.2435 96.1444 43.2223 96.1159 43.2073 96.0842C43.1924 96.0524 43.1841 96.0179 43.1828 95.9828C43.1815 95.9478 43.1874 95.9128 43.2 95.88L43.23 95.8Z" fill="#FFC60B"/>
<path d="M31.5699 118.55L41.4599 99.82L32.0399 118.82C32.008 118.882 31.9528 118.929 31.8862 118.951C31.8196 118.973 31.7472 118.967 31.6849 118.935C31.6226 118.903 31.5754 118.848 31.5538 118.781C31.5323 118.715 31.5381 118.642 31.5699 118.58V118.55Z" fill="#FFC60B"/>
<path d="M58.9299 138.06L59.0699 133.21L59.45 138.04C59.4531 138.109 59.4303 138.178 59.3859 138.231C59.3416 138.285 59.2789 138.32 59.21 138.33C59.1416 138.333 59.0746 138.31 59.0226 138.265C58.9706 138.221 58.9375 138.158 58.9299 138.09V138.06Z" fill="#FFC60B"/>
<path d="M58 98.85L58.06 90.85L58.52 98.85C58.5227 98.8849 58.5184 98.9201 58.5071 98.9534C58.4959 98.9866 58.4781 99.0172 58.4547 99.0433C58.4314 99.0695 58.403 99.0906 58.3712 99.1055C58.3395 99.1204 58.3051 99.1288 58.27 99.13C58.2359 99.1313 58.2018 99.1259 58.1697 99.1141C58.1377 99.1022 58.1083 99.0842 58.0832 99.061C58.0581 99.0378 58.0378 99.0098 58.0236 98.9788C58.0093 98.9477 58.0013 98.9142 58 98.88V98.85Z" fill="#FFC60B"/>
<path d="M58.77 131.65L58.98 129.55L59.29 131.64C59.2972 131.674 59.2971 131.71 59.2897 131.744C59.2822 131.778 59.2676 131.811 59.2469 131.839C59.2261 131.867 59.1997 131.891 59.1692 131.908C59.1387 131.926 59.1049 131.937 59.07 131.94C59.0013 131.949 58.9319 131.931 58.876 131.89C58.8202 131.849 58.7823 131.788 58.77 131.72V131.65Z" fill="#FFC60B"/>
<path d="M58.1401 105.9L58.3501 103.81L58.6601 105.89C58.6658 105.924 58.6646 105.959 58.6566 105.993C58.6485 106.027 58.6338 106.058 58.6133 106.086C58.5928 106.114 58.5669 106.138 58.5372 106.156C58.5074 106.173 58.4744 106.185 58.4401 106.19C58.3714 106.199 58.302 106.181 58.2462 106.14C58.1904 106.099 58.1524 106.038 58.1401 105.97V105.9Z" fill="#FFC60B"/>
<path d="M58.0601 102.57L58.2701 100.47L58.5801 102.56C58.5853 102.594 58.5838 102.629 58.5756 102.663C58.5673 102.696 58.5526 102.728 58.5322 102.756C58.5117 102.783 58.4861 102.807 58.4565 102.825C58.427 102.843 58.3942 102.855 58.36 102.86C58.3259 102.865 58.2911 102.864 58.2575 102.856C58.224 102.847 58.1923 102.833 58.1645 102.812C58.1366 102.792 58.1131 102.766 58.0952 102.736C58.0772 102.707 58.0653 102.674 58.0601 102.64V102.57Z" fill="#FFC60B"/>
<path d="M58.6899 128.12L58.4299 106.94L59.21 128.11C59.2113 128.144 59.2059 128.178 59.194 128.21C59.1822 128.242 59.1641 128.272 59.1409 128.297C59.1177 128.322 59.0898 128.342 59.0587 128.356C59.0277 128.371 58.9941 128.379 58.96 128.38C58.9255 128.383 58.8908 128.378 58.8581 128.367C58.8254 128.356 58.7955 128.338 58.7701 128.314C58.7447 128.291 58.7245 128.262 58.7107 128.231C58.6969 128.199 58.6898 128.165 58.6899 128.13V128.12Z" fill="#FFC60B"/>
<path d="M17.36 102.22L19.0601 100.99L17.7101 102.61C17.6878 102.636 17.6604 102.658 17.6298 102.674C17.5991 102.689 17.5656 102.699 17.5312 102.702C17.4969 102.704 17.4624 102.7 17.4296 102.69C17.3968 102.679 17.3664 102.662 17.3401 102.64C17.3138 102.618 17.2922 102.59 17.2765 102.56C17.2608 102.529 17.2512 102.496 17.2484 102.461C17.2456 102.427 17.2497 102.392 17.2603 102.359C17.2708 102.327 17.2877 102.296 17.3101 102.27L17.36 102.22Z" fill="#FFC60B"/>
<path d="M19.9301 99.81L44.4001 76.88L20.29 100.19C20.24 100.237 20.1738 100.263 20.105 100.263C20.0363 100.263 19.9701 100.237 19.92 100.19C19.8956 100.166 19.8761 100.137 19.8629 100.105C19.8496 100.074 19.8428 100.039 19.8428 100.005C19.8428 99.9706 19.8496 99.9365 19.8629 99.9047C19.8761 99.873 19.8956 99.8442 19.92 99.82L19.9301 99.81Z" fill="#FFC60B"/>
<path d="M30 107.89L31.35 106.28L30.44 108.17C30.425 108.202 30.4037 108.231 30.3774 108.255C30.3512 108.279 30.3204 108.298 30.287 108.31C30.2535 108.322 30.2181 108.327 30.1826 108.326C30.147 108.324 30.1122 108.315 30.08 108.3C30.0192 108.268 29.9729 108.214 29.9506 108.149C29.9283 108.084 29.9317 108.013 29.96 107.95L30 107.89Z" fill="#FFC60B"/>
<path d="M31.9399 104.92L38.6699 95.37L32.3699 105.21C32.3515 105.239 32.3276 105.264 32.2996 105.284C32.2716 105.303 32.2399 105.317 32.2065 105.325C32.173 105.332 32.1385 105.333 32.1048 105.327C32.071 105.321 32.0388 105.308 32.0099 105.29C31.981 105.272 31.956 105.248 31.9364 105.22C31.9167 105.192 31.9028 105.16 31.8954 105.127C31.8879 105.093 31.8872 105.059 31.8931 105.025C31.899 104.991 31.9115 104.959 31.9299 104.93L31.9399 104.92Z" fill="#FFC60B"/>
<path d="M48.5499 120.38L56.1099 90.38L49.0599 120.55C49.0411 120.617 48.9979 120.675 48.9387 120.712C48.8795 120.749 48.8085 120.763 48.7399 120.75C48.7062 120.742 48.6744 120.727 48.6465 120.706C48.6187 120.686 48.5952 120.66 48.5775 120.63C48.5597 120.6 48.5482 120.567 48.5435 120.533C48.5387 120.498 48.5409 120.463 48.5499 120.43V120.38Z" fill="#FFC60B"/>
<path d="M39.71 118.91L40.71 117.08L40.14 119.08C40.1318 119.114 40.117 119.145 40.0964 119.173C40.0758 119.201 40.0498 119.225 40.02 119.242C39.9901 119.26 39.9571 119.272 39.9227 119.276C39.8884 119.281 39.8534 119.279 39.8199 119.27C39.7529 119.249 39.6967 119.203 39.6631 119.141C39.6295 119.08 39.6212 119.008 39.64 118.94C39.6601 118.924 39.6843 118.913 39.71 118.91Z" fill="#FFC60B"/>
<path d="M41.06 115.66L52.12 88.6L41.55 115.85C41.5378 115.882 41.5193 115.912 41.4955 115.937C41.4717 115.962 41.4432 115.983 41.4115 115.997C41.3799 116.01 41.3457 116.018 41.3111 116.019C41.2765 116.019 41.2421 116.013 41.21 116C41.1462 115.973 41.0951 115.923 41.0672 115.86C41.0393 115.797 41.0367 115.725 41.06 115.66Z" fill="#FFC60B"/>
<path d="M19.0001 78.09L21.0801 77.76L19.1501 78.6C19.0848 78.6244 19.0127 78.6236 18.948 78.5977C18.8833 78.5718 18.8305 78.5227 18.8001 78.46C18.7854 78.4279 18.7773 78.3933 18.7764 78.358C18.7756 78.3228 18.7818 78.2877 18.7949 78.2549C18.808 78.2222 18.8277 78.1925 18.8526 78.1676C18.8776 78.1427 18.9073 78.1231 18.9401 78.11L19.0001 78.09Z" fill="#FFC60B"/>
<path d="M22.4199 77.11L37.1799 73.11L22.5699 77.59C22.5036 77.6092 22.4325 77.6023 22.3711 77.5707C22.3097 77.5391 22.2628 77.4852 22.2399 77.42C22.2291 77.3872 22.2249 77.3525 22.2276 77.3181C22.2303 77.2836 22.2399 77.2501 22.2557 77.2193C22.2715 77.1886 22.2933 77.1613 22.3198 77.1391C22.3463 77.1169 22.3769 77.1002 22.4099 77.09L22.4199 77.11Z" fill="#FFC60B"/>
<path d="M15.45 101.31C15.4402 101.124 15.376 100.945 15.2654 100.796C15.1547 100.646 15.0026 100.532 14.8279 100.468C14.6531 100.404 14.4633 100.393 14.2822 100.436C14.1011 100.479 13.9366 100.574 13.8091 100.709C13.6816 100.845 13.5967 101.015 13.5651 101.198C13.5334 101.382 13.5564 101.571 13.6311 101.741C13.7057 101.912 13.8288 102.056 13.9851 102.158C14.1413 102.259 14.3239 102.312 14.51 102.31C14.6386 102.31 14.766 102.284 14.8841 102.233C15.0023 102.182 15.1087 102.108 15.1968 102.014C15.2849 101.92 15.3528 101.809 15.3964 101.688C15.4399 101.567 15.4582 101.438 15.45 101.31Z" fill="#FFC60B"/>
<path d="M48.88 123.2C48.8797 123.014 48.825 122.833 48.7227 122.678C48.6203 122.523 48.4748 122.401 48.3041 122.328C48.1334 122.255 47.945 122.233 47.7622 122.266C47.5794 122.299 47.4103 122.385 47.2757 122.513C47.141 122.641 47.0468 122.805 47.0047 122.986C46.9626 123.167 46.9744 123.356 47.0387 123.53C47.103 123.705 47.217 123.856 47.3665 123.966C47.516 124.076 47.6945 124.14 47.88 124.15C48.0089 124.157 48.1378 124.137 48.2589 124.093C48.38 124.048 48.4907 123.979 48.5843 123.89C48.6778 123.801 48.7524 123.694 48.8032 123.576C48.854 123.457 48.8802 123.329 48.88 123.2Z" fill="#FFC60B"/>
<path d="M14.31 105.89C14.3119 105.765 14.2764 105.641 14.208 105.536C14.1395 105.431 14.0412 105.349 13.9257 105.3C13.8102 105.251 13.6827 105.238 13.5596 105.262C13.4365 105.286 13.3233 105.346 13.2346 105.435C13.1459 105.523 13.0857 105.636 13.0617 105.76C13.0377 105.883 13.051 106.01 13.0999 106.126C13.1489 106.241 13.2311 106.34 13.3363 106.408C13.4414 106.476 13.5645 106.512 13.69 106.51C13.8536 106.507 14.0098 106.441 14.1255 106.326C14.2412 106.21 14.3074 106.054 14.31 105.89Z" fill="#FFC60B"/>
<path d="M47.61 126.89C47.612 126.765 47.5768 126.642 47.5088 126.537C47.4408 126.432 47.3431 126.35 47.2281 126.301C47.1132 126.252 46.9862 126.238 46.8634 126.261C46.7405 126.284 46.6274 126.343 46.5382 126.431C46.4491 126.519 46.3881 126.631 46.363 126.753C46.3378 126.876 46.3497 127.003 46.3971 127.119C46.4445 127.234 46.5252 127.333 46.629 127.403C46.7328 127.473 46.855 127.51 46.98 127.51C47.1454 127.51 47.3042 127.445 47.422 127.329C47.5399 127.213 47.6074 127.055 47.61 126.89Z" fill="#FFC60B"/>
<path d="M16.0801 79.6C16.0608 79.4479 15.9866 79.308 15.8716 79.2066C15.7565 79.1052 15.6084 79.0492 15.4551 79.0492C15.3017 79.0492 15.1536 79.1052 15.0385 79.2066C14.9235 79.308 14.8494 79.4479 14.8301 79.6C14.8494 79.7522 14.9235 79.892 15.0385 79.9934C15.1536 80.0948 15.3017 80.1508 15.4551 80.1508C15.6084 80.1508 15.7565 80.0948 15.8716 79.9934C15.9866 79.892 16.0608 79.7522 16.0801 79.6Z" fill="#FFC60B"/>
<path d="M28.7101 102.38C28.7121 102.255 28.6766 102.131 28.6081 102.026C28.5397 101.921 28.4414 101.839 28.3258 101.79C28.2103 101.741 28.0828 101.728 27.9597 101.752C27.8366 101.776 27.7234 101.836 27.6347 101.925C27.546 102.013 27.4858 102.127 27.4618 102.25C27.4378 102.373 27.4511 102.5 27.5 102.616C27.549 102.731 27.6312 102.83 27.7364 102.898C27.8415 102.966 27.9647 103.002 28.0901 103C28.2538 102.997 28.41 102.931 28.5257 102.816C28.6414 102.7 28.7075 102.544 28.7101 102.38Z" fill="#FFC60B"/>
<path d="M29.91 98.6L36.7601 91.5L30.29 98.95C30.24 98.9971 30.1738 99.0233 30.105 99.0233C30.0363 99.0233 29.9701 98.9971 29.92 98.95C29.8956 98.9258 29.8761 98.897 29.8629 98.8652C29.8496 98.8335 29.8428 98.7994 29.8428 98.765C29.8428 98.7306 29.8496 98.6965 29.8629 98.6647C29.8761 98.633 29.8956 98.6042 29.92 98.58L29.91 98.6Z" fill="#FFC60B"/>
</g>
<defs>
<clipPath id="clip0_42_1926">
<rect width="117.1" height="138.33" fill="white"/>
</clipPath>
</defs>
</svg>
