<svg width="116" height="48" viewBox="0 0 116 48" fill="none" xmlns="http://www.w3.org/2000/svg">
<g clip-path="url(#clip0_21_7093)">
<path d="M5.17715 0C15.9115 0 26.6459 0 37.3763 0C37.4449 0.131442 37.34 0.205377 37.2714 0.279313C36.779 0.825617 36.3311 1.40478 35.9396 2.02913C35.4029 2.88761 35.0761 3.81591 34.9953 4.83458C34.955 5.31927 35.1245 5.7136 35.415 6.07917C35.7338 6.48582 36.0849 6.86371 36.3513 7.31144C36.6459 7.81666 36.7306 8.34654 36.5934 8.90927C36.5127 9.23787 36.5651 9.19269 36.8315 9.19269C39.507 9.19269 42.1825 9.19269 44.8621 9.19269C47.2753 9.19269 49.6885 9.19269 52.1058 9.19269C52.6022 9.19269 52.6264 9.22555 52.5618 9.72257C52.5134 10.0881 52.4569 10.4537 52.4085 10.8193C52.4004 10.8727 52.3681 10.9343 52.4206 10.9713C52.473 11.0041 52.5214 10.9466 52.5658 10.9261C53.3528 10.5153 54.176 10.2031 55.0396 9.99777C55.8548 9.80472 56.678 9.70614 57.5133 9.6856C59.1437 9.64042 60.7417 9.87044 62.3236 10.2648C62.6182 10.3387 62.6182 10.3387 62.7353 10.0471C63.8773 7.17178 65.4552 4.5717 67.4366 2.21808C67.9289 1.6307 68.4656 1.08029 68.9782 0.513443C69.1799 0.291636 69.41 0.20127 69.7126 0.20127C77.1742 0.205377 84.6399 0.205377 92.1015 0.205377C92.1418 0.205377 92.1822 0.20127 92.2225 0.205377C92.3194 0.213592 92.4445 0.188947 92.4929 0.299851C92.5373 0.406647 92.4445 0.492906 92.3799 0.570949C91.8634 1.18297 91.3872 1.83197 90.9514 2.5056C89.6681 4.48133 88.8368 6.63369 88.5139 8.98732C88.4332 9.57059 88.3767 10.1539 88.3848 10.7453C88.3848 10.8111 88.3646 10.8809 88.409 10.9466C88.4857 10.9261 88.5381 10.8686 88.5906 10.8234C90.0837 9.54183 91.8109 8.79015 93.7318 8.46976C94.664 8.31368 95.6043 8.27671 96.5445 8.30957C96.8876 8.32189 97.2265 8.35475 97.5696 8.38761C97.8399 8.41226 97.9005 8.50262 97.8036 8.76551C97.5332 9.48844 97.2951 10.2196 97.1135 10.9754C96.8714 11.994 96.7584 13.025 96.827 14.0684C96.9118 15.3746 97.2992 16.5904 97.9691 17.7076C97.9973 17.7528 98.0135 17.8227 98.074 17.8227C98.1466 17.8227 98.1547 17.7405 98.1749 17.6871C98.8407 16.2002 99.2967 14.6557 99.4945 13.0332C99.5873 12.2569 99.6357 11.4806 99.6034 10.7002C99.5752 10.0224 99.5066 9.34878 99.3976 8.68336C99.3411 8.34654 99.4097 8.26439 99.7527 8.26439C103.869 8.26439 107.985 8.26439 112.101 8.26439C112.412 8.26439 112.456 8.29725 112.489 8.6012C112.561 9.26663 112.606 9.93616 112.678 10.6016C112.791 11.6572 112.832 12.717 112.804 13.7767C112.767 15.1815 112.465 16.5247 111.879 17.8021C111.359 18.9358 110.624 19.9175 109.813 20.8458C108.647 22.1808 107.432 23.4705 106.173 24.711C105.221 25.6475 104.256 26.5676 103.276 27.4713C102.505 28.1819 101.734 28.8966 100.959 29.6072C100.624 29.9153 100.285 30.2151 99.9545 30.5273C99.3492 31.1024 98.7802 31.7185 98.4735 32.5236C98.421 32.6591 98.3888 32.7988 98.3686 32.9384C98.296 33.4806 98.639 33.8955 99.2483 34.0064C99.8214 34.1091 100.39 34.0351 100.947 33.8955C102.323 33.5587 103.651 33.0699 104.971 32.5605C107.658 31.5172 110.221 30.1987 112.779 28.872C113.724 28.3832 114.668 27.882 115.608 27.3809C115.713 27.3275 115.83 27.2248 115.943 27.3111C116.064 27.4056 115.992 27.5534 115.963 27.6767C115.459 29.8331 114.987 31.9978 114.373 34.1255C113.824 36.0314 113.183 37.9045 112.287 39.6789C111.488 41.2644 110.511 42.7267 109.22 43.9508C108.106 45.0105 106.835 45.8156 105.402 46.3578C104.216 46.8055 102.993 47.0848 101.73 47.167C101.222 47.1998 100.713 47.2204 100.201 47.2122C100.12 47.2122 100.035 47.2122 99.9545 47.2122C99.6841 47.2122 99.4138 47.2122 99.1474 47.2122C99.0788 47.2122 99.0062 47.2122 98.9376 47.2122C97.2144 47.2409 95.5518 46.937 93.9699 46.2305C93.0902 45.8361 92.2871 45.3186 91.5728 44.6573C90.229 43.4127 89.3977 41.86 88.8892 40.1061C88.7036 39.4612 88.5583 38.8081 88.4695 38.1427C88.4332 37.8757 88.4211 37.8675 88.1507 37.8675C84.0951 37.8675 80.0394 37.8675 75.9838 37.8675C75.8748 37.8675 75.7699 37.8757 75.6609 37.8511C75.5439 37.8223 75.5076 37.7525 75.552 37.6375C75.5681 37.6005 75.5842 37.5635 75.6085 37.5307C76.2945 36.4915 76.7424 35.3455 77.1016 34.1543C77.4728 32.922 77.7271 31.6651 77.8683 30.3835C77.9611 29.5251 78.0136 28.6666 77.9773 27.804C77.9329 26.7401 77.8038 25.6886 77.3679 24.7028C77.0774 24.0415 76.6617 23.4911 75.9878 23.1912C75.7134 23.068 75.4269 23.0105 75.1282 23.0064C74.9143 23.0064 74.9022 23.0187 74.9547 23.2323C75.1524 24.0579 75.3098 24.8917 75.4147 25.7338C75.6528 27.6767 75.6771 29.6113 75.1565 31.5172C74.7328 33.0699 73.9862 34.4295 72.8684 35.5878C71.6254 36.8776 70.1363 37.7443 68.502 38.3891C66.9725 38.993 65.3825 39.3667 63.7603 39.6132C63.7118 39.6214 63.6675 39.6296 63.619 39.6296C63.4616 39.6214 63.4132 39.5639 63.4374 39.4078C63.4576 39.2928 63.4939 39.1819 63.5262 39.071C63.8773 37.8757 64.18 36.6722 64.3212 35.4317C64.4261 34.528 64.4463 33.6203 64.3051 32.7166C64.301 32.6838 64.301 32.6468 64.2647 32.6057C64.1356 32.7084 64.0105 32.8152 63.8894 32.9302C62.5012 34.2693 60.9919 35.4399 59.293 36.3436C57.9007 37.0871 56.4238 37.5841 54.8499 37.7484C53.151 37.925 51.5126 37.6621 49.9226 37.046C48.1631 36.3641 46.6337 35.3126 45.2132 34.0803C44.9105 33.8174 44.6159 33.5505 44.3294 33.267C44.1801 33.1192 44.1519 33.1192 44.0106 33.2835C43.4941 33.8708 42.9493 34.4295 42.348 34.9265C40.8629 36.1505 39.2084 37.0337 37.34 37.4773C37.1422 37.5224 36.9445 37.5512 36.7427 37.5512C31.2423 37.5512 25.742 37.5512 20.2376 37.5512C19.7937 37.5512 19.7533 37.4855 19.8784 37.0583C20.0721 36.4052 20.3465 35.7891 20.6371 35.1811C21.0931 34.22 21.6016 33.2835 22.0092 32.2976C22.4127 31.3159 22.7275 30.3055 22.8001 29.2334C22.8687 28.2517 22.7275 27.2947 22.3724 26.3746C22.2876 26.1569 22.2029 25.9433 22.0979 25.7338C22.0334 25.6106 21.9527 25.5531 21.8114 25.5531C20.2779 25.5531 18.7444 25.5572 17.211 25.5531C17.0455 25.5531 17.0132 25.6229 17.0495 25.7708C17.2392 26.5635 17.2675 27.3686 17.2311 28.1778C17.1868 29.18 16.9285 30.133 16.5048 31.0407C15.8994 32.3469 14.9834 33.4067 13.9019 34.3186C12.4087 35.5796 10.7017 36.4545 8.89787 37.1404C6.83574 37.925 4.70096 38.4138 2.5218 38.7013C2.17475 38.7465 1.8277 38.7958 1.48065 38.8204C1.40397 38.8245 1.30712 38.8533 1.2587 38.767C1.21027 38.6767 1.2708 38.5945 1.31923 38.5206C1.60575 38.1139 1.89227 37.7073 2.17475 37.3006C3.16748 35.8507 4.10371 34.3637 4.87853 32.7823C5.41121 31.6897 5.85511 30.5602 6.0811 29.3525C6.29095 28.2353 6.26673 27.1386 5.8309 26.0706C5.56859 25.4339 5.15294 24.9123 4.71307 24.3988C3.57506 23.0639 2.80025 21.5441 2.52987 19.782C2.36442 18.6811 2.42495 17.5885 2.61058 16.4959C2.88903 14.8611 3.44593 13.3126 4.07546 11.7928C4.2611 11.345 4.26513 11.345 3.78087 11.345C2.66304 11.345 1.54925 11.345 0.431422 11.345C0.358784 11.345 0.282109 11.3492 0.209471 11.3409C-0.000374481 11.3245 -0.0286229 11.2916 0.003661 11.0739C0.108584 10.6673 0.3265 10.3099 0.500026 9.93205C1.23448 8.326 1.98105 6.72406 2.72358 5.12211C3.20784 4.07469 3.68806 3.03137 4.17635 1.98395C4.44673 1.40478 4.71711 0.82151 4.98345 0.238238C5.03187 0.135549 5.07626 0.045183 5.17715 0Z" fill="#FE0000"/>
<path d="M99.1113 47.1957C99.3938 47.1957 99.6803 47.1957 99.9627 47.1957C99.9789 47.2039 99.9829 47.2121 99.9748 47.2204C99.9708 47.2286 99.9627 47.2327 99.9587 47.2327C99.6762 47.2327 99.3938 47.2327 99.1113 47.2327C99.0952 47.2245 99.0912 47.2204 99.0952 47.2121C99.1033 47.1998 99.1073 47.1957 99.1113 47.1957Z" fill="#FEADAD"/>
<path d="M99.9629 47.2286C99.9629 47.2163 99.9629 47.2039 99.9629 47.1957C100.044 47.1957 100.124 47.1957 100.205 47.1957C100.205 47.208 100.205 47.2204 100.205 47.2286C100.124 47.2286 100.044 47.2286 99.9629 47.2286Z" fill="#FED5D5"/>
<path d="M99.1114 47.1957C99.1114 47.208 99.1114 47.2204 99.1114 47.2286C99.0428 47.2286 98.9783 47.2286 98.9097 47.2286C98.9097 47.2163 98.9097 47.208 98.9097 47.1957C98.9783 47.1957 99.0469 47.1957 99.1114 47.1957Z" fill="#FED8D8"/>
<path d="M110.754 33.7312C110.649 34.8649 110.391 35.9123 109.951 36.9022C108.72 39.6871 106.625 41.5314 103.881 42.6692C102.868 43.0882 101.815 43.3634 100.726 43.4743C98.5464 43.6961 96.452 43.4168 94.5715 42.1927C93.1268 41.2521 92.0816 39.9664 91.557 38.2823C91.2019 37.1445 91.3875 36.0355 91.8233 34.9552C92.1906 34.0392 92.7111 33.2013 93.147 32.3223C93.4012 31.813 93.6393 31.2954 93.7442 30.7286C93.9823 29.4182 93.7281 28.2106 92.9734 27.118C92.5336 26.4814 91.9969 25.9392 91.4682 25.3805C90.6248 24.4933 89.85 23.5568 89.3375 22.4272C88.8895 21.4455 88.6111 20.4186 88.49 19.3424C88.3569 18.1389 88.4456 16.9601 88.8815 15.8264C89.4747 14.2943 90.5764 13.2715 92.0332 12.6143C92.4246 12.4376 92.8282 12.2939 93.2398 12.183C93.2963 12.1666 93.3528 12.1583 93.4294 12.1419C93.2882 12.6143 93.1833 13.0661 93.1308 13.5303C93.0461 14.323 93.1308 15.0952 93.3205 15.8633C93.6272 17.112 94.1962 18.2498 94.7692 19.3876C95.3342 20.5131 95.9274 21.6262 96.3552 22.8133C96.6538 23.643 96.8838 24.4933 96.9363 25.3846C96.9403 25.438 96.9524 25.4914 96.9645 25.5366C97.0251 25.5613 97.0493 25.5161 97.0775 25.4914C99.1558 23.5773 100.899 21.4003 102.041 18.7674C102.61 17.4489 102.994 16.0769 103.199 14.6516C103.353 13.5837 103.373 12.5157 103.349 11.4395C103.345 11.267 103.397 11.2465 103.546 11.2465C105.282 11.2506 107.017 11.2506 108.752 11.2465C108.889 11.2465 108.954 11.2629 108.966 11.4272C109.014 12.2199 109.031 13.0127 108.958 13.8055C108.797 15.6456 108.272 17.3708 107.388 18.9851C106.404 20.7883 105.08 22.3163 103.611 23.7211C102.203 25.0642 100.673 26.2595 99.176 27.4959C98.1671 28.3298 97.1623 29.1636 96.2987 30.1576C95.6611 30.8929 95.088 31.6815 94.9105 32.6714C94.6966 33.8339 94.7813 34.9593 95.5561 35.9246C96.0364 36.5202 96.6901 36.8447 97.4044 37.046C98.4415 37.3417 99.4988 37.354 100.56 37.2555C103.639 36.9761 106.521 36.015 109.273 34.6225C109.773 34.3678 110.253 34.0762 110.754 33.7312Z" fill="#FDFDFD"/>
<path d="M7.51397 34.1584C7.82066 33.723 8.11525 33.2917 8.36949 32.8357C8.90621 31.8746 9.27747 30.8559 9.41064 29.7551C9.55592 28.5392 9.39046 27.3522 9.03131 26.1856C8.63179 24.8917 8.03454 23.6841 7.46554 22.4642C7.0055 21.4784 6.54949 20.4884 6.29122 19.4205C6.11366 18.6852 6.08137 17.9418 6.1298 17.186C6.17419 16.4918 6.23068 15.8017 6.33964 15.1117C6.57774 13.5795 7.13867 12.1748 7.92962 10.8562C8.49459 9.9115 9.12816 9.01606 9.74155 8.10829C9.77383 8.059 9.81015 8.00971 9.85858 7.93577C8.38967 7.93577 6.93689 7.93577 5.48816 7.93577C5.4478 7.84952 5.49623 7.80023 5.52044 7.74683C6.21454 6.19828 6.91672 4.64974 7.60678 3.09708C7.66731 2.96153 7.73995 2.91635 7.88927 2.91635C13.3816 2.92046 18.8779 2.92046 24.3702 2.91635C24.5316 2.91635 24.5881 2.92046 24.5195 3.11762C23.9908 4.62509 23.4743 6.13667 22.9618 7.64825C22.9133 7.7879 22.8447 7.82898 22.7035 7.82898C20.2217 7.84541 17.7399 7.86595 15.258 7.88648C14.2694 7.8947 13.2807 7.91113 12.292 7.92345C12.1951 7.92345 12.1306 7.95631 12.0741 8.03436C11.3557 9.02427 10.8715 10.1169 10.702 11.3409C10.3146 14.1505 11.1499 16.6232 12.7561 18.866C13.0668 19.2973 13.4219 19.6916 13.8335 20.0407C14.3702 19.2973 14.9029 18.5538 15.4356 17.8144C15.4598 17.7816 15.4921 17.7528 15.5082 17.7158C15.706 17.2681 16.053 17.1942 16.5131 17.1983C18.6438 17.2229 20.7745 17.2106 22.9093 17.2106C22.982 17.2106 23.0546 17.2106 23.1272 17.2106C23.1514 17.2887 23.103 17.338 23.0788 17.3872C22.3847 18.8249 21.6866 20.2625 20.9965 21.7002C20.936 21.8234 20.8674 21.8604 20.7342 21.8604C18.7366 21.8563 16.7391 21.8604 14.7415 21.8521C14.5518 21.8521 14.5276 21.8973 14.5559 22.0822C14.6447 22.6613 14.7012 23.2446 14.7375 23.832C14.7859 24.5755 14.794 25.323 14.7375 26.0665C14.568 28.3749 13.8255 30.4123 12.0458 31.9526C11.0127 32.8481 9.81419 33.4395 8.53898 33.879C8.26053 33.9735 7.97805 34.0557 7.6996 34.146C7.64714 34.1625 7.59064 34.1748 7.51397 34.1584Z" fill="#FDFDFD"/>
<path d="M63.1718 26.7031C63.1194 27.1509 63.0023 27.5698 62.8611 27.9847C62.0015 30.4533 60.3187 32.1415 58.0144 33.2218C56.7231 33.8256 55.355 34.1378 53.9386 34.1542C51.941 34.1789 50.0887 33.6901 48.4947 32.4167C47.1307 31.3241 46.2388 29.9276 45.9281 28.1613C45.6093 26.3335 45.8232 24.5508 46.3236 22.7887C46.9652 20.5213 48.0467 18.484 49.5479 16.6931C51.2429 14.6681 53.3534 13.2962 55.92 12.717C57.2558 12.4172 58.5956 12.3843 59.899 12.8649C61.0169 13.2756 61.8361 14.0109 62.167 15.2144C62.4051 16.0852 62.3001 16.9437 62.0499 17.7898C61.5052 19.6135 60.4156 21.0389 58.9305 22.1684C57.3889 23.3391 55.6456 24.0784 53.8175 24.6412C52.4696 25.056 51.0976 25.3682 49.7053 25.59C49.5681 25.6105 49.5278 25.6516 49.5883 25.8036C49.9918 26.8223 50.7384 27.4959 51.6787 27.9724C52.5665 28.4242 53.5189 28.6419 54.5035 28.7569C55.3066 28.8473 56.1137 28.8637 56.9168 28.7857C59.1363 28.5762 61.2348 27.9847 63.1194 26.7237C63.1315 26.7155 63.1436 26.7114 63.1718 26.7031Z" fill="#FDFDFD"/>
<path d="M68.2237 34.3802C68.3892 33.8955 68.5425 33.4478 68.6676 32.9919C68.93 32.0184 69.0712 31.0284 69.0066 30.018C68.9259 28.7816 68.5143 27.6479 67.8888 26.5882C67.2916 25.5654 66.5652 24.6371 65.8953 23.6636C65.0761 22.4724 64.3941 21.2196 64.0712 19.7902C63.8453 18.7962 63.8009 17.7939 63.8816 16.7794C64.0269 14.9433 64.4344 13.1729 65.1164 11.4683C65.8065 9.75546 66.7629 8.20281 67.8606 6.73642C68.6757 5.64792 69.5514 4.61281 70.4231 3.57361C70.4876 3.49556 70.5562 3.47092 70.6491 3.47092C73.9501 3.47092 77.2551 3.47092 80.5562 3.47092C80.6974 3.47092 80.7337 3.49556 80.6651 3.63933C79.9549 5.16323 79.2487 6.68302 78.5505 8.21103C78.486 8.34657 78.3972 8.33425 78.2923 8.33425C75.2374 8.33425 72.1866 8.33836 69.1317 8.32604C68.938 8.32604 68.8694 8.39586 68.8089 8.55606C68.3448 9.79243 68.0018 11.0576 67.8444 12.372C67.6911 13.6494 67.7032 14.9186 68.1188 16.155C68.3771 16.919 68.7887 17.5762 69.4304 18.0732C69.5393 18.1595 69.6281 18.1718 69.7572 18.1307C70.4876 17.8925 70.9194 17.3585 71.1858 16.6602C71.4118 16.0688 71.5127 15.4444 71.67 14.8365C71.7709 14.4545 71.7669 14.4545 72.1462 14.4545C73.9703 14.4545 75.7903 14.4545 77.6143 14.4504C77.7676 14.4504 77.8201 14.4627 77.7676 14.6476C77.3923 15.9784 77.0332 17.3092 76.674 18.6442C76.6377 18.7756 76.5772 18.8044 76.4521 18.8044C74.6765 18.8003 72.9009 18.8044 71.1253 18.7962C70.9558 18.7962 70.9033 18.8537 70.8629 19.0057C70.5078 20.4228 70.6813 21.8029 71.1253 23.1666C71.4441 24.1442 71.8557 25.0889 72.1301 26.083C72.7273 28.2353 72.4852 30.2644 71.21 32.1169C70.4755 33.1931 69.4626 33.9119 68.2237 34.3802Z" fill="#FDFDFD"/>
<path d="M90.3341 29.4551C90.0557 30.0137 89.7934 30.5436 89.5311 31.0735C89.0387 32.0675 88.5424 33.0615 88.0541 34.0597C87.9895 34.1911 87.9169 34.2445 87.7635 34.2445C85.4229 34.2404 83.0824 34.2404 80.7418 34.2445C80.5844 34.2445 80.536 34.224 80.5965 34.0473C81.101 32.5933 81.3269 31.0899 81.2745 29.5496C81.2341 28.3543 81.0364 27.1795 80.7781 26.0171C80.4634 24.6 80.0961 23.1952 79.8338 21.7699C79.5473 20.2131 79.4061 18.6399 79.515 17.0626C79.6845 14.5899 80.1244 12.1705 81.0808 9.87031C81.8031 8.13281 82.8201 6.60481 84.2083 5.33968C84.9952 4.62497 85.8588 4.02527 86.8394 3.51593C86.6538 3.87329 86.4843 4.18546 86.3269 4.50174C85.6166 5.91885 85.0799 7.39756 84.8055 8.96665C84.6522 9.83745 84.5957 10.7124 84.6118 11.5955C84.6441 13.2262 84.9468 14.8158 85.2656 16.4054C85.4996 17.5843 85.7296 18.7673 85.8749 19.9625C86.0363 21.3098 86.0686 22.6653 85.9556 24.0167C85.8023 25.8035 85.3987 27.541 84.8015 29.2292C84.7208 29.4592 84.7208 29.4592 84.9548 29.4592C86.6618 29.4592 88.3688 29.4592 90.0799 29.4592C90.1444 29.4551 90.2171 29.4551 90.3341 29.4551Z" fill="#FDFDFD"/>
<path d="M36.7914 34.9594C37.0738 34.4624 37.3119 33.9778 37.4976 33.4643C38.0504 31.9158 37.8729 30.4329 37.1465 28.9871C36.642 27.9889 36.0004 27.0853 35.4072 26.1447C34.8301 25.2246 34.3136 24.2757 34.0271 23.216C33.7607 22.2302 33.7405 21.2402 33.91 20.238C34.132 18.94 34.4831 17.6872 35.0521 16.5001C35.6372 15.2884 36.4201 14.2246 37.3321 13.2511C37.5177 13.0539 37.6751 12.7828 37.9052 12.6883C38.1392 12.5898 38.4459 12.6596 38.7203 12.6596C41.8276 12.6596 44.935 12.6596 48.0383 12.6555C48.2078 12.6555 48.2723 12.7048 48.3086 12.865C48.4418 13.4934 48.2885 14.0644 47.9979 14.6107C47.7114 15.1529 47.3522 15.6458 47.0213 16.1592C46.6299 16.7712 46.2667 17.3915 46.1093 18.1185C46.0246 18.5252 46.0084 18.9318 46.073 19.3385C46.0932 19.4576 46.0568 19.474 45.9519 19.474C44.4669 19.4699 42.9818 19.4699 41.4927 19.474C41.3353 19.474 41.3595 19.3836 41.3595 19.2933C41.3595 17.8351 41.3555 16.3769 41.3636 14.9187C41.3636 14.701 41.299 14.6641 41.1053 14.6682C40.4717 14.6805 39.8422 14.6723 39.2086 14.6723C39.1239 14.6723 39.0512 14.66 39.0028 14.7791C38.6114 15.7608 38.4217 16.7753 38.4984 17.8351C38.571 18.8497 38.8817 19.8026 39.3216 20.7145C39.8422 21.7989 40.508 22.797 41.1053 23.8362C41.4967 24.5181 41.8801 25.204 42.0819 25.9763C42.2917 26.7813 42.2877 27.5946 42.1707 28.412C41.9649 29.8661 41.4402 31.1887 40.6089 32.384C39.8583 33.4643 38.9261 34.3269 37.6751 34.7705C37.4128 34.8609 37.1303 34.943 36.7914 34.9594Z" fill="#FDFDFD"/>
<path d="M30.25 12.951C29.9232 13.6821 29.6528 14.3681 29.451 15.0869C29.221 15.9084 29.1161 16.7423 29.1887 17.5925C29.2493 18.2949 29.4712 18.9562 29.7698 19.5929C30.0886 20.2747 30.4801 20.9196 30.7101 21.6385C31.2024 23.1993 30.9764 24.6904 30.1855 26.0993C29.9474 26.5264 29.673 26.929 29.4187 27.3438C29.1685 27.7505 28.9991 28.19 28.9143 28.6624C28.882 28.8267 28.9022 28.9006 29.104 28.9006C30.3065 28.8883 31.5131 28.8965 32.7157 28.8924C32.8731 28.8924 32.9215 28.9047 32.8691 29.0937C32.4413 30.597 32.0216 32.1045 31.606 33.612C31.5696 33.7434 31.5131 33.7886 31.3719 33.7886C29.3259 33.7845 27.284 33.7845 25.238 33.7886C25.1008 33.7886 25.0483 33.7763 25.1048 33.612C25.4398 32.6919 25.6375 31.743 25.6577 30.7654C25.6819 29.6975 25.4761 28.6665 25.1331 27.6642C24.7981 26.6784 24.3664 25.7255 24.0395 24.7355C23.7166 23.7621 23.5472 22.768 23.6279 21.7411C23.7126 20.6609 24.0677 19.6586 24.5843 18.718C25.4236 17.1859 26.5334 15.8797 27.8288 14.7296C28.5673 14.0806 29.3582 13.4932 30.25 12.951Z" fill="#FDFDFD"/>
<path d="M30.9481 3.18732C30.7867 3.58164 30.6495 3.939 30.589 4.32511C30.4962 4.90427 30.589 5.44647 30.8271 5.97634C31.0046 6.37477 31.2266 6.74856 31.4526 7.11824C32.4332 8.71608 31.84 10.5111 30.3267 11.4188C29.5236 11.8994 28.6479 12.1746 27.744 12.3636C27.4171 12.4334 27.0862 12.4827 26.7391 12.5484C26.7633 12.4457 26.8319 12.4129 26.8844 12.3636C27.2072 12.0514 27.518 11.7351 27.7561 11.349C28.1677 10.6754 28.0749 10.1578 27.4494 9.68546C27.1306 9.44722 26.7956 9.22952 26.4849 8.98717C26.1661 8.74072 25.8957 8.44909 25.8271 8.0219C25.7827 7.73848 25.8473 7.4797 25.9603 7.22914C26.2872 6.49389 26.7956 5.8983 27.3727 5.36021C28.3937 4.38672 29.6164 3.74184 30.9481 3.18732Z" fill="#FDFDFD"/>
<path d="M54.7289 16.9601C55.0799 16.9519 55.4108 16.9929 55.7377 17.0792C56.6134 17.3174 57.0089 17.9993 56.8031 18.8989C56.6296 19.6711 56.222 20.316 55.7135 20.891C54.7652 21.9631 53.6231 22.7271 52.239 23.0927C51.5691 23.2693 50.8952 23.3145 50.2051 23.2118C50.0518 23.1872 50.0437 23.1338 50.0437 23.0064C50.0679 21.8645 50.3585 20.7925 50.871 19.782C51.2745 18.9851 51.787 18.2745 52.4892 17.72C53.155 17.1983 53.9016 16.9395 54.7289 16.9601Z" fill="#FE0000"/>
</g>
<defs>
<clipPath id="clip0_21_7093">
<rect width="116" height="47.2286" fill="white"/>
</clipPath>
</defs>
</svg>
