<svg width="55" height="76" viewBox="0 0 55 76" fill="none" xmlns="http://www.w3.org/2000/svg">
<path d="M7.30779 23.2117C7.3411 23.3973 7.41065 23.5744 7.51242 23.7328C7.6142 23.8912 7.74618 24.0276 7.90075 24.1345C8.05533 24.2413 8.2295 24.3162 8.41307 24.3551C8.59664 24.3939 8.78602 24.3958 8.9703 24.3606L12.1221 23.7338L9.14343 24.9527C8.79438 25.1005 8.51802 25.3815 8.37512 25.7342C8.23223 26.0868 8.23449 26.482 8.38146 26.8329C8.52844 27.1839 8.80802 27.4616 9.15876 27.6053C9.50951 27.7489 9.90272 27.7466 10.2518 27.5989L13.2303 26.3454L10.5288 28.1561C10.3742 28.2613 10.2416 28.3961 10.1388 28.5527C10.0359 28.7094 9.96488 28.8849 9.9295 29.0692C9.89413 29.2535 9.89521 29.443 9.93267 29.6268C9.97014 29.8107 10.0433 29.9855 10.1479 30.1409C10.2525 30.2964 10.3865 30.4297 10.5423 30.5331C10.6982 30.6365 10.8727 30.7079 11.056 30.7435C11.2393 30.779 11.4278 30.7779 11.6107 30.7403C11.7936 30.7026 11.9674 30.6291 12.1221 30.5239L14.7889 28.7132L12.503 31.0115C12.2366 31.2793 12.087 31.6424 12.087 32.0212C12.087 32.3999 12.2366 32.7631 12.503 33.0309C12.7694 33.2987 13.1307 33.4492 13.5075 33.4492C13.8842 33.4492 14.2455 33.2987 14.5119 33.0309L16.7977 30.7328L14.9967 33.4487C14.79 33.7674 14.7177 34.1555 14.7957 34.5278C14.8736 34.9 15.0954 35.2258 15.4123 35.4335C15.7292 35.6413 16.1152 35.714 16.4855 35.6357C16.8557 35.5573 17.1799 35.3343 17.3865 35.0157L19.1529 32.3347L17.9407 35.3292C17.8367 35.5053 17.7717 35.7018 17.7499 35.9054C17.7282 36.109 17.7501 36.3149 17.8145 36.5092C17.8789 36.7034 17.9841 36.8815 18.1229 37.0313C18.2618 37.1811 18.4312 37.2991 18.6194 37.3773C18.8076 37.4556 19.0103 37.4922 19.2138 37.4847C19.4174 37.4772 19.6169 37.4257 19.799 37.3338C19.981 37.2419 20.1412 37.1117 20.2688 36.9521C20.3964 36.7924 20.4883 36.6071 20.5383 36.4086L21.7851 33.4141L21.1617 36.6175C21.1034 36.8083 21.0856 37.0094 21.1093 37.2075C21.133 37.4057 21.1978 37.5965 21.2994 37.768C21.4011 37.9394 21.5374 38.0876 21.6995 38.2028C21.8616 38.318 22.046 38.3976 22.2407 38.4368C22.4353 38.4759 22.636 38.4736 22.8297 38.43C23.0234 38.3863 23.2059 38.3024 23.3653 38.1835C23.5247 38.0645 23.6576 37.9132 23.7553 37.7395C23.853 37.5657 23.9133 37.3732 23.9325 37.1746L24.556 33.9711L24.556 37.2094C24.556 37.5881 24.7056 37.9512 24.9719 38.219C25.2382 38.4867 25.5994 38.6372 25.976 38.6372C26.3526 38.6372 26.7137 38.4867 26.98 38.219C27.2463 37.9512 27.3959 37.5881 27.3959 37.2094L27.3959 33.9711L28.054 37.1746C28.1292 37.543 28.3461 37.8669 28.6574 38.0755C28.9687 38.2841 29.3493 38.3608 29.7165 38.2889C30.0786 38.2053 30.3952 37.9857 30.6013 37.6749C30.8074 37.3641 30.8874 36.9857 30.8249 36.6175L30.2015 33.4141L31.4136 36.4086C31.5596 36.7612 31.8371 37.0424 32.1865 37.192C32.536 37.3417 32.9299 37.3479 33.2839 37.2094C33.4574 37.1371 33.615 37.031 33.7474 36.897C33.8798 36.7631 33.9845 36.6041 34.0554 36.4292C34.1262 36.2544 34.1619 36.067 34.1602 35.8782C34.1586 35.6893 34.1197 35.5028 34.0459 35.3292L32.8336 32.3347L34.6 35.0157C34.8115 35.3285 35.1352 35.5467 35.5033 35.6246C35.8714 35.7025 36.2553 35.634 36.5742 35.4335C36.7291 35.3285 36.8617 35.1938 36.9647 35.0372C37.0677 34.8805 37.1389 34.7051 37.1743 34.5207C37.2097 34.3364 37.2085 34.1468 37.1709 33.9628C37.1333 33.7789 37.06 33.6041 36.9552 33.4487L35.1888 30.7328L37.4747 33.0309C37.7411 33.2987 38.1024 33.4492 38.4791 33.4492C38.8558 33.4492 39.2172 33.2987 39.4836 33.0309C39.7499 32.7631 39.8996 32.3999 39.8996 32.0212C39.8996 31.6424 39.7499 31.2793 39.4836 31.0115L37.1976 28.7132L39.8645 30.5239C40.0191 30.6293 40.1928 30.7029 40.3757 30.7407C40.5587 30.7785 40.7473 30.7797 40.9307 30.7441C41.114 30.7085 41.2886 30.637 41.4444 30.5335C41.6003 30.43 41.7342 30.2966 41.8387 30.1409C41.9435 29.9855 42.0168 29.8108 42.0544 29.6268C42.092 29.4429 42.0932 29.2533 42.0578 29.069C42.0224 28.8846 41.9512 28.7092 41.8482 28.5525C41.7452 28.3959 41.6126 28.2612 41.4578 28.1561L38.7563 26.3454L41.7348 27.5989C41.9075 27.6732 42.0931 27.7122 42.2809 27.7139C42.4688 27.7155 42.655 27.6797 42.829 27.6085C43.0029 27.5372 43.1611 27.4319 43.2944 27.2988C43.4276 27.1657 43.5332 27.0074 43.6051 26.8329C43.7449 26.4813 43.7436 26.0889 43.6015 25.7382C43.4594 25.3875 43.1876 25.106 42.8431 24.9527L39.8645 23.7338L43.0163 24.3606C43.3883 24.4345 43.7743 24.3569 44.0893 24.1447C44.4043 23.9324 44.6226 23.6029 44.6961 23.2289C44.7696 22.8549 44.6922 22.467 44.4811 22.1503C44.27 21.8336 43.9425 21.614 43.5704 21.5401L40.4187 20.9134L43.6397 20.9134C44.0163 20.9134 44.3775 20.7631 44.6438 20.4953C44.9101 20.2276 45.0597 19.8645 45.0597 19.4858C45.0509 19.11 44.8985 18.7519 44.6341 18.4861C44.3696 18.2202 44.0135 18.0669 43.6397 18.058L40.4187 18.058L43.5704 17.4313C43.768 17.412 43.9594 17.3514 44.1322 17.2532C44.305 17.155 44.4555 17.0214 44.5738 16.8611C44.6921 16.7008 44.7756 16.5173 44.819 16.3225C44.8624 16.1278 44.8647 15.9261 44.8258 15.7304C44.7869 15.5347 44.7076 15.3493 44.5931 15.1864C44.4785 15.0234 44.3312 14.8863 44.1606 14.784C43.9901 14.6818 43.8001 14.6168 43.603 14.593C43.4059 14.5691 43.206 14.5871 43.0163 14.6457L39.8645 15.2724L42.8431 14.0189C43.185 13.8727 43.4563 13.5976 43.5988 13.2526C43.7412 12.9075 43.7435 12.52 43.6051 12.1733C43.4591 11.8208 43.1816 11.5396 42.8321 11.39C42.4826 11.2403 42.0888 11.2341 41.7348 11.3725L38.7563 12.626L41.4578 10.8153C41.6126 10.7103 41.7452 10.5756 41.8482 10.4189C41.9512 10.2623 42.0224 10.0868 42.0578 9.90247C42.0932 9.7181 42.092 9.52851 42.0544 9.34458C42.0168 9.16066 41.9435 8.98609 41.8387 8.83069C41.622 8.52362 41.2957 8.31227 40.928 8.24092C40.5603 8.16957 40.1793 8.24356 39.8645 8.4475L37.1976 10.2582L39.4836 7.96017C39.6155 7.82756 39.7201 7.67012 39.7914 7.49686C39.8628 7.32359 39.8996 7.13777 39.8996 6.95023C39.8996 6.7627 39.8628 6.57708 39.7914 6.40382C39.7201 6.23056 39.6155 6.07312 39.4836 5.94051C39.3517 5.8079 39.195 5.70262 39.0227 5.63085C38.8504 5.55909 38.6656 5.52225 38.4791 5.52225C38.2926 5.52225 38.1079 5.55909 37.9355 5.63085C37.7632 5.70262 37.6066 5.8079 37.4747 5.94051L35.1888 8.23858L36.9552 5.52267C37.0639 5.37169 37.1406 5.19978 37.1804 5.01771C37.2202 4.83564 37.2224 4.64721 37.1867 4.46428C37.1509 4.28136 37.0781 4.10783 36.9727 3.95443C36.8674 3.80103 36.7317 3.67113 36.5742 3.57272C36.4197 3.46733 36.2459 3.39352 36.063 3.35573C35.88 3.31794 35.6915 3.31675 35.5081 3.35233C35.3247 3.38791 35.1501 3.45964 34.9943 3.56316C34.8385 3.66668 34.7045 3.80005 34.6 3.9557L32.8336 6.63696L34.0459 3.64222C34.1191 3.47109 34.1575 3.28701 34.1587 3.1007C34.16 2.91439 34.124 2.72977 34.0529 2.55769C33.9819 2.38561 33.8771 2.22952 33.7451 2.09884C33.613 1.96816 33.4562 1.86549 33.2839 1.79683C33.1112 1.72257 32.9256 1.68349 32.7378 1.68186C32.5499 1.68022 32.3637 1.71602 32.1897 1.78727C32.0158 1.85852 31.8576 1.9638 31.7243 2.09692C31.5911 2.23005 31.4855 2.38834 31.4136 2.56279L30.2015 5.55753L30.8249 2.38873C30.8972 2.01526 30.8219 1.62828 30.6149 1.30972C30.408 0.991158 30.0857 0.766125 29.7165 0.682545C29.5322 0.647351 29.3428 0.649262 29.1593 0.688072C28.9757 0.726883 28.8016 0.801834 28.6471 0.908676C28.4925 1.01552 28.3604 1.15215 28.2586 1.31057C28.1569 1.46899 28.0873 1.6461 28.054 1.83169L27.3959 5.00028L27.3959 1.76198C27.3959 1.38334 27.2463 1.0202 26.98 0.752468C26.7137 0.484734 26.3526 0.334423 25.976 0.334423C25.5994 0.334423 25.2382 0.484734 24.9719 0.752468C24.7056 1.0202 24.556 1.38334 24.556 1.76198L24.556 5.00028L23.9325 1.83169C23.9133 1.63303 23.853 1.44053 23.7553 1.26679C23.6576 1.09304 23.5247 0.94196 23.3653 0.823029C23.2059 0.704094 23.0234 0.619934 22.8297 0.576283C22.636 0.532631 22.4353 0.530338 22.2407 0.569481C22.046 0.608624 21.8616 0.688488 21.6995 0.803688C21.5374 0.918888 21.4011 1.06688 21.2994 1.23831C21.1978 1.40974 21.133 1.6008 21.1093 1.79896C21.0856 1.99712 21.1034 2.19794 21.1617 2.38873L21.7851 5.55753L20.5383 2.56279C20.3641 2.26767 20.0899 2.04557 19.766 1.9371C19.4421 1.82863 19.0902 1.84107 18.7748 1.97217C18.4593 2.10327 18.2014 2.34428 18.0482 2.65099C17.895 2.9577 17.8568 3.30954 17.9407 3.64222L19.2222 6.56726L17.4558 3.88599C17.2491 3.56738 16.925 3.34441 16.5548 3.26604C16.1846 3.18768 15.7986 3.26037 15.4817 3.46816C15.1648 3.67595 14.9429 4.00174 14.8649 4.37396C14.787 4.74618 14.8593 5.13436 15.066 5.45297L16.867 8.16908L14.5811 5.8708C14.3147 5.60298 13.9534 5.45254 13.5767 5.45254C13.2 5.45254 12.8386 5.60298 12.5722 5.8708C12.3059 6.13861 12.1562 6.50199 12.1562 6.88074C12.1562 7.25948 12.3059 7.62264 12.5722 7.89046L14.8582 10.1885L12.1913 8.378C11.8765 8.17406 11.4955 8.10007 11.1278 8.17142C10.7601 8.24277 10.4338 8.45391 10.2171 8.76098C10.1076 8.91477 10.0304 9.08925 9.99017 9.27402C9.94997 9.45879 9.94766 9.65002 9.9833 9.83574C10.019 10.0214 10.0918 10.1978 10.1976 10.3543C10.3033 10.5108 10.4396 10.644 10.5981 10.7458L13.2997 12.5563L10.321 11.3028C9.96697 11.1644 9.57315 11.1706 9.22366 11.3202C8.87417 11.4699 8.59681 11.7513 8.4508 12.1038C8.37753 12.275 8.33913 12.4591 8.33792 12.6454C8.33671 12.8317 8.37267 13.0163 8.44372 13.1884C8.51477 13.3605 8.61942 13.5165 8.75151 13.6472C8.8836 13.7779 9.04039 13.8806 9.21267 13.9492L12.1913 15.2027L9.03953 14.576C8.68929 14.5418 8.33893 14.6398 8.05634 14.8506C7.77375 15.0614 7.579 15.3701 7.50999 15.717C7.44098 16.064 7.5026 16.4242 7.68281 16.728C7.86301 17.0319 8.149 17.2577 8.48537 17.3616L11.6371 17.9886L8.41613 17.9886C8.04229 17.9974 7.68616 18.1505 7.42174 18.4164C7.15731 18.6822 7.00489 19.0403 6.99609 19.4161C6.99609 19.7947 7.14571 20.1579 7.41201 20.4256C7.67832 20.6934 8.03952 20.8437 8.41613 20.8437L11.6371 20.8437L8.48536 21.4706C8.29047 21.4991 8.10366 21.5679 7.93669 21.6729C7.76972 21.778 7.62624 21.9168 7.51549 22.0806C7.40474 22.2443 7.32907 22.4293 7.29331 22.624C7.25755 22.8187 7.26251 23.019 7.30779 23.2117Z" fill="#E89B23"/>
<path d="M24.2095 37.6971C24.0812 37.9994 23.8636 38.2547 23.5861 38.4284C23.3858 38.5663 23.1598 38.6619 22.9217 38.7098C22.6836 38.7577 22.4383 38.7567 22.2006 38.7068C21.7186 38.6061 21.2954 38.3184 21.0231 37.906C20.8234 37.6467 20.7139 37.3286 20.7114 37.0006C20.5155 37.2638 20.2521 37.4684 19.9494 37.5925C19.4918 37.7663 18.9869 37.7663 18.5294 37.5925C18.0834 37.3901 17.7263 37.0312 17.525 36.5828C17.4393 36.2754 17.4393 35.95 17.525 35.6426C17.2743 35.8502 16.9771 35.9936 16.6592 36.0604C16.4215 36.1103 16.1762 36.1115 15.9381 36.0636C15.7 36.0157 15.474 35.9199 15.2737 35.782C14.9295 35.556 14.6709 35.2203 14.539 34.8288C14.4071 34.4374 14.4097 34.0129 14.5464 33.6231C14.2677 33.8042 13.9431 33.9007 13.6113 33.9016C13.3715 33.8991 13.1347 33.8487 12.9146 33.753C12.6946 33.6573 12.4958 33.5185 12.3298 33.3445C11.9814 32.9924 11.7827 32.5179 11.7756 32.0213C11.7689 31.7025 11.853 31.3883 12.0181 31.1159C11.7123 31.2022 11.3887 31.2022 11.0829 31.1159C10.8437 31.08 10.6148 30.993 10.4117 30.8609C10.2086 30.7288 10.036 30.5547 9.90533 30.35C10.1578 30.0238 10.3118 29.6315 10.3492 29.22C10.3865 28.8084 10.3054 28.3948 10.1158 28.0281C9.92613 27.6614 9.63585 27.3571 9.27929 27.1514C8.92273 26.9458 8.51493 26.8475 8.10436 26.8679C8.00246 26.65 7.94962 26.4122 7.94962 26.1715C7.94962 25.9307 8.00246 25.6929 8.10436 25.475C8.20605 25.1683 8.39963 24.9008 8.65853 24.709C8.33881 24.6737 8.03103 24.5665 7.75799 24.3956C7.5544 24.2642 7.38111 24.0907 7.2497 23.8866C7.11828 23.6824 7.03177 23.4523 6.99602 23.2118C6.90847 22.8146 6.95654 22.3991 7.13248 22.0327C7.30841 21.6663 7.60196 21.3703 7.96579 21.1921C8.22965 20.2383 8.27958 19.2375 8.11187 18.262C7.94416 17.2865 7.56301 16.3606 6.99602 15.5512C7.0604 15.1509 7.2617 14.7857 7.5652 14.5187C7.8687 14.2517 8.2554 14.0996 8.65853 14.0886C8.41502 13.8819 8.22488 13.6192 8.10436 13.3226C8.00181 13.0988 7.94867 12.8552 7.94867 12.6087C7.94867 12.3623 8.00181 12.1189 8.10436 11.895C8.25487 11.5142 8.5271 11.1945 8.87828 10.9865C9.22946 10.7784 9.6396 10.6938 10.0439 10.7459C9.79089 10.4302 9.65293 10.037 9.65293 9.63162C9.65293 9.22622 9.79089 8.833 10.0439 8.51733C10.3163 8.10494 10.7394 7.81723 11.2215 7.71652C11.271 7.79727 11.3391 7.86479 11.4201 7.91353C11.501 7.96228 11.5925 7.99085 11.6866 7.99663C11.7808 8.00242 11.8751 7.98516 11.9614 7.94669C12.0476 7.90822 12.1234 7.84948 12.1824 7.77539C12.2413 7.70131 12.2817 7.61405 12.3001 7.52099C12.3185 7.42794 12.3144 7.33179 12.2881 7.24067C12.2618 7.14955 12.214 7.06625 12.149 6.99754C12.0839 6.92882 12.0034 6.87687 11.9142 6.846C11.9213 6.34938 12.1199 5.87493 12.4683 5.5228C12.6484 5.77741 12.9168 5.95506 13.2205 6.02118C13.5243 6.0873 13.8416 6.03696 14.1104 5.88006C14.3792 5.72316 14.58 5.47119 14.6734 5.17319C14.7669 4.87519 14.7464 4.55283 14.6157 4.2693C14.6772 3.94607 14.8235 3.6452 15.0395 3.39793C15.2555 3.15067 15.5333 2.966 15.8441 2.863C16.155 2.76 16.4877 2.74228 16.8076 2.81199C17.1275 2.88171 17.4229 3.03619 17.6635 3.25937C17.5766 2.94025 17.5766 2.60361 17.6635 2.2845C17.8648 1.83615 18.222 1.47695 18.6679 1.27456C19.1255 1.10075 19.6304 1.10075 20.088 1.27456C20.3833 1.41134 20.6438 1.6139 20.8499 1.86667C20.8524 1.53871 20.9619 1.22061 21.1616 0.961292C21.434 0.548901 21.8571 0.260983 22.3392 0.160271C22.8194 0.0747149 23.314 0.174236 23.7246 0.438896C23.9862 0.630505 24.1998 0.880978 24.3481 1.17021C24.4885 0.824269 24.7281 0.528076 25.0365 0.319668C25.3449 0.111263 25.7082 2.69268e-05 26.0798 2.69312e-05C26.4515 2.69357e-05 26.8146 0.111264 27.1231 0.319668C27.4315 0.528076 27.6712 0.824269 27.8116 1.17021C27.9925 0.805912 28.2861 0.510483 28.6484 0.328385C29.0106 0.146282 29.4219 0.0872195 29.8203 0.160271C29.8891 0.553971 30.0652 0.920937 30.3291 1.21994C30.5929 1.51895 30.9342 1.7384 31.3148 1.85392C31.6954 1.96943 32.1004 1.97638 32.4848 1.8741C32.8691 1.77184 33.2177 1.56425 33.4916 1.27456C33.8632 1.4427 34.1714 1.7262 34.3709 2.08345C34.5704 2.44069 34.6507 2.85286 34.6 3.25937C34.8395 3.02814 35.14 2.87099 35.4658 2.80668C35.946 2.72112 36.4407 2.82064 36.8512 3.0853C37.2614 3.35914 37.5477 3.78463 37.6478 4.2693C37.5172 4.55283 37.4966 4.87519 37.59 5.17319C37.6835 5.47119 37.8843 5.72316 38.1531 5.88006C38.4218 6.03696 38.7393 6.0873 39.043 6.02118C39.3468 5.95506 39.615 5.77741 39.7952 5.5228C40.0821 5.81631 40.2674 6.19499 40.3236 6.60266C40.3797 7.01032 40.3037 7.42516 40.1069 7.78602C40.4135 7.6808 40.7424 7.6592 41.0601 7.72311C41.3777 7.78702 41.6729 7.93434 41.9157 8.15008C42.1584 8.36582 42.34 8.64216 42.442 8.95131C42.5441 9.26046 42.563 9.5914 42.4967 9.91024C42.4289 10.219 42.2861 10.5061 42.0811 10.7459C42.4854 10.6938 42.8954 10.7784 43.2466 10.9865C43.5978 11.1945 43.8701 11.5142 44.0206 11.895C44.1232 12.1189 44.1763 12.3623 44.1763 12.6087C44.1763 12.8552 44.1232 13.0988 44.0206 13.3226C43.9248 13.3174 43.8291 13.3357 43.7419 13.3762C43.6547 13.4166 43.5787 13.4779 43.5205 13.5547C43.4622 13.6314 43.4236 13.7213 43.4078 13.8165C43.392 13.9117 43.3996 14.0093 43.43 14.1009C43.4604 14.1925 43.5126 14.2752 43.582 14.3419C43.6514 14.4085 43.736 14.457 43.8284 14.4832C43.9207 14.5095 44.0182 14.5128 44.1121 14.4926C44.2059 14.4723 44.2934 14.4292 44.367 14.3672C44.7566 14.6547 45.0277 15.0761 45.129 15.5512C45.1806 15.79 45.1826 16.0369 45.1349 16.2765C45.0872 16.5162 44.9909 16.7434 44.8518 16.9439C44.6844 17.2231 44.4451 17.4517 44.1592 17.6055C44.5033 17.7466 44.7977 17.9876 45.005 18.2977C45.2123 18.6078 45.323 18.9729 45.323 19.3465C45.323 19.7201 45.2123 20.0853 45.005 20.3953C44.7977 20.7054 44.5033 20.9464 44.1592 21.0876C44.4437 21.2274 44.6836 21.4445 44.8518 21.7143C44.989 21.9157 45.0843 22.1429 45.1319 22.3823C45.1795 22.6216 45.1786 22.8683 45.129 23.1072C45.0277 23.5823 44.7566 24.0037 44.367 24.2912C44.0837 24.4672 43.7635 24.5743 43.4318 24.6045C43.7108 24.7831 43.9191 25.0541 44.0206 25.3706C44.1225 25.5885 44.1754 25.8261 44.1754 26.0669C44.1754 26.3076 44.1225 26.5455 44.0206 26.7633C43.9357 26.9946 43.802 27.2047 43.6286 27.379C43.4552 27.5534 43.2462 27.6879 43.0162 27.7733C42.7104 27.8595 42.3869 27.8595 42.0811 27.7733C42.499 28.0503 42.7904 28.483 42.891 28.976C42.9917 29.469 42.8935 29.9819 42.6179 30.4021C42.3424 30.8222 41.912 31.1152 41.4216 31.2165C40.9313 31.3177 40.4209 31.2189 40.003 30.9419C39.6017 30.9802 39.2133 31.1049 38.8643 31.3076C38.5153 31.5104 38.2138 31.7865 37.9805 32.1169C37.7471 32.4474 37.5874 32.8244 37.512 33.2225C37.4367 33.6206 37.4476 34.0304 37.5439 34.4239C37.4438 34.9086 37.1575 35.3341 36.7473 35.6079C36.547 35.7459 36.321 35.8415 36.0829 35.8893C35.8448 35.9372 35.5996 35.9362 35.3619 35.8864C35.0439 35.8195 34.7468 35.6762 34.4961 35.4685C34.5636 35.7782 34.5636 36.0991 34.4961 36.4088C34.2948 36.8571 33.9376 37.2161 33.4916 37.4185C33.0341 37.5923 32.5291 37.5923 32.0716 37.4185C31.7689 37.2943 31.5055 37.0898 31.3096 36.8266C31.2802 37.2353 31.1189 37.6231 30.85 37.9311C30.5812 38.2391 30.2196 38.4504 29.8203 38.5328C29.4216 38.6118 29.0079 38.5555 28.6444 38.3727C28.2808 38.19 27.988 37.8912 27.8116 37.523C27.6855 37.8836 27.4511 38.1958 27.1409 38.4167C26.8307 38.6377 26.46 38.7563 26.0798 38.7563C25.6997 38.7563 25.3288 38.6377 25.0186 38.4167C24.7084 38.1958 24.4742 37.8836 24.3481 37.523L24.2095 37.6971ZM27.8461 33.9016L28.4696 37.0704C28.4904 37.1993 28.5368 37.3228 28.606 37.4334C28.6752 37.544 28.7657 37.6394 28.8723 37.7141C28.979 37.7888 29.0994 37.8412 29.2265 37.8682C29.3537 37.8952 29.485 37.8962 29.6125 37.8712C29.7422 37.8461 29.8657 37.7957 29.9759 37.7226C30.0862 37.6495 30.1811 37.5552 30.2551 37.4453C30.3291 37.3353 30.3807 37.2119 30.4072 37.0818C30.4336 36.9518 30.4343 36.8177 30.4092 36.6874L29.7857 33.5186C29.77 33.4683 29.7649 33.4154 29.7706 33.363C29.7762 33.3106 29.7925 33.2598 29.8185 33.214C29.8446 33.1683 29.8797 33.1284 29.9217 33.0969C29.9637 33.0654 30.0118 33.043 30.0628 33.031C30.164 32.9968 30.2743 33.0031 30.371 33.0485C30.4677 33.0938 30.5434 33.1749 30.5823 33.2748L31.8292 36.2695C31.9356 36.5051 32.1278 36.6905 32.3663 36.7877C32.6047 36.8849 32.8712 36.8863 33.1107 36.7917C33.3563 36.6973 33.5553 36.5099 33.6649 36.2695C33.7163 36.1485 33.7428 36.018 33.7428 35.8864C33.7428 35.7547 33.7163 35.6245 33.6649 35.5034L32.418 32.5089C32.3798 32.4064 32.3799 32.2935 32.4181 32.1911C32.4563 32.0887 32.53 32.0036 32.6258 31.9516C32.7049 31.8895 32.8025 31.8558 32.9029 31.8558C33.0033 31.8558 33.1008 31.8895 33.1799 31.9516L34.9809 34.6329C35.0435 34.749 35.1306 34.85 35.2362 34.9287C35.3417 35.0074 35.463 35.062 35.5917 35.0885C35.7204 35.1151 35.8534 35.113 35.9812 35.0824C36.109 35.0518 36.2287 34.9935 36.3317 34.9115C36.4468 34.8493 36.5449 34.7596 36.6174 34.6503C36.6899 34.541 36.7345 34.4155 36.7473 34.2847C36.7979 34.1696 36.824 34.0449 36.824 33.919C36.824 33.7931 36.7979 33.6686 36.7473 33.5534L34.9463 30.8373C34.8782 30.7607 34.8404 30.6617 34.8404 30.5589C34.8404 30.4561 34.8782 30.3569 34.9463 30.2803C34.9819 30.2423 35.0249 30.2121 35.0725 30.1914C35.1202 30.1708 35.1715 30.1602 35.2234 30.1602C35.2752 30.1602 35.3267 30.1708 35.3743 30.1914C35.4219 30.2121 35.4649 30.2423 35.5005 30.2803L37.7863 32.5437C37.8771 32.6418 37.987 32.72 38.1092 32.7735C38.2314 32.8269 38.3631 32.8544 38.4964 32.8544C38.6296 32.8544 38.7614 32.8269 38.8835 32.7735C39.0057 32.72 39.1156 32.6418 39.2063 32.5437C39.2985 32.4529 39.3718 32.3445 39.4218 32.2249C39.4717 32.1053 39.4974 31.977 39.4974 31.8473C39.4974 31.7175 39.4717 31.5892 39.4218 31.4696C39.3718 31.35 39.2985 31.2416 39.2063 31.1508L36.9204 28.8527C36.8827 28.8169 36.8527 28.7737 36.8322 28.7258C36.8116 28.6779 36.801 28.6263 36.801 28.5741C36.801 28.5219 36.8116 28.4703 36.8322 28.4223C36.8527 28.3744 36.8827 28.3313 36.9204 28.2955C37.005 28.2305 37.1085 28.1954 37.2149 28.1954C37.3213 28.1954 37.4247 28.2305 37.5093 28.2955L40.1761 30.1062C40.397 30.2525 40.6664 30.3054 40.9258 30.2533C41.1852 30.2011 41.4137 30.0481 41.5616 29.8276C41.6487 29.5798 41.6487 29.3095 41.5616 29.0616C41.4902 28.8148 41.3451 28.596 41.1459 28.4349L38.4444 26.659C38.3798 26.574 38.3448 26.4699 38.3448 26.3629C38.3448 26.256 38.3798 26.1519 38.4444 26.0669C38.5235 26.0048 38.6211 25.971 38.7215 25.971C38.8219 25.971 38.9194 26.0048 38.9985 26.0669L41.9772 27.2857C42.0976 27.3375 42.2272 27.3642 42.3581 27.3642C42.4891 27.3642 42.6187 27.3375 42.7392 27.2857C42.8586 27.2423 42.9669 27.173 43.0567 27.0828C43.1465 26.9925 43.2155 26.8834 43.2587 26.7633C43.3101 26.6423 43.3367 26.512 43.3367 26.3804C43.3367 26.2487 43.3101 26.1185 43.2587 25.9974C43.2155 25.8774 43.1465 25.7682 43.0567 25.678C42.9669 25.5877 42.8586 25.5184 42.7392 25.475L39.7605 24.2215C39.6611 24.1824 39.5805 24.1062 39.5354 24.009C39.4902 23.9117 39.484 23.8008 39.518 23.6991C39.5496 23.5981 39.6155 23.5115 39.7041 23.4543C39.7927 23.397 39.8985 23.3728 40.003 23.3858L43.1548 24.0474C43.3989 24.1481 43.6726 24.1481 43.9167 24.0474C44.0267 23.9791 44.1207 23.8876 44.1924 23.7794C44.2641 23.6713 44.3119 23.549 44.3323 23.4207C44.417 23.1844 44.417 22.9257 44.3323 22.6894C44.1789 22.4592 43.9433 22.2971 43.6743 22.2367L40.5225 21.61C40.4123 21.61 40.3066 21.5659 40.2286 21.4875C40.1507 21.4092 40.1069 21.3029 40.1069 21.1921C40.1069 21.0813 40.1507 20.9751 40.2286 20.8967C40.3066 20.8183 40.4123 20.7743 40.5225 20.7743L43.7435 20.7743C44.0038 20.7653 44.2505 20.6547 44.4315 20.4663C44.6124 20.2779 44.7134 20.0262 44.7133 19.7644C44.7133 19.5058 44.6111 19.2578 44.4293 19.0749C44.2474 18.8921 44.0007 18.7895 43.7435 18.7895L40.5225 18.7895C40.4284 18.7625 40.3456 18.7054 40.2867 18.6269C40.2277 18.5484 40.1959 18.4526 40.1959 18.3542C40.1959 18.2559 40.2277 18.1601 40.2867 18.0815C40.3456 18.003 40.4284 17.946 40.5225 17.919L43.6743 17.2922C43.9333 17.2294 44.1646 17.0826 44.3323 16.8744C44.4168 16.6261 44.4168 16.3565 44.3323 16.1082C44.3079 15.9813 44.2586 15.8605 44.1872 15.7529C44.1159 15.6453 44.0239 15.553 43.9167 15.4815C43.6726 15.3809 43.3989 15.3809 43.1548 15.4815L40.003 16.1082C39.8985 16.1212 39.7927 16.097 39.7041 16.0398C39.6155 15.9825 39.5496 15.896 39.518 15.795C39.484 15.6932 39.4902 15.5821 39.5354 15.4849C39.5805 15.3876 39.6611 15.3117 39.7605 15.2726L42.7392 14.0539C42.9782 13.9437 43.1647 13.7436 43.2587 13.4967C43.3101 13.3756 43.3367 13.2453 43.3367 13.1137C43.3367 12.982 43.3101 12.8518 43.2587 12.7307C43.2095 12.6111 43.1371 12.5025 43.0458 12.4113C42.9545 12.3201 42.8461 12.2482 42.7268 12.1996C42.6075 12.151 42.4797 12.1267 42.351 12.1282C42.2223 12.1297 42.0953 12.1569 41.9772 12.2083L38.9985 13.427C38.9006 13.4683 38.7912 13.4737 38.6898 13.4418C38.5884 13.41 38.5015 13.343 38.4444 13.2529C38.3762 13.1763 38.3386 13.0773 38.3386 12.9745C38.3386 12.8717 38.3762 12.7725 38.4444 12.6959L41.1459 10.8851C41.3526 10.731 41.4996 10.5095 41.5616 10.2584C41.646 10.0101 41.646 9.74071 41.5616 9.49241C41.4081 9.27894 41.1801 9.13155 40.9232 9.07989C40.6663 9.02824 40.3994 9.07607 40.1761 9.21379L37.5093 11.0245C37.4707 11.0635 37.4248 11.0942 37.3743 11.1153C37.3238 11.1364 37.2696 11.1474 37.2149 11.1474C37.1602 11.1474 37.106 11.1364 37.0555 11.1153C37.005 11.0942 36.959 11.0635 36.9204 11.0245C36.8558 10.9395 36.8209 10.8355 36.8209 10.7285C36.8209 10.6215 36.8558 10.5174 36.9204 10.4324L39.2063 8.13435C39.2985 8.04357 39.3718 7.93514 39.4218 7.81556C39.4717 7.69598 39.4974 7.56761 39.4974 7.4379C39.4974 7.30818 39.4717 7.17981 39.4218 7.06023C39.3718 6.94065 39.2985 6.83222 39.2063 6.74144C39.0138 6.56029 38.7601 6.45963 38.4964 6.45963C38.2327 6.45963 37.9788 6.56029 37.7863 6.74144L35.5005 9.03972C35.4243 9.10825 35.3256 9.14599 35.2234 9.14599C35.1211 9.14599 35.0225 9.10825 34.9463 9.03972C34.8782 8.96312 34.8404 8.86388 34.8404 8.7611C34.8404 8.65832 34.8782 8.55908 34.9463 8.48247L36.7473 5.80142C36.8474 5.55598 36.8474 5.2807 36.7473 5.03526C36.7291 4.90616 36.6824 4.78287 36.6104 4.67439C36.5385 4.5659 36.4432 4.47502 36.3317 4.40851C36.2171 4.35766 36.0932 4.33136 35.968 4.33136C35.8428 4.33136 35.719 4.35766 35.6044 4.40851C35.4744 4.42141 35.3494 4.46635 35.2407 4.53922C35.132 4.61208 35.0428 4.71063 34.9809 4.82634L33.1799 7.5076C33.1008 7.56973 33.0033 7.60345 32.9029 7.60345C32.8025 7.60345 32.7049 7.56973 32.6258 7.5076C32.5327 7.46218 32.4598 7.38339 32.4213 7.28679C32.3829 7.19019 32.3817 7.08265 32.418 6.98521L33.6649 3.99068C33.7156 3.8673 33.7415 3.73506 33.7411 3.60154C33.7407 3.46802 33.714 3.33588 33.6624 3.21282C33.6109 3.08977 33.5356 2.97807 33.4409 2.88447C33.3462 2.79086 33.2339 2.71719 33.1107 2.66747C32.9904 2.617 32.8612 2.59141 32.7309 2.59224C32.6006 2.59307 32.4718 2.62036 32.3522 2.67236C32.2326 2.72437 32.1246 2.79999 32.0347 2.89488C31.9448 2.98977 31.875 3.10185 31.8292 3.22451L30.5823 6.21925C30.5434 6.31918 30.4677 6.40022 30.371 6.4456C30.2743 6.49097 30.164 6.49702 30.0628 6.46281C30.0118 6.45085 29.9637 6.42863 29.9217 6.39714C29.8797 6.36565 29.8446 6.32558 29.8185 6.27983C29.7925 6.23407 29.7762 6.18345 29.7706 6.13106C29.7649 6.07866 29.77 6.02578 29.7857 5.97548L30.4092 2.77183C30.4126 2.53527 30.3333 2.30507 30.1851 2.12128C30.0369 1.93748 29.8294 1.81195 29.5985 1.76635C29.3676 1.72075 29.128 1.75797 28.9217 1.87177C28.7154 1.98556 28.5555 2.16856 28.4696 2.38885L27.8461 5.55765C27.8378 5.61287 27.8185 5.66585 27.7894 5.71344C27.7603 5.76102 27.7221 5.80212 27.6769 5.83458C27.6317 5.86704 27.5804 5.89016 27.5262 5.90237C27.472 5.9146 27.416 5.91572 27.3613 5.90578C27.2572 5.89702 27.1602 5.8491 27.0896 5.77167C27.019 5.69424 26.9799 5.59299 26.9803 5.48795L26.9803 2.24964C27.0076 2.10378 27.0026 1.95362 26.9656 1.80992C26.9286 1.66623 26.8606 1.53248 26.7663 1.41823C26.6721 1.30399 26.5539 1.21207 26.4203 1.14896C26.2867 1.08584 26.1408 1.0531 25.9932 1.0531C25.8455 1.0531 25.6998 1.08584 25.5661 1.14896C25.4325 1.21207 25.3143 1.30399 25.2201 1.41823C25.1258 1.53248 25.0578 1.66623 25.0209 1.80992C24.9839 1.95362 24.9789 2.10378 25.0062 2.24964L25.0062 5.48795C25.0065 5.59299 24.9675 5.69424 24.8969 5.77167C24.8263 5.8491 24.7292 5.89702 24.6251 5.90578C24.5705 5.91572 24.5143 5.9146 24.4601 5.90237C24.4059 5.89016 24.3547 5.86704 24.3095 5.83458C24.2643 5.80212 24.226 5.76102 24.1969 5.71344C24.1679 5.66585 24.1487 5.61287 24.1403 5.55765L23.5168 2.38885C23.4923 2.25937 23.4419 2.13626 23.3687 2.02691C23.2955 1.91756 23.2011 1.82436 23.091 1.75275C22.981 1.68115 22.8576 1.63267 22.7284 1.61036C22.5992 1.58804 22.4667 1.59233 22.3392 1.62289C22.2123 1.64557 22.0914 1.69423 21.9841 1.76614C21.8768 1.83805 21.7855 1.93163 21.7158 2.04073C21.6312 2.27705 21.6312 2.5355 21.7158 2.77183L22.3392 5.97548C22.3615 6.07682 22.3455 6.18291 22.2943 6.27303C22.2431 6.36314 22.1603 6.43066 22.0622 6.46281C21.961 6.49702 21.8506 6.49097 21.7539 6.4456C21.6571 6.40022 21.5816 6.31918 21.5427 6.21925L20.2958 3.22451C20.2018 2.97759 20.0153 2.77765 19.7763 2.66747C19.6558 2.61575 19.5262 2.58905 19.3952 2.58905C19.2643 2.58905 19.1347 2.61575 19.0143 2.66747C18.7664 2.77635 18.5684 2.97524 18.4601 3.22451C18.4087 3.34559 18.3821 3.47604 18.3821 3.6077C18.3821 3.73936 18.4087 3.86961 18.4601 3.99068L19.707 6.98521C19.7433 7.08265 19.7421 7.19019 19.7037 7.28679C19.6652 7.38338 19.5922 7.46218 19.4991 7.5076C19.42 7.56973 19.3225 7.60345 19.2221 7.60345C19.1217 7.60345 19.0242 7.56973 18.9451 7.5076L17.144 4.82634C17.074 4.71833 16.9833 4.62537 16.8773 4.55282C16.7713 4.48026 16.6521 4.42953 16.5265 4.40362C16.4009 4.37772 16.2713 4.37718 16.1455 4.40192C16.0196 4.42666 15.9 4.47615 15.7933 4.54772C15.6768 4.6143 15.576 4.70525 15.4976 4.81444C15.4191 4.92363 15.3649 5.04855 15.3386 5.18063C15.3123 5.3127 15.3146 5.44885 15.3452 5.57997C15.3759 5.71109 15.4341 5.83414 15.5162 5.94063L17.2826 8.62189C17.3203 8.6577 17.3504 8.70087 17.3709 8.74877C17.3915 8.79667 17.402 8.84814 17.402 8.90031C17.402 8.95247 17.3915 9.00415 17.3709 9.05205C17.3504 9.09995 17.3203 9.14313 17.2826 9.17893C17.198 9.24388 17.0946 9.27903 16.9882 9.27903C16.8818 9.27903 16.7783 9.24388 16.6937 9.17893L14.4425 6.88086C14.25 6.69971 13.9962 6.59883 13.7325 6.59883C13.4688 6.59883 13.215 6.69971 13.0224 6.88086C12.8446 7.06862 12.7454 7.31781 12.7454 7.5771C12.7454 7.8364 12.8446 8.08579 13.0224 8.27356L15.3084 10.5718C15.373 10.6568 15.4079 10.7607 15.4079 10.8677C15.4079 10.9747 15.373 11.0787 15.3084 11.1637C15.2697 11.2027 15.2239 11.2336 15.1734 11.2547C15.1229 11.2758 15.0687 11.2866 15.014 11.2866C14.9593 11.2866 14.9051 11.2758 14.8546 11.2547C14.8041 11.2336 14.7582 11.2027 14.7196 11.1637L12.0527 9.35299C11.8062 9.26537 11.5372 9.26537 11.2907 9.35299C11.0409 9.41529 10.8206 9.563 10.6673 9.77082C10.5218 9.99289 10.4692 10.2637 10.5211 10.5245C10.573 10.7852 10.725 11.015 10.9443 11.1637L13.6113 12.9745C13.6907 13.0338 13.7465 13.1197 13.7686 13.2168C13.7906 13.3138 13.7775 13.4155 13.7316 13.5037C13.6856 13.5918 13.6098 13.6607 13.518 13.6977C13.4261 13.7347 13.324 13.7375 13.2302 13.7056L10.2517 12.4869C10.1313 12.4352 10.0016 12.4085 9.87066 12.4085C9.73971 12.4085 9.61016 12.4352 9.48973 12.4869C9.24413 12.5814 9.04515 12.7688 8.93556 13.0091C8.86615 13.2597 8.86615 13.5247 8.93556 13.7753C9.04386 14.0246 9.24179 14.2234 9.48973 14.3323L12.4683 15.5512C12.5677 15.5903 12.6483 15.6663 12.6934 15.7635C12.7385 15.8607 12.7448 15.9717 12.7107 16.0734C12.6791 16.1744 12.6133 16.2612 12.5247 16.3184C12.4361 16.3757 12.3304 16.3999 12.2259 16.3868L9.07413 15.7601C8.94661 15.7295 8.81416 15.7252 8.68496 15.7476C8.55575 15.7699 8.43238 15.8183 8.32231 15.89C8.21224 15.9616 8.11783 16.0548 8.04464 16.1641C7.97145 16.2735 7.92108 16.3966 7.89656 16.5261C7.84486 16.7843 7.89552 17.0528 8.03788 17.2739C8.18023 17.4951 8.40301 17.6516 8.65853 17.71L11.8449 18.3368C11.939 18.3638 12.0218 18.4208 12.0807 18.4994C12.1396 18.5779 12.1715 18.6737 12.1715 18.7721C12.1715 18.8704 12.1396 18.9662 12.0807 19.0447C12.0218 19.1233 11.939 19.1803 11.8449 19.2073L8.62386 19.2073C8.49521 19.2024 8.36691 19.2242 8.24705 19.2715C8.1272 19.3188 8.01836 19.3904 7.92732 19.4819C7.83628 19.5734 7.76505 19.683 7.71804 19.8035C7.67102 19.924 7.64923 20.0528 7.65409 20.1822C7.64944 20.3131 7.67107 20.4437 7.71772 20.566C7.76437 20.6883 7.83511 20.8001 7.92563 20.8944C8.01615 20.9886 8.12454 21.0636 8.24452 21.1148C8.36449 21.1659 8.49354 21.1922 8.62386 21.1921L11.8449 21.1921C11.9551 21.1921 12.0609 21.2362 12.1388 21.3145C12.2168 21.3929 12.2605 21.4991 12.2605 21.61C12.2605 21.7208 12.2168 21.827 12.1388 21.9054C12.0609 21.9837 11.9551 22.0278 11.8449 22.0278L8.65853 22.6545C8.40301 22.7129 8.18023 22.8695 8.03788 23.0906C7.89552 23.3118 7.84486 23.5803 7.89656 23.8385C7.91702 23.9669 7.96468 24.0891 8.0364 24.1973C8.10812 24.3054 8.20219 24.3969 8.31216 24.4653C8.43259 24.517 8.56214 24.5437 8.69309 24.5437C8.82405 24.5437 8.9537 24.517 9.07413 24.4653L12.2259 23.8037C12.3304 23.7906 12.4361 23.8148 12.5247 23.8721C12.6133 23.9294 12.6791 24.0159 12.7107 24.1169C12.6354 24.1349 12.5566 24.1316 12.4832 24.107C12.4097 24.0823 12.3446 24.0376 12.2951 23.9777L9.3166 25.2312C9.19196 25.2724 9.07769 25.3406 8.98196 25.4308C8.88624 25.521 8.81137 25.6312 8.76243 25.7536C8.69302 26.0042 8.69302 26.269 8.76243 26.5196C8.81128 26.6435 8.88486 26.7563 8.97869 26.8505C9.07252 26.9447 9.18458 27.0185 9.30793 27.0675C9.43129 27.1164 9.5633 27.1394 9.69584 27.1351C9.82838 27.1307 9.95858 27.099 10.0785 27.042L13.0571 25.8233C13.1276 25.7572 13.2205 25.7205 13.3169 25.7205C13.4133 25.7205 13.5061 25.7572 13.5766 25.8233C13.6473 25.9056 13.6862 26.0105 13.6862 26.1192C13.6862 26.2279 13.6473 26.333 13.5766 26.4152L10.9098 28.1911C10.6905 28.3398 10.5383 28.5694 10.4865 28.8302C10.4346 29.091 10.4871 29.3618 10.6326 29.5838C10.7805 29.8043 11.009 29.9574 11.2684 30.0095C11.5278 30.0617 11.7972 30.0088 12.0181 29.8624L14.685 28.0517C14.7695 27.9868 14.8729 27.9516 14.9793 27.9516C15.0857 27.9516 15.1891 27.9868 15.2737 28.0517C15.3418 28.1283 15.3796 28.2275 15.3796 28.3303C15.3796 28.4331 15.3418 28.5323 15.2737 28.6089L12.9879 30.907C12.813 31.0967 12.7142 31.3449 12.7107 31.6035C12.7089 31.7322 12.7324 31.8599 12.78 31.9794C12.8275 32.099 12.8983 32.208 12.9879 32.2999C13.1804 32.4811 13.4342 32.5817 13.6978 32.5817C13.9615 32.5817 14.2153 32.4811 14.4078 32.2999L16.6592 30.0365C16.6978 29.9976 16.7436 29.9666 16.7941 29.9455C16.8447 29.9245 16.8988 29.9137 16.9535 29.9137C17.0082 29.9137 17.0624 29.9245 17.1129 29.9455C17.1634 29.9666 17.2093 29.9976 17.2479 30.0365C17.2856 30.0723 17.3157 30.1155 17.3363 30.1634C17.3568 30.2113 17.3674 30.263 17.3674 30.3151C17.3674 30.3673 17.3568 30.419 17.3363 30.4669C17.3157 30.5148 17.2856 30.558 17.2479 30.5938L15.4816 33.3097C15.3392 33.5267 15.2884 33.7916 15.3404 34.0463C15.3923 34.301 15.5428 34.5246 15.7586 34.6677C15.9745 34.8109 16.2381 34.8619 16.4914 34.8097C16.7447 34.7574 16.9671 34.6061 17.1094 34.3891L18.9104 31.7078C18.9895 31.6457 19.087 31.612 19.1874 31.612C19.2878 31.612 19.3854 31.6457 19.4646 31.7078C19.5603 31.7598 19.6341 31.8449 19.6723 31.9474C19.7105 32.0498 19.7105 32.1626 19.6724 32.2651L18.4255 35.2596C18.374 35.3807 18.3476 35.5109 18.3476 35.6426C18.3476 35.7742 18.374 35.9047 18.4255 36.0258C18.5351 36.2661 18.734 36.4535 18.9796 36.548C19.1001 36.5997 19.2297 36.6264 19.3607 36.6264C19.4916 36.6264 19.6212 36.5997 19.7416 36.548C19.9762 36.4491 20.1628 36.2616 20.2611 36.0258L21.508 33.031C21.5469 32.9311 21.6226 32.8501 21.7193 32.8047C21.816 32.7593 21.9264 32.7533 22.0275 32.7875C22.1257 32.8196 22.2084 32.8872 22.2596 32.9773C22.3108 33.0674 22.3269 33.1735 22.3047 33.2748L21.6811 36.4436C21.5967 36.6919 21.5967 36.9613 21.6811 37.2096C21.8414 37.4098 22.0591 37.5557 22.3047 37.6274C22.4251 37.6791 22.5546 37.7058 22.6856 37.7058C22.8165 37.7058 22.9461 37.6791 23.0665 37.6274C23.1765 37.559 23.2706 37.4678 23.3423 37.3596C23.414 37.2515 23.4618 37.129 23.4822 37.0006L24.1056 33.8321C24.1304 33.7246 24.1933 33.6299 24.2826 33.5658C24.3718 33.5016 24.4813 33.4724 24.5905 33.4837C24.6918 33.4994 24.7848 33.5493 24.8541 33.6253C24.9233 33.7012 24.9648 33.7987 24.9715 33.9016L24.9715 37.1401C24.9442 37.2859 24.9492 37.4359 24.9862 37.5796C25.0232 37.7233 25.0912 37.857 25.1854 37.9713C25.2797 38.0855 25.3979 38.1774 25.5315 38.2405C25.6651 38.3037 25.811 38.3364 25.9586 38.3364C26.1062 38.3364 26.252 38.3037 26.3856 38.2405C26.5192 38.1774 26.6374 38.0855 26.7317 37.9713C26.8259 37.857 26.8939 37.7233 26.9309 37.5796C26.9679 37.4359 26.973 37.2859 26.9457 37.1401L26.9457 33.9016C26.9524 33.7987 26.9937 33.7012 27.063 33.6253C27.1323 33.5493 27.2253 33.4994 27.3266 33.4837C27.4499 33.4736 27.5723 33.5112 27.6689 33.5889C27.7655 33.6666 27.8289 33.7784 27.8461 33.9016Z" fill="#531036"/>
<path d="M13.9574 23.2117C13.3203 19.4938 13.7281 15.6708 15.1349 12.1734C19.1872 14.5412 20.3647 21.6447 20.3647 21.6447C21.4038 11.1985 26.4258 7.36812 27.2917 6.74135C28.2615 7.36812 33.3181 11.094 34.2186 21.6447C34.2186 21.6447 35.3616 14.6805 39.4485 12.1734C40.833 15.6768 41.2286 19.4967 40.5915 23.2117C40.5915 23.2117 42.6349 14.367 53.6488 16.9089C52.331 17.5245 51.1801 18.4505 50.2938 19.6083C49.4075 20.766 48.8119 22.1214 48.5575 23.5598C46.4448 31.9168 40.1066 36.7916 27.4302 36.9657L26.6683 36.9657C13.9573 36.7916 7.65382 31.9168 5.50646 23.5598C5.26109 22.1229 4.67285 20.7672 3.79216 19.6089C2.91148 18.4506 1.76452 17.524 0.449707 16.9089C11.9485 14.367 13.9574 23.2117 13.9574 23.2117Z" fill="#873B6E"/>
<path d="M10.0786 31.5686C7.94668 29.3517 6.45075 26.5966 5.74928 23.5947C5.52232 22.1835 4.95993 20.8482 4.10971 19.7024C3.25949 18.5567 2.14668 17.6343 0.86587 17.0135L2.43372e-07 16.7001L0.86587 16.526C8.79724 14.6805 12.1914 18.7198 13.5076 21.2269C13.2378 18.0502 13.7123 14.8541 14.8929 11.895L14.8929 11.6512L15.1354 11.6512C17.7428 13.6689 19.5186 16.5823 20.1228 19.834C20.2754 17.2108 20.9702 14.6483 22.1629 12.3101C23.3555 9.97187 25.0199 7.90923 27.0498 6.25384L27.2229 6.25384L27.4654 6.25384C29.4952 7.90923 31.1596 9.97187 32.3523 12.3101C33.5449 14.6483 34.2397 17.2108 34.3923 19.834C35.0207 16.5831 36.8061 13.674 39.4143 11.6512L39.6568 11.6512L39.6568 11.895C40.8792 14.8429 41.3667 18.0464 41.0768 21.2269C42.3583 18.7198 45.7526 14.6805 53.6839 16.526L54.5498 16.7001L53.7185 17.0135C52.4482 17.6167 51.3394 18.5158 50.4841 19.6361C49.6287 20.7565 49.0515 22.0657 48.8004 23.4553C46.5492 32.4042 39.6222 36.8614 27.6732 37.1052L26.4263 37.1052C20.4772 37.4011 14.637 35.4231 10.0786 31.5686ZM3.49804 18.3367C4.84642 19.7869 5.80072 21.5616 6.26889 23.4901C8.48552 32.2301 15.3086 36.5479 27.0498 36.722L27.2921 36.722L27.7771 36.722C39.6222 36.722 46.4452 32.2301 48.558 23.4901C48.8229 22.1519 49.3594 20.883 50.1341 19.7626C50.9088 18.6422 51.905 17.6945 53.0604 16.9787C43.0856 15.0984 41.1807 22.933 41.0768 23.2812L40.592 23.2812C41.1721 19.6991 40.8139 16.0268 39.5529 12.6261C36.9644 15.0484 35.2574 18.2725 34.704 21.784L34.3923 23.6991L34.2191 21.784C33.1801 11.5467 28.4005 7.85577 27.2921 7.08972C26.2185 7.82095 21.4042 11.5467 20.3652 21.784L20.1574 23.6991L19.8457 21.784C19.3079 18.2672 17.5983 15.0383 14.9968 12.6261C13.7475 16.0299 13.4013 19.7021 13.9924 23.2812L13.4729 23.2812C13.4729 22.933 11.4641 15.0984 1.48927 16.9787C2.21537 17.3406 2.89076 17.7972 3.49804 18.3367Z" fill="#541136"/>
<path d="M40.8689 31.3943C40.4186 31.7774 39.8991 32.1256 39.4142 32.4738C38.9293 32.822 38.3752 33.1354 37.8557 33.414C36.7424 34.0045 35.5843 34.5052 34.3922 34.9113C29.8143 36.3509 24.9084 36.3509 20.3305 34.9113C19.1384 34.5052 17.9802 34.0045 16.867 33.414C16.359 33.1354 15.8394 32.822 15.3084 32.4738C14.8235 32.1256 14.304 31.7774 13.8538 31.3943C11.9601 29.854 10.3635 27.9773 9.14339 25.8577C8.26684 24.3104 7.61378 22.6456 7.20385 20.9133C7.20129 20.8474 7.21948 20.7824 7.25575 20.7275C7.29202 20.6726 7.34448 20.6308 7.40584 20.6076C7.4672 20.5845 7.53425 20.5814 7.59747 20.5987C7.66068 20.6161 7.71689 20.6531 7.75802 20.7043C8.55595 22.1915 9.47095 23.6122 10.4942 24.9526C11.8325 26.7558 13.3919 28.3818 15.1353 29.7925C16.0044 30.5012 16.9183 31.1526 17.8713 31.7425C18.3216 32.0558 18.8065 32.3344 19.2914 32.613L20.0533 33.0308L20.8153 33.414C22.8901 34.419 25.0309 35.2799 27.2228 35.9907C29.4146 35.2799 31.5554 34.419 33.6302 33.414L34.3922 33.0308L35.1542 32.613C35.639 32.3344 36.1239 32.0558 36.6088 31.7425C37.5449 31.1439 38.4469 30.4929 39.3103 29.7925C41.0536 28.3818 42.6131 26.7558 43.9514 24.9526C44.9866 23.6207 45.9022 22.1989 46.6875 20.7043C46.7286 20.6531 46.7848 20.6161 46.8481 20.5987C46.9113 20.5814 46.9783 20.5845 47.0397 20.6076C47.101 20.6308 47.1536 20.6726 47.1899 20.7275C47.2261 20.7824 47.2442 20.8474 47.2417 20.9133C46.8317 22.6456 46.1787 24.3104 45.3021 25.8577C44.1646 27.9543 42.6632 29.8294 40.8689 31.3943Z" fill="#F8CA95"/>
<path d="M12.295 30.2104C11.031 28.9511 9.94694 27.5215 9.07404 25.9624C8.16094 24.4042 7.49486 22.7125 7.09983 20.9482C7.0671 20.819 7.08469 20.6821 7.14908 20.5656C7.21347 20.4491 7.31981 20.3617 7.4462 20.3214C7.56634 20.2721 7.70048 20.2697 7.82227 20.3148C7.94406 20.3599 8.04469 20.4493 8.10427 20.5652C8.90578 22.0502 9.82049 23.4704 10.8403 24.8132C12.1683 26.5934 13.7162 28.1964 15.4468 29.5836C16.2874 30.298 17.1787 30.9497 18.1137 31.5336C18.3983 31.7334 18.6996 31.9083 19.0142 32.056C19.1909 32.1844 19.3761 32.3007 19.5684 32.4041L20.2957 32.7873C20.5389 32.9356 20.7937 33.0636 21.0576 33.1703C23.1092 34.1369 25.2138 34.9855 27.3612 35.7121C29.5108 34.9916 31.6157 34.1428 33.6648 33.1703C33.9287 33.0636 34.1835 32.9356 34.4267 32.7873L35.154 32.4041C35.3463 32.3007 35.5315 32.1844 35.7082 32.056C36.0087 31.9026 36.298 31.7279 36.5741 31.5336C37.5259 30.9586 38.4294 30.3065 39.2756 29.5836C41.0087 28.188 42.5671 26.5861 43.9166 24.8132C45.0232 23.4488 46.0302 22.0059 46.9298 20.4955C46.9959 20.3769 47.1028 20.2866 47.2303 20.2417C47.3579 20.1968 47.4974 20.2004 47.6226 20.2517C47.7406 20.3037 47.8383 20.3931 47.9009 20.5063C47.9634 20.6195 47.9873 20.7503 47.9688 20.8785C47.5443 22.6388 46.8677 24.3279 45.9601 25.8926C44.7461 28.0468 43.1359 29.9492 41.2151 31.4987C40.8164 31.8342 40.4002 32.1481 39.9682 32.439L39.4834 32.7873C39.0331 33.0659 38.6175 33.3444 38.1326 33.5881C37.025 34.1905 35.8659 34.6916 34.6691 35.0854C32.4394 35.8443 30.0958 36.2095 27.7421 36.1648C25.3885 36.2095 23.0449 35.8443 20.8152 35.0854C19.6184 34.6916 18.4593 34.1905 17.3517 33.5881C16.8668 33.3444 16.4512 33.0659 16.001 32.7873L15.5161 32.439C15.0841 32.1481 14.6679 31.8342 14.2693 31.4987C13.5847 31.1118 12.9252 30.6815 12.295 30.2104ZM7.654 20.809C8.06055 22.5203 8.71398 24.1626 9.59354 25.6837C10.7822 27.7851 12.3571 29.6403 14.2346 31.1506C14.6156 31.464 15.0312 31.7774 15.4468 32.056L15.8971 32.3692C16.3127 32.6478 16.763 32.9265 17.2132 33.1703C18.2595 33.741 19.3479 34.2299 20.4688 34.6327C22.2299 35.2116 24.0572 35.5626 25.9065 35.6773C24.1912 35.0856 22.5141 34.3879 20.8845 33.5881C20.6238 33.4744 20.3694 33.3466 20.1225 33.2051L19.3951 32.8219L18.8411 32.4738C18.5294 32.2997 18.2176 32.1257 17.9059 31.9168C16.9539 31.3254 16.04 30.6739 15.1697 29.9666C13.4322 28.5253 11.8636 26.8899 10.4941 25.0918C9.46255 23.7256 8.5362 22.2821 7.72323 20.7741L7.654 20.809ZM47.1376 20.809C46.3247 22.317 45.3984 23.7604 44.3669 25.1267C42.9974 26.9248 41.4287 28.5601 39.6912 30.0015C38.8069 30.7169 37.8817 31.3796 36.9203 31.9863L36.0199 32.5087C35.8389 32.6125 35.6654 32.7288 35.5004 32.8568L34.7384 33.2398C34.4952 33.3881 34.2404 33.5163 33.9765 33.623C32.3587 34.4226 30.693 35.1203 28.989 35.7121C30.8266 35.5941 32.642 35.2432 34.3921 34.6675C35.513 34.2647 36.6014 33.7758 37.6477 33.2051C38.098 32.9614 38.5483 32.6827 38.9639 32.4041L39.4141 32.0908C39.8297 31.8123 40.2453 31.4988 40.6263 31.1855C42.4855 29.6563 44.0573 27.8048 45.2673 25.7186C46.1222 24.1894 46.7632 22.5489 47.1723 20.8436L47.1376 20.809Z" fill="#531036"/>
<path d="M27.5002 34.424C25.5579 34.0656 23.7221 33.2678 22.1317 32.091C20.5073 30.889 19.1507 29.3589 18.1488 27.599C17.159 25.8715 16.468 23.9877 16.1053 22.0278C15.8522 20.6036 15.7708 19.1539 15.8628 17.7101C15.8841 17.6486 15.9239 17.5954 15.9767 17.5577C16.0294 17.52 16.0925 17.4996 16.1572 17.4996C16.2219 17.4996 16.2851 17.52 16.3378 17.5577C16.3906 17.5954 16.4304 17.6486 16.4517 17.7101C16.798 19.0681 17.2136 20.3913 17.6638 21.6797C18.2653 23.4035 19.0188 25.0699 19.9152 26.659C20.8172 28.2184 21.9111 29.6573 23.1708 30.9419C24.5093 32.2283 25.958 33.3935 27.5002 34.424C29.0424 33.3935 30.4911 32.2283 31.8295 30.9419C33.0893 29.6573 34.183 28.2184 35.0851 26.659C35.9815 25.0699 36.735 23.4035 37.3365 21.6797C37.7867 20.3913 38.2022 19.0681 38.5486 17.7101C38.5699 17.6486 38.6097 17.5954 38.6624 17.5577C38.7152 17.52 38.7783 17.4996 38.8431 17.4996C38.9078 17.4996 38.9708 17.52 39.0236 17.5577C39.0763 17.5954 39.1162 17.6486 39.1374 17.7101C39.2295 19.1539 39.1481 20.6036 38.895 22.0278C38.5322 23.9877 37.8413 25.8715 36.8515 27.599C35.8496 29.3589 34.4929 30.889 32.8685 32.091C31.2782 33.2678 29.4424 34.0656 27.5002 34.424Z" fill="#F8CA95"/>
<path d="M20.3305 30.9418C19.4024 30.0055 18.5991 28.952 17.9407 27.8079C16.9118 26.0581 16.2077 24.1349 15.8626 22.1321C15.5978 20.6858 15.5163 19.2118 15.6201 17.7449C15.6506 17.625 15.72 17.5187 15.8172 17.4429C15.9144 17.367 16.0339 17.3258 16.1569 17.3258C16.28 17.3258 16.3995 17.367 16.4967 17.4429C16.5939 17.5187 16.6632 17.625 16.6938 17.7449C17.0747 19.1725 17.4557 20.4607 17.906 21.7143C18.4942 23.4155 19.2362 25.059 20.1227 26.6241C21.03 28.1602 22.1108 29.5855 23.3437 30.8721C24.6306 32.1467 26.0208 33.3114 27.4999 34.3542C28.9858 33.3204 30.3766 32.1551 31.656 30.8721C32.8889 29.5855 33.9697 28.1602 34.877 26.6241C35.7711 25.0629 36.5135 23.4186 37.0937 21.7143C37.544 20.4607 37.925 19.1725 38.3059 17.7449C38.3442 17.6195 38.4227 17.5104 38.5293 17.4348C38.6358 17.3592 38.7644 17.3213 38.8947 17.327C39.0236 17.3432 39.1428 17.4041 39.2314 17.4996C39.32 17.5951 39.3725 17.7188 39.3796 17.8492C39.501 19.3159 39.4194 20.7925 39.1371 22.2367C38.792 24.2395 38.0879 26.1627 37.059 27.9125C36.0423 29.7025 34.6615 31.2568 33.0068 32.474C31.4101 33.6691 29.5615 34.4792 27.6038 34.8417L26.1491 35.0507L26.9111 34.7025C24.5046 34.1372 22.2923 32.9349 20.5036 31.2205L20.3305 30.9418ZM16.2089 17.7449C16.0926 19.1755 16.1625 20.6153 16.4167 22.0277C16.7717 23.9679 17.4633 25.8303 18.4602 27.5295C19.4488 29.2377 20.7678 30.7295 22.3392 31.9169C23.5668 32.8155 24.937 33.4982 26.3916 33.9364C25.1623 33.0801 24.004 32.1252 22.9281 31.081C21.6614 29.7683 20.5567 28.3069 19.6377 26.7285C18.7074 25.1399 17.9414 23.4598 17.3518 21.7143C16.9016 20.4607 16.5206 19.1725 16.1396 17.7449L16.2089 17.7449ZM38.8601 17.7449C38.4791 19.1725 38.0981 20.4607 37.6479 21.7143C37.0582 23.4598 36.2923 25.1399 35.362 26.7285C34.443 28.3069 33.3383 29.7683 32.0716 31.081C30.9957 32.1252 29.8374 33.0801 28.6081 33.9364C30.0627 33.4982 31.4329 32.8155 32.6604 31.9169C34.2478 30.7187 35.5689 29.2005 36.5395 27.4598C37.5363 25.7606 38.228 23.8982 38.583 21.958C38.8304 20.5449 38.9118 19.1074 38.8254 17.6752L38.8601 17.7449Z" fill="#531036"/>
<path d="M25.1446 21.61C25.0927 22.5145 25.0927 23.4213 25.1446 24.3259C25.1446 25.2312 25.4217 26.1366 25.5948 27.042C26.0595 28.8953 26.6615 30.711 27.3958 32.474C25.895 31.1007 24.7127 29.4128 23.9323 27.5295C23.5499 26.588 23.2712 25.6071 23.1011 24.6045C22.9344 23.6035 22.8532 22.59 22.8587 21.5751C22.8896 19.5429 23.3009 17.5347 24.0709 15.6555C24.6373 14.1345 25.4572 12.7214 26.4954 11.477C26.6685 11.2681 26.9802 11.477 26.8763 11.6859C26.3584 13.1319 25.9304 14.6089 25.5948 16.1082C25.2586 17.9219 25.1077 19.7654 25.1446 21.61Z" fill="#F8CA95"/>
<path d="M27.015 32.3348C25.6887 30.9879 24.641 29.3901 23.9325 27.6338C23.5551 26.6666 23.2766 25.6633 23.1013 24.6393C22.9216 23.6161 22.829 22.5793 22.8242 21.5402C22.8913 19.4863 23.3132 17.4598 24.071 15.5512C24.6806 14.0149 25.5217 12.582 26.5647 11.3029C26.6493 11.238 26.7527 11.2028 26.8591 11.2028C26.9655 11.2028 27.069 11.238 27.1536 11.3029C27.252 11.3612 27.3268 11.4526 27.3649 11.5609C27.4029 11.6692 27.4016 11.7876 27.3614 11.895C26.837 13.327 26.4089 14.7926 26.0799 16.2823C25.6645 18.0643 25.4323 19.8845 25.3872 21.7143L25.3872 24.3955C25.3872 25.1964 25.6296 26.067 25.8374 27.0768C26.2964 28.9205 26.8985 30.7251 27.6384 32.474L28.054 33.5186L27.2228 32.7526L27.015 32.3348ZM26.8072 11.7905C25.4011 13.5699 24.3869 15.6292 23.8316 17.8322C23.2763 20.0352 23.1927 22.3317 23.5862 24.5696C23.7611 25.5485 24.0397 26.5057 24.4174 27.4249C24.994 28.8517 25.7886 30.1793 26.7725 31.3597C26.2513 29.9708 25.8119 28.5524 25.4564 27.1117C25.244 26.2061 25.0937 25.2869 25.0062 24.3607C24.9562 23.4328 24.9562 22.5029 25.0062 21.5751C25.0684 19.7237 25.3002 17.8819 25.6989 16.0733C25.9067 14.6805 26.1491 13.2529 26.8072 11.7905Z" fill="#531036"/>
<path d="M27.5 32.474C28.2343 30.711 28.8363 28.8953 29.301 27.042C29.5018 26.1459 29.6522 25.239 29.7512 24.3259C29.8031 23.4213 29.8031 22.5145 29.7512 21.61C29.7084 19.7571 29.4762 17.9134 29.0585 16.1082C28.7418 14.7064 28.3487 13.323 27.8809 11.9645C27.8665 11.9071 27.8707 11.8465 27.8929 11.7915C27.9151 11.7366 27.9542 11.6902 28.0044 11.6591C28.0546 11.6281 28.1133 11.6139 28.1721 11.6188C28.2309 11.6236 28.2867 11.6471 28.3312 11.6859C29.2858 12.881 30.0456 14.2209 30.5824 15.6555C31.3525 17.5347 31.7637 19.5429 31.7947 21.5751C31.8172 22.5906 31.736 23.6057 31.5522 24.6045C31.3822 25.6071 31.1035 26.588 30.721 27.5295C30.0115 29.3904 28.9132 31.0765 27.5 32.474Z" fill="#F8CA95"/>
<path d="M26.842 33.4141L27.2576 32.3693C27.9975 30.6203 28.5997 28.8158 29.0586 26.9721C29.2664 25.9623 29.405 25.0919 29.5089 24.2911L29.5089 21.6098C29.4637 19.78 29.2316 17.9598 28.8161 16.1778C28.4948 14.7771 28.1017 13.394 27.6386 12.0341C27.5912 11.9183 27.59 11.7886 27.6351 11.6719C27.6802 11.5553 27.7683 11.4605 27.881 11.4073C27.9706 11.3241 28.0881 11.2779 28.2101 11.2779C28.332 11.2779 28.4495 11.3241 28.5391 11.4073C29.4931 12.6216 30.2635 13.9709 30.825 15.4116C31.5829 17.3202 32.0047 19.3469 32.0718 21.4009C32.1209 23.4869 31.7438 25.5609 30.9636 27.4945C30.1793 29.3958 28.9982 31.1057 27.5001 32.5087L26.842 33.4141ZM28.262 11.86C28.7122 13.3225 29.1279 14.6804 29.4397 16.0732C29.852 17.8794 30.084 19.7224 30.1323 21.5749C30.1815 22.5028 30.1815 23.4327 30.1323 24.3605C30.0449 25.2868 29.8944 26.206 29.682 27.1115C29.3265 28.5523 28.8872 29.9707 28.366 31.3595C29.3571 30.1843 30.1524 28.8555 30.7211 27.4248C31.0988 26.5056 31.3774 25.5483 31.5523 24.5695C31.7204 23.5804 31.8015 22.5783 31.7948 21.5749C31.7516 19.5701 31.3528 17.5891 30.6172 15.7251C30.0147 14.3329 29.2219 13.0321 28.262 11.86Z" fill="#531036"/>
<path d="M47.7266 52.5656C47.6435 52.2015 47.4248 51.8831 47.1157 51.6759C46.8066 51.4687 46.4303 51.3884 46.0641 51.4513L42.8777 52.078L45.8563 50.8592C46.0298 50.7869 46.1874 50.6809 46.3198 50.547C46.4522 50.413 46.5568 50.2539 46.6277 50.079C46.6986 49.9041 46.7343 49.7169 46.7326 49.5281C46.731 49.3393 46.6922 49.1525 46.6183 48.9789C46.55 48.8057 46.4478 48.648 46.3178 48.5152C46.1878 48.3824 46.0327 48.2772 45.8615 48.2057C45.6903 48.1343 45.5067 48.0983 45.3214 48.0995C45.1361 48.1007 44.9529 48.1393 44.7826 48.213L41.804 49.4665L44.4709 47.6557C44.782 47.4431 44.9991 47.1177 45.0766 46.7476C45.1541 46.3775 45.086 45.9916 44.8865 45.6709C44.7821 45.5153 44.6481 45.3819 44.4923 45.2784C44.3365 45.1749 44.1619 45.1033 43.9785 45.0678C43.7951 45.0322 43.6065 45.0334 43.4236 45.0712C43.2407 45.1089 43.0669 45.1825 42.9123 45.2879L40.2108 47.0638L42.4967 44.8004C42.6286 44.6678 42.7332 44.5103 42.8046 44.3371C42.876 44.1638 42.9128 43.9782 42.9128 43.7907C42.9128 43.6031 42.876 43.4175 42.8046 43.2443C42.7332 43.071 42.6286 42.9136 42.4967 42.7809C42.3648 42.6483 42.2082 42.5431 42.0359 42.4713C41.8636 42.3995 41.6788 42.3627 41.4923 42.3627C41.3058 42.3627 41.121 42.3995 40.9487 42.4713C40.7764 42.5431 40.6199 42.6483 40.488 42.7809L38.2021 45.0442L40.003 42.3631C40.1079 42.2077 40.1812 42.0329 40.2188 41.849C40.2563 41.6651 40.2575 41.4755 40.2221 41.2911C40.1867 41.1068 40.1155 40.9313 40.0125 40.7747C39.9096 40.618 39.7769 40.4833 39.6221 40.3783C39.3031 40.1778 38.9193 40.1093 38.5512 40.1872C38.1831 40.2652 37.8594 40.4834 37.6479 40.7961L35.8468 43.4772L37.0937 40.4827C37.1676 40.309 37.2065 40.1225 37.2081 39.9337C37.2097 39.7449 37.174 39.5575 37.1031 39.3826C37.0323 39.2077 36.9276 39.0488 36.7952 38.9148C36.6628 38.7809 36.5053 38.6747 36.3317 38.6024C35.9777 38.464 35.5839 38.4702 35.2344 38.6198C34.8849 38.7695 34.6074 39.0506 34.4614 39.4032L33.2492 42.3978L33.8727 39.1943C33.9462 38.8203 33.8688 38.4322 33.6577 38.1155C33.4466 37.7988 33.1191 37.5794 32.747 37.5056C32.375 37.4317 31.989 37.5095 31.674 37.7217C31.359 37.9339 31.1408 38.2633 31.0673 38.6373L30.4438 41.8407L30.4438 38.6024C30.4438 38.2238 30.2942 37.8606 30.0279 37.5929C29.7616 37.3252 29.4004 37.1746 29.0237 37.1746C28.6471 37.1746 28.286 37.3252 28.0197 37.5929C27.7534 37.8606 27.6038 38.2238 27.6038 38.6024L27.6038 41.8407L26.9803 38.6373C26.9611 38.4386 26.9008 38.2461 26.8031 38.0724C26.7054 37.8986 26.5726 37.7473 26.4131 37.6284C26.2537 37.5095 26.0712 37.4255 25.8775 37.3819C25.6837 37.3382 25.4831 37.3359 25.2884 37.3751C25.0937 37.4142 24.9095 37.4939 24.7474 37.6091C24.5852 37.7243 24.449 37.8725 24.3473 38.0439C24.2456 38.2153 24.1808 38.4062 24.157 38.6043C24.1333 38.8025 24.1513 39.0035 24.2096 39.1943L24.833 42.3978L23.5862 39.4032C23.4402 39.059 23.1685 38.7841 22.827 38.6351C22.4856 38.4862 22.1003 38.4744 21.7505 38.6024C21.3998 38.7492 21.1201 39.0281 20.9712 39.3794C20.8224 39.7308 20.8162 40.1267 20.9539 40.4827L22.2007 43.4772L20.3997 40.7961C20.1882 40.4834 19.8645 40.2652 19.4964 40.1872C19.1283 40.1093 18.7445 40.1778 18.4255 40.3783C18.1201 40.5962 17.9101 40.9242 17.8391 41.2939C17.7681 41.6636 17.8417 42.0466 18.0446 42.3631L19.8455 45.0442L17.5596 42.7809C17.2933 42.5131 16.932 42.3627 16.5553 42.3627C16.1786 42.3627 15.8173 42.5131 15.5509 42.7809C15.2845 43.0488 15.1348 43.4119 15.1348 43.7907C15.1348 44.1694 15.2845 44.5326 15.5509 44.8004L17.8368 47.0638L15.1353 45.2879C14.9851 45.1786 14.8141 45.1014 14.633 45.0614C14.4519 45.0213 14.2646 45.0193 14.0826 45.0552C13.9007 45.0911 13.728 45.1644 13.5754 45.2703C13.4228 45.3762 13.2936 45.5126 13.1957 45.6709C13.0909 45.8263 13.0176 46.0011 12.98 46.185C12.9424 46.3689 12.9412 46.5585 12.9766 46.7429C13.012 46.9273 13.0832 47.1027 13.1862 47.2593C13.2892 47.416 13.4218 47.5507 13.5767 47.6557L16.2436 49.4665L13.265 48.213C13.0947 48.1393 12.9115 48.1007 12.7262 48.0995C12.5409 48.0983 12.3573 48.1343 12.1861 48.2057C12.0149 48.2772 11.8598 48.3824 11.7298 48.5152C11.5998 48.648 11.4976 48.8057 11.4293 48.9789C11.3555 49.1525 11.3166 49.3393 11.315 49.5281C11.3133 49.7169 11.3489 49.9041 11.4198 50.079C11.4907 50.2539 11.5954 50.413 11.7278 50.547C11.8602 50.6809 12.0178 50.7869 12.1913 50.8592L15.1698 52.078L12.0182 51.4513C11.8339 51.4147 11.6443 51.4148 11.4602 51.4519C11.2761 51.489 11.1011 51.5621 10.9451 51.6672C10.7891 51.7723 10.6552 51.9073 10.5511 52.0644C10.447 52.2215 10.3747 52.3978 10.3383 52.583C10.3019 52.7682 10.3022 52.9587 10.3391 53.1438C10.3759 53.3289 10.4487 53.5047 10.5532 53.6616C10.6577 53.8184 10.792 53.9531 10.9483 54.0577C11.1046 54.1624 11.2798 54.2352 11.464 54.2717L14.6158 54.8985L11.3946 54.8985C11.018 54.8985 10.6568 55.0488 10.3905 55.3165C10.1242 55.5843 9.97461 55.9474 9.97461 56.326C9.97461 56.7047 10.1242 57.0678 10.3905 57.3356C10.6568 57.6033 11.018 57.7538 11.3946 57.7538L14.6158 57.7538L11.464 58.3806C11.2664 58.3998 11.0749 58.4604 10.9021 58.5587C10.7293 58.6569 10.5789 58.7905 10.4606 58.9508C10.3423 59.1111 10.2588 59.2946 10.2154 59.4893C10.172 59.6841 10.1696 59.8857 10.2085 60.0814C10.2475 60.2771 10.3268 60.4625 10.4414 60.6255C10.556 60.7885 10.7033 60.9256 10.8738 61.0278C11.0443 61.13 11.2342 61.195 11.4313 61.2189C11.6284 61.2427 11.8284 61.2248 12.0182 61.1662L15.1698 60.5394L12.1913 61.7929C12.019 61.8616 11.8622 61.9642 11.7301 62.0949C11.598 62.2256 11.4933 62.3817 11.4222 62.5538C11.3512 62.7259 11.3152 62.9106 11.3164 63.0969C11.3176 63.2832 11.356 63.4674 11.4293 63.6385C11.5682 63.9886 11.8392 64.2692 12.183 64.4192C12.5269 64.5693 12.9158 64.5764 13.265 64.4393L16.2436 63.1858L13.5767 64.9965C13.4192 65.0949 13.2835 65.2249 13.1782 65.3783C13.0728 65.5317 13 65.7052 12.9642 65.8881C12.9285 66.0711 12.9306 66.2594 12.9704 66.4415C13.0102 66.6235 13.087 66.7954 13.1957 66.9464C13.4008 67.2568 13.7184 67.4742 14.0808 67.5522C14.4432 67.6303 14.8217 67.5628 15.1353 67.3643L17.8368 65.5536L15.5509 67.8518C15.419 67.9844 15.3144 68.1418 15.243 68.3151C15.1716 68.4884 15.1348 68.6741 15.1348 68.8616C15.1348 69.0492 15.1716 69.2348 15.243 69.408C15.3144 69.5813 15.419 69.7387 15.5509 69.8713C15.6828 70.004 15.8394 70.1091 16.0117 70.1809C16.184 70.2527 16.3688 70.2896 16.5553 70.2896C16.7418 70.2896 16.9265 70.2527 17.0988 70.1809C17.2711 70.1091 17.4277 70.004 17.5596 69.8713L19.8455 67.5732L18.0446 70.2544C17.8417 70.571 17.7681 70.954 17.8391 71.3237C17.9101 71.6934 18.1201 72.0212 18.4255 72.2391C18.5785 72.3492 18.7521 72.4269 18.9359 72.4673C19.1197 72.5077 19.3098 72.5101 19.4945 72.4743C19.6792 72.4385 19.8548 72.3652 20.0104 72.2589C20.1661 72.1526 20.2985 72.0156 20.3997 71.8562L22.2007 69.175L20.9539 72.1695C20.8266 72.5212 20.8383 72.9085 20.9864 73.2518C21.1346 73.5951 21.4081 73.8683 21.7505 74.015C21.9207 74.0887 22.1039 74.1273 22.2893 74.1285C22.4746 74.1297 22.6582 74.0936 22.8294 74.0221C23.0005 73.9507 23.1557 73.8455 23.2857 73.7127C23.4157 73.5799 23.5179 73.4222 23.5862 73.249L24.833 70.2544L24.2096 73.4231C24.1513 73.6139 24.1333 73.8148 24.157 74.013C24.1808 74.2112 24.2456 74.4021 24.3473 74.5735C24.449 74.745 24.5852 74.8931 24.7474 75.0083C24.9095 75.1235 25.0937 75.2032 25.2884 75.2424C25.4831 75.2815 25.6837 75.2791 25.8775 75.2355C26.0712 75.1918 26.2537 75.1079 26.4131 74.9889C26.5726 74.87 26.7054 74.7188 26.8031 74.5451C26.9008 74.3713 26.9611 74.1788 26.9803 73.9802L27.6038 70.8116L27.6038 74.0499C27.6038 74.4285 27.7534 74.7917 28.0197 75.0594C28.286 75.3271 28.6471 75.4775 29.0237 75.4775C29.4004 75.4775 29.7616 75.3271 30.0279 75.0594C30.2942 74.7917 30.4438 74.4285 30.4438 74.0499L30.4438 70.8116L31.0673 73.9802C31.1408 74.3542 31.359 74.6836 31.674 74.8958C31.989 75.1081 32.375 75.1858 32.747 75.1119C33.1191 75.038 33.4466 74.8185 33.6577 74.5018C33.8688 74.1851 33.9462 73.7971 33.8727 73.4231L33.2492 70.2544L34.4614 73.249C34.5333 73.4234 34.639 73.5818 34.7722 73.7149C34.9054 73.8481 35.0636 73.9533 35.2376 74.0246C35.4115 74.0958 35.5978 74.1316 35.7856 74.13C35.9734 74.1284 36.159 74.0893 36.3317 74.015C36.504 73.9464 36.6608 73.8437 36.7929 73.713C36.925 73.5823 37.0296 73.4262 37.1007 73.2542C37.1717 73.0821 37.2078 72.8975 37.2066 72.7112C37.2054 72.5248 37.167 72.3407 37.0937 72.1695L35.8468 69.175L37.6479 71.8562C37.7525 72.0116 37.8865 72.1449 38.0423 72.2483C38.1982 72.3517 38.3727 72.4232 38.556 72.4588C38.7394 72.4943 38.9278 72.4933 39.1107 72.4556C39.2936 72.4179 39.4675 72.3443 39.6221 72.2391C39.7767 72.134 39.9092 71.9992 40.012 71.8426C40.1148 71.6859 40.186 71.5104 40.2214 71.3261C40.2568 71.1418 40.2557 70.9523 40.2182 70.7684C40.1808 70.5845 40.1076 70.4099 40.003 70.2544L38.2021 67.5732L40.488 69.8713C40.6199 70.004 40.7764 70.1091 40.9487 70.1809C41.121 70.2527 41.3058 70.2896 41.4923 70.2896C41.6788 70.2896 41.8636 70.2527 42.0359 70.1809C42.2082 70.1091 42.3648 70.004 42.4967 69.8713C42.6286 69.7387 42.7332 69.5813 42.8046 69.408C42.876 69.2348 42.9128 69.0492 42.9128 68.8616C42.9128 68.6741 42.876 68.4884 42.8046 68.3151C42.7332 68.1418 42.6286 67.9844 42.4967 67.8518L40.2108 65.5536L42.9123 67.3643C43.2313 67.5647 43.6151 67.6332 43.9832 67.5553C44.3512 67.4774 44.6751 67.2592 44.8865 66.9464C45.0841 66.6311 45.1512 66.2508 45.0735 65.8864C44.9959 65.5221 44.7796 65.2027 44.4709 64.9965L41.804 63.1858L44.7826 64.4393C45.1318 64.5764 45.5207 64.5693 45.8646 64.4192C46.2084 64.2692 46.4794 63.9886 46.6183 63.6385C46.6916 63.4674 46.73 63.2832 46.7312 63.0969C46.7324 62.9106 46.6963 62.7259 46.6253 62.5538C46.5542 62.3817 46.4496 62.2256 46.3175 62.0949C46.1854 61.9642 46.0286 61.8616 45.8563 61.7929L42.8777 60.5394L46.0641 61.1662C46.2539 61.2248 46.4537 61.2427 46.6508 61.2189C46.8479 61.195 47.0379 61.13 47.2084 61.0278C47.3789 60.9256 47.5262 60.7885 47.6408 60.6255C47.7554 60.4625 47.8347 60.2771 47.8736 60.0814C47.9126 59.8857 47.9103 59.6841 47.8669 59.4893C47.8235 59.2946 47.7399 59.1111 47.6216 58.9508C47.5033 58.7905 47.3529 58.6569 47.1801 58.5587C47.0072 58.4604 46.8159 58.3998 46.6183 58.3806L43.4318 57.7538L46.653 57.7538C47.0296 57.7538 47.3907 57.6033 47.657 57.3356C47.9233 57.0678 48.0729 56.7047 48.0729 56.326C48.0729 56.1386 48.0362 55.9531 47.9649 55.7798C47.8935 55.6066 47.7888 55.4491 47.657 55.3165C47.5251 55.184 47.3686 55.0788 47.1963 55.0071C47.0241 54.9353 46.8394 54.8985 46.653 54.8985L43.4665 54.8985L46.653 54.2717C47.0158 54.1806 47.3297 53.9525 47.5296 53.6348C47.7295 53.3171 47.8001 52.9342 47.7266 52.5656Z" fill="#E89B23"/>
<path d="M30.8249 38.1149C30.9532 37.8126 31.1708 37.5573 31.4483 37.3836C31.6486 37.2457 31.8746 37.1501 32.1127 37.1022C32.3508 37.0543 32.596 37.0553 32.8337 37.1052C33.3158 37.2059 33.7389 37.4936 34.0112 37.906C34.1859 38.1783 34.2928 38.4888 34.3229 38.8114C34.5117 38.5413 34.7774 38.335 35.0849 38.2195C35.5303 38.0447 36.025 38.0447 36.4704 38.2195C36.7004 38.3048 36.9093 38.4392 37.0827 38.6135C37.2561 38.7878 37.3898 38.9979 37.4747 39.2292C37.5587 39.5369 37.5587 39.8617 37.4747 40.1694C37.7213 39.9553 38.0202 39.8111 38.3406 39.7516C38.5783 39.7017 38.8236 39.7005 39.0617 39.7484C39.2997 39.7963 39.5257 39.8921 39.7261 40.03C40.0544 40.2619 40.3014 40.5922 40.432 40.9736C40.5626 41.355 40.5701 41.7681 40.4534 42.154C40.7308 42.0041 41.0391 41.9208 41.3539 41.9105C41.8479 41.9176 42.3197 42.1172 42.6699 42.4675C42.8456 42.6396 42.9851 42.8455 43.0803 43.0728C43.1754 43.3 43.2244 43.5441 43.2241 43.7907C43.2167 44.1124 43.1209 44.4258 42.9471 44.6961C43.2645 44.6087 43.5994 44.6087 43.9168 44.6961C44.1561 44.732 44.3849 44.819 44.588 44.9511C44.7911 45.0832 44.9638 45.2573 45.0944 45.462C44.8257 45.7837 44.6579 46.1783 44.6122 46.5959C44.5666 47.0134 44.6451 47.4354 44.8379 47.8081C45.0307 48.1808 45.329 48.4877 45.6952 48.6899C46.0614 48.8921 46.4791 48.9805 46.8954 48.9441C47.0683 49.4041 47.0683 49.9119 46.8954 50.3719C46.769 50.6745 46.5661 50.9385 46.3067 51.1378C46.6264 51.1732 46.9341 51.2804 47.2071 51.4513C47.6173 51.7251 47.9036 52.1504 48.0037 52.6351C48.0823 53.036 48.0263 53.4519 47.8445 53.8174C47.6628 54.1829 47.3655 54.4774 46.9993 54.6547C47.3579 54.7815 47.6687 55.017 47.8884 55.3289C48.1082 55.6408 48.2261 56.0136 48.2261 56.3958C48.2261 56.778 48.1082 57.1508 47.8884 57.4627C47.6687 57.7745 47.3579 58.0101 46.9993 58.1368C47.3683 58.3204 47.6668 58.6212 47.8484 58.9927C48.0299 59.3641 48.0845 59.7855 48.0037 60.1913C47.9535 60.4265 47.8572 60.6491 47.7205 60.8463C47.5837 61.0436 47.4091 61.2115 47.2071 61.3403C46.9492 61.5411 46.6329 61.6513 46.3067 61.6537C46.5581 61.861 46.7593 62.1229 46.8954 62.4198C47.0683 62.8798 47.0683 63.3875 46.8954 63.8475C46.74 64.2248 46.4667 64.5409 46.1168 64.7482C45.7669 64.9555 45.3594 65.0427 44.9558 64.9965C45.1974 65.3172 45.3282 65.7085 45.3282 66.1108C45.3282 66.5131 45.1974 66.9044 44.9558 67.2251C44.731 67.5711 44.3972 67.8312 44.0079 67.9638C43.6185 68.0964 43.1962 68.0937 42.8085 67.9563C42.9885 68.2365 43.0848 68.5628 43.0856 68.8964C43.0716 69.3915 42.874 69.8635 42.5315 70.2196C42.3661 69.9287 42.0926 69.7158 41.7711 69.6276C41.4496 69.5395 41.1063 69.5833 40.817 69.7495C40.5276 69.9157 40.3158 70.1907 40.2281 70.514C40.1404 70.8372 40.1841 71.1823 40.3495 71.4732C40.4032 71.9206 40.2787 72.3712 40.0031 72.7267C39.6602 72.9483 39.2547 73.0512 38.8484 73.0198C38.442 72.9884 38.057 72.8243 37.7519 72.5526C37.8388 72.8718 37.8388 73.2085 37.7519 73.5276C37.6613 73.7556 37.5255 73.9626 37.3528 74.1362C37.1802 74.3098 36.9742 74.4463 36.7474 74.5373C36.302 74.7122 35.8075 74.7122 35.362 74.5373C35.061 74.4103 34.7983 74.2062 34.6001 73.9454C34.5649 74.2669 34.4584 74.5762 34.2884 74.8507C34.016 75.2631 33.5929 75.5509 33.1108 75.6516C32.631 75.7185 32.1427 75.6204 31.7253 75.3731C31.4637 75.1815 31.2503 74.931 31.1019 74.6418C30.9891 75.0341 30.7524 75.3788 30.4275 75.6238C30.1026 75.8688 29.7071 76.0008 29.301 75.9999C28.8978 76.0049 28.5046 75.8738 28.1844 75.6276C27.8641 75.3814 27.6353 75.0343 27.5345 74.6418C27.3433 75.0052 27.0428 75.2986 26.6758 75.4799C26.3088 75.6613 25.8941 75.7214 25.4911 75.6516C25.0956 75.5679 24.7387 75.3553 24.4757 75.0468C24.2127 74.7383 24.0583 74.3512 24.0365 73.9454C23.7799 74.261 23.4315 74.4878 23.0401 74.594C22.6487 74.7002 22.2341 74.6803 21.8545 74.5373C21.4764 74.3748 21.1608 74.0937 20.9548 73.736C20.7488 73.3783 20.6634 72.9632 20.7115 72.5526C20.4819 72.7719 20.1925 72.9173 19.8803 72.9705C19.4045 73.0699 18.9089 72.9826 18.4949 72.7267C18.0847 72.4529 17.7985 72.0275 17.6983 71.5428C17.6113 71.2237 17.6113 70.887 17.6983 70.5678C17.3464 70.788 16.9308 70.8819 16.519 70.8343C16.1073 70.7868 15.7236 70.6005 15.4305 70.3059C15.1375 70.0112 14.9522 69.6256 14.9049 69.2116C14.8576 68.7976 14.9509 68.3797 15.1699 68.0259C14.7822 68.1633 14.3599 68.166 13.9706 68.0334C13.5812 67.9008 13.2474 67.6407 13.0226 67.2947C12.7593 66.8819 12.6604 66.3847 12.7455 65.9019C12.8037 65.5824 12.9614 65.2896 13.1958 65.0661C12.7875 65.1144 12.3745 65.0287 12.0186 64.8216C11.6628 64.6145 11.3832 64.2971 11.2216 63.9171C11.0487 63.4571 11.0487 62.9494 11.2216 62.4894C11.3576 62.1925 11.5589 61.9307 11.8103 61.7235C11.4841 61.721 11.1678 61.6108 10.9099 61.41C10.7079 61.2812 10.5334 61.1133 10.3966 60.9161C10.2599 60.7188 10.1635 60.4959 10.1132 60.2608C10.0293 59.7669 10.1279 59.2593 10.3904 58.8333C10.5903 58.5791 10.8372 58.3662 11.1177 58.2065C10.7736 58.0654 10.4791 57.8244 10.2718 57.5143C10.0645 57.2042 9.95386 56.8391 9.95386 56.4655C9.95386 56.0919 10.0645 55.7268 10.2718 55.4167C10.4791 55.1066 10.7736 54.8656 11.1177 54.7245C10.83 54.5753 10.581 54.3607 10.3904 54.0977C10.1271 53.685 10.0281 53.1876 10.1132 52.7048C10.2134 52.2201 10.4997 51.7946 10.9099 51.5208C11.1829 51.3498 11.4906 51.2429 11.8103 51.2075C11.5509 51.0082 11.348 50.744 11.2216 50.4414C11.0487 49.9813 11.0487 49.4738 11.2216 49.0138C11.3931 48.6436 11.676 48.337 12.0302 48.1371C12.3844 47.9372 12.7921 47.854 13.1958 47.8995C12.9256 47.5928 12.7624 47.2057 12.7312 46.7971C12.6999 46.3886 12.8022 45.9808 13.0226 45.6361C13.259 45.3032 13.5935 45.0534 13.9789 44.9222C14.3643 44.791 14.7809 44.785 15.1699 44.905C14.9658 44.5546 14.8824 44.1464 14.9325 43.7435C14.9826 43.3406 15.1634 42.9655 15.447 42.6764C15.7418 42.3927 16.118 42.2099 16.5222 42.1536C16.9264 42.0973 17.3379 42.1707 17.6983 42.3631C17.6107 42.0559 17.6107 41.7301 17.6983 41.4229C17.7985 40.9382 18.0847 40.5127 18.4949 40.2389C18.6943 40.0991 18.9203 40.0023 19.1587 39.9543C19.3971 39.9064 19.6427 39.9086 19.8803 39.9605C20.1874 40.0287 20.473 40.1722 20.7115 40.3783C20.6275 40.0706 20.6275 39.7458 20.7115 39.4381C20.8021 39.2101 20.9378 39.003 21.1105 38.8294C21.2832 38.6558 21.4892 38.5195 21.7159 38.4284C22.1735 38.2546 22.6784 38.2546 23.136 38.4284C23.4326 38.563 23.6936 38.7657 23.8979 39.0203C23.9138 38.6127 24.0661 38.2225 24.3301 37.9128C24.5941 37.6031 24.9544 37.3922 25.3525 37.3141C25.7559 37.2387 26.1727 37.2962 26.5409 37.4782C26.9091 37.6601 27.2089 37.9567 27.396 38.3238C27.4956 37.9279 27.7231 37.5763 28.0427 37.3243C28.3624 37.0723 28.7562 36.9338 29.1624 36.9309C29.5225 36.9498 29.87 37.0711 30.1643 37.2807C30.4586 37.4903 30.6877 37.7796 30.8249 38.1149ZM27.1882 41.9105L26.5648 38.7416C26.5626 38.5938 26.5282 38.4483 26.4639 38.3153C26.3997 38.1823 26.3072 38.0652 26.1929 37.9721C26.0787 37.879 25.9454 37.8122 25.8027 37.7766C25.66 37.7409 25.5112 37.7372 25.3669 37.7657C25.2226 37.7942 25.0863 37.8542 24.9676 37.9415C24.8489 38.0288 24.7506 38.1411 24.6799 38.2707C24.6091 38.4003 24.5676 38.5442 24.5581 38.6917C24.5487 38.8393 24.5716 38.9869 24.6252 39.1246L25.2486 42.2934C25.2492 42.3918 25.2178 42.4877 25.1593 42.5665C25.1008 42.6454 25.0184 42.7028 24.9245 42.7304C24.8305 42.7579 24.7303 42.754 24.6388 42.7191C24.5473 42.6842 24.4696 42.6204 24.4174 42.5372L23.2052 39.5425C23.0987 39.2984 22.9007 39.1066 22.6542 39.0088C22.4077 38.911 22.1326 38.9151 21.8891 39.0203C21.6544 39.1191 21.4679 39.3066 21.3696 39.5425C21.3181 39.6635 21.2916 39.794 21.2916 39.9256C21.2916 40.0573 21.3181 40.1876 21.3696 40.3086L22.5818 43.3032C22.623 43.4016 22.6282 43.5117 22.5965 43.6137C22.5648 43.7156 22.4983 43.803 22.4087 43.8604C22.3325 43.9289 22.2338 43.9667 22.1315 43.9667C22.0293 43.9667 21.9307 43.9289 21.8545 43.8604L20.0534 41.1443C19.9002 40.9365 19.6798 40.7888 19.43 40.7265C19.1693 40.6845 18.9024 40.7439 18.6837 40.8927C18.465 41.0414 18.3107 41.2683 18.2524 41.5273C18.1678 41.7636 18.1678 42.0223 18.2524 42.2586L20.0534 44.9747C20.0912 45.0105 20.1212 45.0537 20.1418 45.1016C20.1623 45.1495 20.173 45.2009 20.173 45.2531C20.173 45.3053 20.1623 45.357 20.1418 45.4049C20.1212 45.4528 20.0912 45.4959 20.0534 45.5317C20.0148 45.5707 19.969 45.6016 19.9184 45.6227C19.8679 45.6438 19.8138 45.6546 19.7591 45.6546C19.7044 45.6546 19.6502 45.6438 19.5997 45.6227C19.5491 45.6016 19.5033 45.5707 19.4647 45.5317L17.1788 43.2337C17.0885 43.141 16.9807 43.0673 16.8618 43.0171C16.7428 42.9668 16.6151 42.941 16.486 42.941C16.357 42.941 16.2293 42.9668 16.1104 43.0171C15.9914 43.0673 15.8837 43.141 15.7934 43.2337C15.6132 43.4272 15.513 43.6822 15.513 43.9473C15.513 44.2124 15.6132 44.4677 15.7934 44.6612L18.0793 46.9593C18.1475 47.0359 18.1851 47.1351 18.1851 47.2379C18.1851 47.3407 18.1475 47.4399 18.0793 47.5165C18.0031 47.5851 17.9044 47.6228 17.8022 47.6228C17.6999 47.6228 17.6013 47.5851 17.5251 47.5165L14.8582 45.7058C14.6373 45.5595 14.368 45.5066 14.1086 45.5587C13.8492 45.6109 13.6207 45.7639 13.4728 45.9844C13.4223 46.0996 13.3961 46.2241 13.3961 46.35C13.3961 46.4759 13.4223 46.6005 13.4728 46.7157C13.4885 46.8502 13.534 46.9793 13.6059 47.0938C13.6778 47.2083 13.7743 47.3051 13.8884 47.3771L16.5554 49.153C16.6172 49.2326 16.6507 49.3307 16.6507 49.4316C16.6507 49.5326 16.6172 49.6307 16.5554 49.7103C16.5102 49.8039 16.4318 49.8771 16.3357 49.9158C16.2397 49.9544 16.1327 49.9556 16.0358 49.9192L13.0572 48.6657C12.9368 48.614 12.8071 48.5873 12.6762 48.5873C12.5452 48.5873 12.4157 48.614 12.2953 48.6657C12.0473 48.7746 11.8494 48.9734 11.7411 49.2227C11.6896 49.3438 11.6631 49.474 11.6631 49.6057C11.6631 49.7374 11.6896 49.8676 11.7411 49.9887C11.8507 50.229 12.0497 50.4166 12.2953 50.5111L15.2738 51.7646C15.3683 51.8097 15.4442 51.8867 15.4885 51.982C15.5327 52.0773 15.5425 52.1851 15.5163 52.287C15.5004 52.3396 15.4744 52.3885 15.4397 52.4311C15.405 52.4736 15.3623 52.5089 15.3141 52.5348C15.2658 52.5606 15.2129 52.5767 15.1585 52.582C15.104 52.5872 15.0491 52.5817 14.9968 52.5656L11.845 51.9388C11.7299 51.89 11.6063 51.8647 11.4814 51.8647C11.3565 51.8647 11.2328 51.89 11.1177 51.9388C11.0026 52.001 10.9045 52.0905 10.832 52.1998C10.7595 52.3091 10.7149 52.4349 10.7021 52.5656C10.6515 52.6808 10.6254 52.8052 10.6254 52.9311C10.6254 53.057 10.6515 53.1815 10.7021 53.2967C10.7682 53.4088 10.8585 53.5047 10.9664 53.577C11.0743 53.6493 11.1971 53.6963 11.3255 53.7145L14.4773 54.3761C14.5307 54.3801 14.5828 54.3954 14.63 54.421C14.6772 54.4465 14.7184 54.4819 14.7511 54.5247C14.7838 54.5674 14.8071 54.6166 14.8196 54.669C14.8321 54.7214 14.8335 54.7758 14.8236 54.8288C14.8149 54.9335 14.7673 55.0311 14.6902 55.1021C14.6132 55.1731 14.5124 55.2121 14.4079 55.2118L11.1869 55.2118C10.9205 55.2118 10.6651 55.3182 10.4767 55.5076C10.2884 55.697 10.1826 55.9539 10.1826 56.2217C10.1825 56.3527 10.2086 56.4824 10.2595 56.603C10.3104 56.7236 10.385 56.8327 10.4787 56.9237C10.5725 57.0147 10.6835 57.0857 10.8051 57.1326C10.9268 57.1795 11.0567 57.2013 11.1869 57.1966L14.4079 57.1966C14.5182 57.1966 14.6239 57.2406 14.7019 57.319C14.7798 57.3974 14.8236 57.5036 14.8236 57.6144C14.8335 57.6674 14.8321 57.722 14.8196 57.7745C14.8071 57.8269 14.7838 57.876 14.7511 57.9188C14.7184 57.9615 14.6772 57.9967 14.63 58.0223C14.5828 58.0478 14.5307 58.0631 14.4773 58.0671L11.3255 58.6939C11.1992 58.7185 11.0791 58.7681 10.972 58.8399C10.865 58.9116 10.7732 59.0042 10.7021 59.1119C10.602 59.3573 10.602 59.6324 10.7021 59.8779C10.7203 60.0069 10.767 60.1302 10.839 60.2387C10.9109 60.3472 11.0061 60.4381 11.1177 60.5046C11.2323 60.5554 11.3562 60.5817 11.4814 60.5817C11.6066 60.5817 11.7304 60.5554 11.845 60.5046L14.9968 59.8779C15.0977 59.8688 15.1988 59.8943 15.2835 59.9501C15.3683 60.006 15.4318 60.0889 15.4638 60.1856C15.4959 60.2823 15.4946 60.3869 15.4601 60.4827C15.4257 60.5785 15.36 60.6599 15.2738 60.7135L12.2953 62.2805C12.0473 62.3894 11.8494 62.5884 11.7411 62.8376C11.6896 62.9587 11.6631 63.089 11.6631 63.2206C11.6631 63.3523 11.6896 63.4826 11.7411 63.6037C11.8475 63.8477 12.0457 64.0395 12.2922 64.1374C12.5387 64.2352 12.8137 64.2311 13.0572 64.126L16.0358 62.8725C16.1368 62.8217 16.2538 62.8133 16.361 62.8492C16.4682 62.8851 16.5568 62.9624 16.6073 63.064C16.6578 63.1656 16.6661 63.2831 16.6304 63.3908C16.5947 63.4986 16.5179 63.5878 16.4168 63.6385L13.75 65.4492C13.6384 65.5157 13.5431 65.6066 13.4711 65.7151C13.3992 65.8235 13.3524 65.9468 13.3343 66.0759C13.2873 66.271 13.3014 66.476 13.3745 66.6627C13.4477 66.8495 13.5765 67.009 13.7432 67.1194C13.9099 67.2299 14.1065 67.2859 14.306 67.2799C14.5056 67.2739 14.6984 67.2061 14.8582 67.0858L17.5251 65.3099C17.5608 65.2719 17.6037 65.2417 17.6513 65.221C17.699 65.2004 17.7503 65.1898 17.8022 65.1898C17.8541 65.1898 17.9055 65.2004 17.9531 65.221C18.0008 65.2417 18.0437 65.2719 18.0793 65.3099C18.1439 65.3949 18.1789 65.4988 18.1789 65.6058C18.1789 65.7128 18.1439 65.8169 18.0793 65.9019L15.7934 68.2001C15.7024 68.2915 15.6303 68.4 15.5811 68.5195C15.5318 68.639 15.5064 68.7671 15.5064 68.8964C15.5064 69.0257 15.5318 69.1538 15.5811 69.2733C15.6303 69.3928 15.7024 69.5014 15.7934 69.5929C15.8844 69.6843 15.9923 69.7569 16.1111 69.8063C16.23 69.8558 16.3574 69.8813 16.486 69.8813C16.6147 69.8813 16.7421 69.8558 16.8609 69.8063C16.9798 69.7569 17.0878 69.6843 17.1788 69.5929L19.4647 67.2947C19.5492 67.2297 19.6527 67.1946 19.7591 67.1946C19.8655 67.1946 19.9689 67.2297 20.0534 67.2947C20.1241 67.3769 20.163 67.4819 20.163 67.5906C20.163 67.6993 20.1241 67.8043 20.0534 67.8866L18.2524 70.5678C18.168 70.8161 18.168 71.0856 18.2524 71.3339C18.3144 71.585 18.4613 71.8066 18.668 71.9606C18.9122 72.0613 19.1859 72.0613 19.43 71.9606C19.5563 71.936 19.6764 71.8865 19.7835 71.8147C19.8905 71.743 19.9823 71.6505 20.0534 71.5428L21.8545 68.8617C21.9135 68.7818 21.999 68.7256 22.0955 68.7034C22.192 68.6813 22.2932 68.6945 22.3809 68.7407C22.4686 68.7869 22.537 68.863 22.5739 68.9554C22.6107 69.0478 22.6135 69.1503 22.5818 69.2446L21.3696 72.2392C21.265 72.484 21.2609 72.7606 21.3582 73.0084C21.4556 73.2563 21.6463 73.4553 21.8891 73.5624C22.0118 73.6134 22.1434 73.6395 22.2762 73.6391C22.409 73.6387 22.5404 73.6117 22.6628 73.5599C22.7852 73.5081 22.8962 73.4324 22.9893 73.3372C23.0824 73.242 23.1557 73.1291 23.2052 73.0052L24.4174 70.0107C24.4563 69.9108 24.532 69.8297 24.6287 69.7843C24.7254 69.739 24.8358 69.7327 24.9369 69.7669C25.0374 69.7987 25.1236 69.8649 25.1806 69.9539C25.2375 70.043 25.2616 70.1494 25.2486 70.2545L24.6252 73.4579C24.6 73.5837 24.5997 73.7132 24.6244 73.8391C24.6491 73.965 24.6982 74.0847 24.769 74.1915C24.8398 74.2982 24.9308 74.3898 25.0369 74.4612C25.143 74.5325 25.262 74.5821 25.3872 74.6071C25.6441 74.659 25.911 74.608 26.131 74.4649C26.351 74.3218 26.5067 74.0979 26.5648 73.841L27.1882 70.6723C27.1882 70.5615 27.232 70.4551 27.3099 70.3768C27.3879 70.2984 27.4937 70.2545 27.6039 70.2545C27.7141 70.2545 27.8198 70.2984 27.8977 70.3768C27.9757 70.4551 28.0195 70.5615 28.0195 70.6723L28.0195 73.9106C28.0195 74.1784 28.1253 74.4353 28.3136 74.6247C28.502 74.8141 28.7574 74.9204 29.0238 74.9204C29.2902 74.9204 29.5457 74.8141 29.7341 74.6247C29.9225 74.4353 30.0283 74.1784 30.0283 73.9106L30.0283 70.6723C30.0279 70.5673 30.0669 70.4659 30.1375 70.3885C30.2081 70.311 30.3052 70.2632 30.4093 70.2545C30.462 70.2445 30.5161 70.2458 30.5683 70.2584C30.6204 70.2709 30.6694 70.2944 30.7119 70.3273C30.7544 70.3601 30.7895 70.4017 30.815 70.4491C30.8404 70.4966 30.8555 70.5489 30.8595 70.6027L31.483 73.7713C31.5134 73.9004 31.5688 74.0222 31.6461 74.1297C31.7233 74.2373 31.8209 74.3285 31.9332 74.3981C32.0478 74.449 32.1716 74.4752 32.2968 74.4752C32.4221 74.4752 32.546 74.449 32.6605 74.3981C32.7882 74.3776 32.9099 74.3295 33.0175 74.2574C33.125 74.1853 33.2159 74.0908 33.2839 73.9802C33.3613 73.8768 33.4166 73.7586 33.4464 73.6328C33.4762 73.507 33.4798 73.3763 33.4571 73.249L32.7991 70.0455C32.7861 69.9405 32.8102 69.8341 32.8672 69.745C32.9241 69.656 33.0103 69.5898 33.1108 69.558C33.212 69.5238 33.3223 69.5301 33.419 69.5754C33.5157 69.6208 33.5914 69.7019 33.6303 69.8018L34.8771 72.7963C34.9181 72.9216 34.9859 73.0364 35.0756 73.1326C35.1653 73.2289 35.275 73.3042 35.3967 73.3535C35.5171 73.4052 35.6467 73.4319 35.7776 73.4319C35.9086 73.4319 36.0383 73.4052 36.1587 73.3535C36.2804 73.3042 36.3899 73.2289 36.4797 73.1326C36.5694 73.0364 36.6372 72.9216 36.6782 72.7963C36.7296 72.6752 36.7561 72.545 36.7561 72.4133C36.7561 72.2817 36.7296 72.1513 36.6782 72.0302L35.4659 69.0357C35.4423 68.9902 35.4281 68.9403 35.4241 68.8891C35.42 68.8379 35.4262 68.7864 35.4424 68.7376C35.4585 68.6889 35.4843 68.644 35.5181 68.6055C35.5518 68.5669 35.593 68.5356 35.6391 68.5134C35.7209 68.4424 35.8254 68.4032 35.9335 68.4032C36.0417 68.4032 36.1461 68.4424 36.2279 68.5134L37.9943 71.1946C38.1422 71.4151 38.3706 71.568 38.63 71.6202C38.8894 71.6723 39.1588 71.6195 39.3797 71.4732C39.4869 71.4017 39.5787 71.3093 39.6501 71.2017C39.7214 71.0941 39.7708 70.9733 39.7953 70.8464C39.8954 70.6009 39.8954 70.3257 39.7953 70.0803L37.9943 67.3991C37.9297 67.3141 37.8947 67.2102 37.8947 67.1032C37.8947 66.9962 37.9297 66.8921 37.9943 66.8071C38.0705 66.7386 38.1691 66.7008 38.2714 66.7008C38.3736 66.7008 38.4722 66.7386 38.5484 66.8071L40.8343 69.1053C40.9246 69.198 41.0324 69.2716 41.1514 69.3219C41.2703 69.3721 41.398 69.398 41.527 69.398C41.6561 69.398 41.7837 69.3721 41.9027 69.3219C42.0216 69.2716 42.1295 69.198 42.2198 69.1053C42.3164 69.0172 42.3936 68.9098 42.4465 68.7898C42.4994 68.6699 42.5266 68.5402 42.5266 68.409C42.5266 68.2778 42.4994 68.1481 42.4465 68.0281C42.3936 67.9082 42.3164 67.8006 42.2198 67.7125L40.0031 65.7626C39.9643 65.7237 39.9336 65.6777 39.9126 65.6269C39.8916 65.5761 39.8808 65.5216 39.8808 65.4666C39.8808 65.4116 39.8916 65.3572 39.9126 65.3064C39.9336 65.2556 39.9643 65.2094 40.0031 65.1706C40.0387 65.1326 40.0817 65.1025 40.1293 65.0818C40.1769 65.0612 40.2282 65.0505 40.2801 65.0505C40.332 65.0505 40.3834 65.0612 40.4311 65.0818C40.4787 65.1025 40.5217 65.1326 40.5573 65.1706L43.2588 66.9465C43.3739 66.9953 43.4976 67.0205 43.6225 67.0205C43.7474 67.0205 43.871 66.9953 43.9861 66.9465C44.2397 66.8932 44.4631 66.7435 44.6095 66.5286C44.6862 66.4202 44.7401 66.2971 44.7678 66.167C44.7955 66.0369 44.7964 65.9025 44.7705 65.772C44.7445 65.6415 44.6922 65.5178 44.6169 65.4084C44.5416 65.299 44.4448 65.2062 44.3324 65.1358L41.6656 63.3251C41.5974 63.2485 41.5597 63.1493 41.5597 63.0465C41.5597 62.9438 41.5974 62.8446 41.6656 62.768C41.7173 62.6718 41.8019 62.5975 41.9037 62.5591C42.0056 62.5207 42.1179 62.5206 42.2198 62.559L45.1983 63.8126C45.3187 63.8643 45.4483 63.891 45.5792 63.891C45.7102 63.891 45.8399 63.8643 45.9603 63.8126C46.1949 63.7137 46.3815 63.5262 46.4798 63.2903C46.5312 63.1692 46.5578 63.0389 46.5578 62.9072C46.5578 62.7756 46.5312 62.6453 46.4798 62.5243C46.3858 62.2773 46.1993 62.0772 45.9603 61.967L42.9816 60.7484C42.8822 60.7093 42.8016 60.6333 42.7565 60.5361C42.7114 60.4388 42.7052 60.3277 42.7393 60.226C42.747 60.1715 42.7662 60.1194 42.7957 60.0732C42.8252 60.0269 42.8644 59.9877 42.9104 59.958C42.9564 59.9282 43.0083 59.9088 43.0624 59.901C43.1165 59.8932 43.1717 59.8972 43.2241 59.9127L46.3759 60.5395C46.4899 60.5925 46.614 60.62 46.7396 60.62C46.8652 60.62 46.9892 60.5925 47.1032 60.5395C47.2155 60.4698 47.3131 60.3786 47.3904 60.271C47.4676 60.1635 47.523 60.0418 47.5535 59.9127C47.5786 59.7824 47.578 59.6483 47.5516 59.5183C47.5251 59.3882 47.4733 59.2646 47.3993 59.1546C47.3254 59.0447 47.2306 58.9506 47.1203 58.8775C47.0101 58.8044 46.8866 58.7537 46.7569 58.7287L43.6051 58.102C43.5011 58.0848 43.4073 58.0285 43.343 57.9445C43.2787 57.8604 43.2486 57.7548 43.2588 57.6493C43.2668 57.5411 43.3131 57.4395 43.3894 57.3628C43.4657 57.2861 43.5668 57.2395 43.6744 57.2314L46.8954 57.2314C47.0256 57.2361 47.1555 57.2144 47.2772 57.1675C47.3988 57.1206 47.5099 57.0496 47.6037 56.9586C47.6974 56.8676 47.772 56.7585 47.8229 56.6379C47.8738 56.5172 47.8999 56.3876 47.8998 56.2566C47.8998 55.9888 47.794 55.7319 47.6057 55.5425C47.4173 55.3531 47.1618 55.2466 46.8954 55.2466L43.4666 55.2466C43.3643 55.2399 43.2673 55.1983 43.1918 55.1287C43.1162 55.059 43.0665 54.9655 43.051 54.8637C43.0408 54.7581 43.0709 54.6527 43.1352 54.5687C43.1995 54.4846 43.2933 54.4282 43.3973 54.411L46.5491 53.7494C46.6774 53.7285 46.8002 53.6819 46.9102 53.6123C47.0202 53.5427 47.1151 53.4517 47.1894 53.3445C47.2637 53.2373 47.3159 53.1161 47.3427 52.9883C47.3695 52.8605 47.3705 52.7285 47.3457 52.6002C47.2803 52.3453 47.1245 52.1233 46.9076 51.9758C46.6908 51.8283 46.4277 51.7656 46.1681 51.7994L43.0163 52.4262C42.9663 52.4419 42.9136 52.4471 42.8615 52.4415C42.8093 52.4358 42.759 52.4194 42.7135 52.3932C42.668 52.3671 42.6283 52.3318 42.597 52.2895C42.5657 52.2473 42.5434 52.1991 42.5315 52.1478C42.4974 52.046 42.5036 51.9349 42.5487 51.8377C42.5938 51.7404 42.6745 51.6645 42.7738 51.6254L45.7525 50.3719C45.9871 50.273 46.1737 50.0853 46.272 49.8495C46.3234 49.7284 46.35 49.5982 46.35 49.4665C46.35 49.3348 46.3234 49.2046 46.272 49.0835C46.2262 48.9609 46.1563 48.8486 46.0664 48.7537C45.9765 48.6588 45.8686 48.5832 45.749 48.5312C45.6294 48.4791 45.5006 48.4519 45.3703 48.451C45.24 48.4502 45.1108 48.4758 44.9905 48.5263L42.0119 49.7798C41.91 49.8181 41.7978 49.8182 41.6959 49.7798C41.5941 49.7414 41.5095 49.6671 41.4578 49.5708C41.396 49.4913 41.3624 49.3934 41.3624 49.2924C41.3624 49.1915 41.396 49.0934 41.4578 49.0138L44.1246 47.2379C44.237 47.1675 44.3338 47.0749 44.4091 46.9655C44.4844 46.856 44.5367 46.7323 44.5627 46.6018C44.5886 46.4713 44.5877 46.3368 44.56 46.2067C44.5323 46.0766 44.4784 45.9536 44.4017 45.8452C44.3337 45.7347 44.2429 45.64 44.1353 45.5679C44.0277 45.4958 43.9059 45.4477 43.7783 45.4272C43.6637 45.3763 43.5398 45.3502 43.4146 45.3502C43.2893 45.3502 43.1655 45.3763 43.051 45.4272L40.3495 47.2379C40.2733 47.3064 40.1746 47.3444 40.0723 47.3444C39.9701 47.3444 39.8715 47.3064 39.7953 47.2379C39.7576 47.2021 39.7275 47.1589 39.7069 47.111C39.6864 47.0631 39.6758 47.0115 39.6758 46.9593C39.6758 46.9071 39.6864 46.8557 39.7069 46.8078C39.7275 46.7599 39.7576 46.7167 39.7953 46.6809L42.0465 44.3826C42.1441 44.2949 42.2222 44.1876 42.2759 44.0676C42.3296 43.9477 42.3576 43.8177 42.3582 43.6861C42.3582 43.5494 42.3306 43.4142 42.2771 43.2885C42.2235 43.1628 42.145 43.0493 42.0465 42.955C41.856 42.7837 41.6095 42.6889 41.3539 42.6889C41.0983 42.6889 40.8517 42.7837 40.6612 42.955L38.3753 45.2531C38.3396 45.291 38.2967 45.3213 38.2491 45.3419C38.2014 45.3626 38.1501 45.3734 38.0982 45.3734C38.0463 45.3734 37.9949 45.3626 37.9473 45.3419C37.8996 45.3213 37.8567 45.291 37.8211 45.2531C37.7529 45.1765 37.7153 45.0775 37.7153 44.9747C37.7153 44.8719 37.7529 44.7727 37.8211 44.6961L39.6222 41.98C39.6934 41.8727 39.7426 41.7524 39.7672 41.6259C39.7918 41.4993 39.7913 41.3692 39.7655 41.2429C39.7397 41.1166 39.6893 40.9967 39.6171 40.8901C39.5449 40.7835 39.4525 40.6925 39.345 40.6221C39.1283 40.4723 38.8619 40.4137 38.6028 40.4593C38.3438 40.5049 38.1129 40.6508 37.9597 40.8657L36.1932 43.5818C36.1087 43.6467 36.0053 43.6819 35.8989 43.6819C35.7925 43.6819 35.6891 43.6467 35.6045 43.5818C35.5149 43.5244 35.4484 43.437 35.4167 43.335C35.385 43.2331 35.3901 43.123 35.4313 43.0245L36.6435 40.03C36.695 39.9089 36.7215 39.7787 36.7215 39.647C36.7215 39.5154 36.695 39.3851 36.6435 39.264C36.6003 39.144 36.5314 39.0349 36.4416 38.9446C36.3519 38.8544 36.2434 38.7851 36.124 38.7416C36.0036 38.6899 35.8739 38.6632 35.743 38.6632C35.612 38.6632 35.4825 38.6899 35.362 38.7416C35.2427 38.7851 35.1342 38.8544 35.0444 38.9446C34.9546 39.0349 34.8858 39.144 34.8425 39.264L33.5956 42.2586C33.5435 42.3418 33.4658 42.4056 33.3743 42.4405C33.2828 42.4754 33.1825 42.4795 33.0886 42.452C32.9947 42.4244 32.9122 42.3668 32.8538 42.2879C32.7953 42.209 32.7639 42.1132 32.7644 42.0148L33.4225 38.8462C33.4642 38.5841 33.4051 38.3157 33.2571 38.0958C33.1091 37.8759 32.8834 37.7208 32.6259 37.6622C32.3908 37.5771 32.1336 37.5771 31.8986 37.6622C31.6696 37.8165 31.5083 38.0534 31.4483 38.3238L30.8249 41.4926C30.8011 41.5938 30.7433 41.6836 30.6613 41.747C30.5793 41.8104 30.478 41.8435 30.3746 41.8407C30.2733 41.8251 30.1803 41.7752 30.111 41.6992C30.0417 41.6232 30.0003 41.5258 29.9936 41.4229L29.9936 38.1846C29.9936 37.9168 29.8878 37.6599 29.6994 37.4705C29.5111 37.2811 29.2556 37.1747 28.9893 37.1747C28.7229 37.1747 28.4673 37.2811 28.279 37.4705C28.0906 37.6599 27.9848 37.9168 27.9848 38.1846L27.9848 41.4229C27.9852 41.528 27.9462 41.6292 27.8756 41.7066C27.805 41.7841 27.708 41.832 27.6039 41.8407C27.5471 41.8885 27.4786 41.9201 27.4055 41.9323C27.3324 41.9446 27.2573 41.9371 27.1882 41.9105Z" fill="#531036"/>
<path d="M41.042 52.5655C41.682 56.2919 41.2865 60.1235 39.8991 63.6384C35.8122 61.2706 34.6692 54.1671 34.6692 54.1671C33.6302 64.6133 28.5735 68.4437 27.7423 69.0704C26.7379 68.4437 21.7158 64.7177 20.8153 54.1671C20.8153 54.1671 19.6378 61.1313 15.5855 63.6384C14.1758 60.1295 13.7679 56.2947 14.4079 52.5655C14.4079 52.5655 12.3991 61.4448 1.38525 58.9028C2.70007 58.2878 3.84692 57.3612 4.72761 56.2029C5.60829 55.0446 6.19653 53.6889 6.44191 52.252C8.58926 43.895 14.8929 39.0202 27.6038 38.8461L28.3311 38.8461C41.0075 39.0202 47.3457 43.895 49.4584 52.252C49.7128 53.6903 50.3084 55.0458 51.1947 56.2035C52.0809 57.3613 53.2318 58.2873 54.5497 58.9028C43.0856 61.4448 41.042 52.5655 41.042 52.5655Z" fill="#873B6E"/>
<path d="M44.9213 44.2433C47.0735 46.4451 48.5727 49.2063 49.2507 52.2171C49.5018 53.6067 50.079 54.9161 50.9343 56.0365C51.7897 57.1569 52.8985 58.056 54.1688 58.6591L55 58.9724L54.1341 59.1464C46.2027 60.9919 42.8086 56.9528 41.5271 54.4457C41.8169 57.6262 41.3294 60.8297 40.107 63.7776L40.107 64.0214L39.8646 64.0214C37.2612 61.9943 35.477 59.0872 34.8426 55.8386C34.69 58.4619 33.9951 61.0243 32.8024 63.3625C31.6098 65.7007 29.9455 67.7632 27.9156 69.4186L27.7424 69.4186C25.7125 67.7632 24.0483 65.7007 22.8556 63.3625C21.6629 61.0243 20.968 58.4619 20.8154 55.8386C20.193 59.0833 18.4209 61.9906 15.828 64.0214L15.5857 64.0214L15.5857 63.7776C14.405 60.8185 13.9305 57.6225 14.2002 54.4457C12.8841 56.9528 9.48987 60.9919 1.5585 59.1464L0.692627 58.9724L1.5585 58.6591C2.8223 58.0517 3.92425 57.1506 4.77338 56.0305C5.62251 54.9105 6.19448 53.6033 6.44202 52.2171C8.72791 43.2682 15.6549 38.8112 27.6039 38.5675L28.8161 38.5675C34.702 38.3652 40.4492 40.3907 44.9213 44.2433ZM51.5365 57.4751C50.1638 56.0426 49.2059 54.2609 48.7657 52.3217C46.5491 43.5817 39.7261 39.264 27.9849 39.0899L27.7424 39.0899L27.2576 39.0899C15.4125 39.0899 8.58941 43.5817 6.47668 52.3217C6.20325 53.6611 5.65559 54.9285 4.8685 56.0435C4.08142 57.1585 3.07213 58.0967 1.90487 58.7983C11.9143 60.7134 13.8192 52.8788 13.8885 52.5306L14.408 52.5306C13.8169 56.1098 14.1631 59.782 15.4124 63.1857C18.0139 60.7735 19.7235 57.5446 20.2613 54.0279L20.5731 52.0779L20.7809 54.0279C21.7853 64.2652 26.5995 67.9562 27.7078 68.7222C28.8161 67.991 33.5957 64.2652 34.6348 54.0279L34.8079 52.0779L35.1196 54.0279C35.673 57.5394 37.38 60.7634 39.9685 63.1857C41.2295 59.7851 41.5876 56.1128 41.0076 52.5306L41.4924 52.5306C41.4924 52.8788 43.5013 60.7134 53.4761 58.7983C52.7653 58.4609 52.1109 58.0145 51.5365 57.4751Z" fill="#541136"/>
<path d="M14.1306 44.4174C14.6155 44.0344 15.1004 43.6862 15.6199 43.338C16.1216 42.9851 16.6419 42.6597 17.1785 42.3631C18.2258 41.7701 19.3276 41.2802 20.4688 40.9005C25.0584 39.4603 29.9755 39.4603 34.5651 40.9005C35.7063 41.2802 36.8082 41.7701 37.8555 42.3631C38.4097 42.6765 38.8945 42.9898 39.414 43.338C39.9335 43.6862 40.4185 44.0344 40.9034 44.4174C42.7777 45.9681 44.3611 47.8431 45.579 49.954C46.4811 51.4928 47.1467 53.1597 47.5532 54.8985C47.5558 54.9643 47.5377 55.0294 47.5014 55.0843C47.4651 55.1391 47.4126 55.181 47.3512 55.2041C47.2898 55.2273 47.2228 55.2304 47.1596 55.2131C47.0964 55.1957 47.0402 55.1587 46.999 55.1074C46.1886 53.6278 45.2743 52.208 44.263 50.8592C42.9125 49.0551 41.3416 47.4291 39.5872 46.0193C38.73 45.3108 37.8275 44.6594 36.8857 44.0693C36.4355 43.7559 35.9159 43.4774 35.431 43.1988L34.7037 42.781C34.4613 42.781 34.1842 42.5371 33.9417 42.3978C31.8525 41.3987 29.7006 40.538 27.4997 39.8211C25.3123 40.544 23.1722 41.4046 21.0923 42.3978C20.8498 42.3978 20.5727 42.6417 20.3303 42.781L19.6029 43.1988C19.118 43.4774 18.5985 43.7559 18.1483 44.0693C17.2065 44.6594 16.304 45.3108 15.4468 46.0193C13.6925 47.4291 12.1215 49.0551 10.7711 50.8592C9.75969 52.208 8.84529 53.6278 8.03488 55.1074C7.99375 55.1587 7.93764 55.1957 7.87443 55.2131C7.81121 55.2304 7.74416 55.2273 7.6828 55.2041C7.62144 55.181 7.56887 55.1391 7.5326 55.0843C7.49634 55.0294 7.47815 54.9643 7.48071 54.8985C7.88719 53.1597 8.55279 51.4928 9.45492 49.954C10.6728 47.8431 12.2563 45.9681 14.1306 44.4174Z" fill="#F8CA95"/>
<path d="M42.6008 45.6015C43.8442 46.8789 44.926 48.3056 45.8218 49.8495C46.713 51.406 47.3778 53.0828 47.796 54.8288C47.8375 54.9651 47.8256 55.1122 47.7625 55.2398C47.6994 55.3675 47.59 55.466 47.4569 55.5151C47.3238 55.5641 47.177 55.5602 47.0468 55.5038C46.9166 55.4474 46.8129 55.3428 46.757 55.2118C45.9591 53.7435 45.0562 52.3355 44.0555 50.9986C42.718 49.2266 41.1711 47.6247 39.449 46.2282C38.5904 45.5214 37.6881 44.8701 36.7475 44.2782C36.4704 44.0693 36.1587 43.8951 35.8816 43.721L35.2929 43.4077L34.5655 43.0245C34.3303 42.8833 34.0875 42.7555 33.8382 42.6416C31.7875 41.6457 29.6695 40.7963 27.5001 40.0997C25.3439 40.802 23.2378 41.6512 21.1965 42.6416C20.9436 42.7482 20.7002 42.8763 20.4691 43.0245L19.7072 43.4077L19.1531 43.721C18.876 43.8951 18.5643 44.0693 18.2872 44.2782C17.3465 44.8701 16.4442 45.5214 15.5857 46.2282C13.8635 47.6247 12.3167 49.2266 10.9792 50.9986C9.97848 52.3355 9.0756 53.7435 8.27768 55.2118C8.22174 55.3428 8.11796 55.4474 7.98775 55.5038C7.85755 55.5602 7.71087 55.5641 7.57776 55.5151C7.44464 55.466 7.33526 55.3675 7.27219 55.2398C7.20911 55.1122 7.19715 54.9651 7.23868 54.8288C7.65684 53.0828 8.32157 51.406 9.21278 49.8495C10.4589 47.6979 12.0776 45.7875 13.9924 44.2085L15.2393 43.2683L15.7241 42.955C16.1398 42.6765 16.59 42.3978 17.0403 42.154C18.1478 41.5516 19.307 41.0506 20.5038 40.6568C22.7887 39.8791 25.1925 39.5137 27.604 39.5773C30.015 39.5202 32.4176 39.8854 34.7041 40.6568C35.8982 41.0576 37.0567 41.5584 38.1675 42.154C38.6178 42.3978 39.0681 42.6765 39.4837 42.955L39.9685 43.2683L41.2154 44.2085C41.5964 44.6612 42.0813 45.114 42.6008 45.6015ZM47.2418 55.0029C46.8353 53.2915 46.1818 51.6493 45.3023 50.1281C44.1029 48.0343 42.5296 46.181 40.6612 44.6612C40.2803 44.313 39.8646 44.0344 39.449 43.721L38.9642 43.4077C38.5486 43.164 38.1328 42.8853 37.6826 42.6416C36.58 42.038 35.4197 41.5481 34.2191 41.1792C32.4698 40.6006 30.6541 40.2496 28.8161 40.1346C30.5224 40.7202 32.1884 41.418 33.8035 42.2237C34.0674 42.3304 34.3223 42.4584 34.5655 42.6067L35.3275 42.9899C35.5042 43.1184 35.6893 43.2346 35.8816 43.338C36.1939 43.5031 36.4948 43.6892 36.7822 43.8951C37.7397 44.478 38.654 45.1299 39.5182 45.8452C41.2751 47.2766 42.8564 48.9129 44.2286 50.72C45.2563 52.0818 46.1714 53.5259 46.9648 55.0377L47.2418 55.0029ZM7.75818 55.0029C8.55157 53.491 9.46671 52.047 10.4944 50.6851C12.5495 47.9412 15.0703 45.5837 17.9408 43.721L18.8414 43.1988C19.0337 43.0954 19.2187 42.9789 19.3954 42.8505L20.1574 42.4675C20.4032 42.3136 20.6576 42.1741 20.9194 42.0497C22.5415 41.2699 24.2067 40.5838 25.9068 39.9952C24.0688 40.1101 22.2531 40.4614 20.5038 41.0399C19.3626 41.4196 18.2608 41.9093 17.2135 42.5024C16.7633 42.7461 16.3476 43.0246 15.9319 43.2683L15.4471 43.5818C15.0315 43.8952 14.6159 44.1738 14.2349 44.522C12.3665 46.0418 10.7932 47.8949 9.59382 49.9887C8.71426 51.5098 8.06083 53.1523 7.65428 54.8637L7.75818 55.0029Z" fill="#531036"/>
<path d="M27.5 41.388C29.4402 41.7533 31.2744 42.5503 32.8684 43.7209C34.4735 44.9339 35.8168 46.4622 36.8167 48.2129C37.8358 49.9264 38.5289 51.8156 38.8603 53.7841C39.148 55.2041 39.2296 56.6584 39.1026 58.1019C39.0813 58.1633 39.0416 58.2165 38.9889 58.2542C38.9361 58.2919 38.873 58.3123 38.8083 58.3123C38.7435 58.3123 38.6804 58.2919 38.6276 58.2542C38.5749 58.2165 38.5352 58.1633 38.5139 58.1019C38.1675 56.7438 37.7866 55.4206 37.3363 54.1322C36.7377 52.4015 35.972 50.7338 35.0504 49.1529C34.1483 47.5935 33.0545 46.1546 31.7947 44.87C30.471 43.5667 29.0207 42.4002 27.4654 41.388C25.9277 42.4098 24.4897 43.5756 23.1707 44.87C21.9109 46.1546 20.8171 47.5935 19.915 49.1529C18.9934 50.7338 18.2278 52.4015 17.6291 54.1322C17.1789 55.4206 16.7979 56.7438 16.4515 58.1019C16.4303 58.1633 16.3905 58.2165 16.3377 58.2542C16.2849 58.2919 16.2218 58.3123 16.1571 58.3123C16.0923 58.3123 16.0293 58.2919 15.9765 58.2542C15.9238 58.2165 15.884 58.1633 15.8627 58.1019C15.7357 56.6584 15.8174 55.2041 16.1052 53.7841C16.4365 51.8156 17.1295 49.9264 18.1486 48.2129C19.1485 46.4622 20.4918 44.9339 22.0969 43.7209C23.7011 42.5456 25.5478 41.7483 27.5 41.388Z" fill="#F8CA95"/>
<path d="M34.6692 44.8701C35.6083 45.8054 36.4232 46.8588 37.0937 48.0041C38.0933 49.7677 38.7955 51.6856 39.1718 53.6799C39.4366 55.1262 39.518 56.6002 39.4142 58.0671C39.3993 58.2005 39.3399 58.325 39.2455 58.4199C39.1511 58.5148 39.0273 58.5746 38.8947 58.5895C38.7644 58.5953 38.6358 58.5574 38.5293 58.4818C38.4227 58.4061 38.3442 58.2971 38.3059 58.1717C37.9849 56.8281 37.5918 55.5029 37.1284 54.2021C36.5292 52.4996 35.7755 50.8562 34.877 49.2924C33.9812 47.7486 32.8994 46.3217 31.656 45.0442C30.3766 43.7613 28.9858 42.5959 27.4999 41.5621C26.0253 42.5967 24.646 43.7621 23.3783 45.0442C22.135 46.3217 21.053 47.7486 20.1572 49.2924C19.2587 50.8562 18.5051 52.4996 17.906 54.2021C17.4425 55.5029 17.0494 56.8281 16.7284 58.1717C16.6902 58.2971 16.6117 58.4061 16.5051 58.4818C16.3985 58.5574 16.2699 58.5953 16.1396 58.5895C16.0069 58.5746 15.8833 58.5148 15.7889 58.4199C15.6945 58.325 15.635 58.2005 15.6201 58.0671C15.5163 56.6002 15.5978 55.1262 15.8626 53.6799C16.2389 51.6856 16.9411 49.7677 17.9407 48.0041C18.9681 46.2218 20.347 44.6695 21.9929 43.4426C23.5985 42.2404 25.46 41.4296 27.4306 41.0746L28.8853 40.8657L28.1579 41.214C29.8743 41.6234 31.4892 42.3818 32.9029 43.4426C33.5333 43.864 34.1244 44.3418 34.6692 44.8701ZM38.8254 58.0671C38.9291 56.6349 38.8476 55.1954 38.583 53.7842C38.221 51.8679 37.5295 50.0298 36.5395 48.3522C35.5486 46.635 34.2163 45.1414 32.6258 43.9648C31.4104 43.0461 30.0366 42.3614 28.5736 41.9451C29.8087 42.7934 30.9676 43.7489 32.037 44.8004C33.3117 46.1062 34.4172 47.5687 35.3273 49.153C36.2374 50.7399 37.0025 52.4065 37.6132 54.1324C38.0719 55.4466 38.4649 56.7831 38.7908 58.1368L38.8254 58.0671ZM16.1396 58.0671C16.4655 56.7134 16.8586 55.3771 17.3173 54.0629C17.9279 52.337 18.6929 50.6704 19.6031 49.0835C20.5055 47.494 21.6117 46.0306 22.8934 44.7309C23.9628 43.6794 25.1217 42.7239 26.3569 41.8756C24.8938 42.2919 23.52 42.9764 22.3047 43.8951C20.7142 45.0717 19.3819 46.5653 18.3909 48.2825C17.4056 49.9838 16.7255 51.8461 16.3821 53.7842C16.1174 55.1954 16.0359 56.6349 16.1396 58.0671Z" fill="#531036"/>
<path d="M29.8894 54.202C29.9412 53.2974 29.9412 52.3907 29.8894 51.4861C29.8069 50.5707 29.6565 49.6628 29.4393 48.77C29.0029 46.9127 28.412 45.0957 27.6729 43.338C29.1543 44.7282 30.3336 46.4117 31.1363 48.2824C31.4862 49.235 31.764 50.2129 31.9675 51.2075C32.4979 54.2225 32.1615 57.327 30.9978 60.1564C30.4058 61.6726 29.5756 63.0833 28.5387 64.3348C28.5387 64.5438 28.0884 64.3349 28.1577 64.1259C28.6914 62.6703 29.1311 61.1815 29.4738 59.6689C29.8005 57.866 29.9398 56.0338 29.8894 54.202Z" fill="#F8CA95"/>
<path d="M28.0193 43.4771C29.3346 44.8259 30.3706 46.4238 31.0672 48.178C31.4555 49.1443 31.7456 50.1475 31.9331 51.1725C32.1012 52.185 32.1822 53.2102 32.1754 54.2368C32.1413 56.3024 31.7305 58.3441 30.9633 60.2607C30.3537 61.7969 29.5127 63.2299 28.4696 64.5089C28.3851 64.5739 28.2815 64.609 28.1751 64.609C28.0687 64.609 27.9653 64.5739 27.8808 64.5089C27.7808 64.4513 27.7027 64.3618 27.6588 64.2546C27.6149 64.1474 27.6077 64.0286 27.6383 63.9169C28.1576 62.4801 28.597 61.0154 28.9544 59.5296C29.3568 57.7461 29.5773 55.926 29.6125 54.0975C29.6797 53.2051 29.6797 52.3087 29.6125 51.4163C29.5276 50.5012 29.3771 49.5935 29.1622 48.7002C28.7094 46.8703 28.1189 45.0778 27.3958 43.3379L26.9802 42.2584L27.8115 43.0592L28.0193 43.4771ZM28.0193 64.0214C28.9663 62.8277 29.7363 61.5023 30.3052 60.0866C31.0573 58.2276 31.4567 56.2435 31.4828 54.2368C31.5067 53.2328 31.4254 52.2291 31.2403 51.2422C31.0646 50.2674 30.7978 49.3114 30.4437 48.3869C29.8633 46.9544 29.0563 45.6256 28.0539 44.4521C28.6023 45.8347 29.0537 47.2541 29.4047 48.7002L29.855 51.4511C29.9049 52.3674 29.9049 53.2856 29.855 54.2019C29.809 56.0661 29.5769 57.921 29.1622 59.7385C28.9243 61.1843 28.6005 62.6145 28.1925 64.0214L28.0193 64.0214Z" fill="#531036"/>
<path d="M27.4997 43.3381C26.7606 45.0958 26.1697 46.9129 25.7333 48.7701C25.5161 49.6629 25.3655 50.5709 25.2831 51.4862C25.2313 52.3908 25.2313 53.2976 25.2831 54.2022C25.3238 56.0437 25.556 57.876 25.9758 59.669C26.2997 61.0841 26.7044 62.4793 27.1879 63.8476C27.2039 63.9094 27.1984 63.9747 27.1722 64.0329C27.1459 64.091 27.1006 64.1383 27.0438 64.1669C26.987 64.1954 26.9221 64.2035 26.8601 64.1897C26.798 64.176 26.7427 64.1412 26.7031 64.0912C25.7667 62.8965 25.0083 61.5711 24.4519 60.1566C23.2881 57.3272 22.9517 54.2226 23.4821 51.2076C23.6856 50.213 23.9635 49.2352 24.3133 48.2826C25.0342 46.4359 26.118 44.7543 27.4997 43.3381Z" fill="#F8CA95"/>
<path d="M28.1577 42.363L27.7421 43.4425C27.014 45.1924 26.4235 46.9969 25.9758 48.8396C25.7585 49.7206 25.608 50.6168 25.5255 51.5207C25.4583 52.4131 25.4583 53.3095 25.5255 54.2019C25.5607 56.0304 25.7812 57.8505 26.1836 59.634C26.5057 61.0381 26.9104 62.4218 27.3957 63.7776C27.4287 63.8944 27.423 64.0188 27.3792 64.1319C27.3355 64.2451 27.2562 64.3407 27.1533 64.4044C27.0638 64.4876 26.9463 64.5338 26.8243 64.5338C26.7023 64.5338 26.5849 64.4876 26.4953 64.4044C25.5295 63.192 24.7474 61.8427 24.1747 60.4001C23.4109 58.4947 23.0001 56.4648 22.9625 54.4109C22.9544 53.3728 23.0356 52.3358 23.2049 51.3118C23.3924 50.2868 23.6825 49.2835 24.0708 48.3172C24.8423 46.4089 26.0252 44.6964 27.5343 43.303L28.1577 42.363ZM26.7723 63.9518C26.2874 62.4893 25.9065 61.0965 25.5947 59.7385C25.1801 57.921 24.9481 56.0661 24.9021 54.2019C24.8522 53.2857 24.8522 52.3674 24.9021 51.4512L25.3523 48.7002C25.7033 47.2542 26.1547 45.8348 26.7031 44.4522C25.7007 45.6257 24.8937 46.9544 24.3133 48.3869C23.9591 49.3114 23.6924 50.2675 23.5166 51.2423C23.3315 52.2291 23.2503 53.2328 23.2743 54.2368C23.3004 56.2435 23.6998 58.2276 24.4518 60.0866C25.0379 61.4798 25.8192 62.7814 26.7723 63.9518Z" fill="#531036"/>
</svg>
